%TF.GenerationSoftware,KiCad,Pcbnew,9.0.2*%
%TF.CreationDate,2025-07-28T15:43:42-04:00*%
%TF.ProjectId,WaterCam_mDot_WittyPi_AHT_BNO_Lepton,57617465-7243-4616-9d5f-6d446f745f57,rev?*%
%TF.SameCoordinates,Original*%
%TF.FileFunction,Copper,L2,Bot*%
%TF.FilePolarity,Positive*%
%FSLAX46Y46*%
G04 Gerber Fmt 4.6, Leading zero omitted, Abs format (unit mm)*
G04 Created by KiCad (PCBNEW 9.0.2) date 2025-07-28 15:43:42*
%MOMM*%
%LPD*%
G01*
G04 APERTURE LIST*
%TA.AperFunction,ComponentPad*%
%ADD10C,1.930400*%
%TD*%
%TA.AperFunction,ComponentPad*%
%ADD11C,1.200000*%
%TD*%
%TA.AperFunction,ComponentPad*%
%ADD12C,1.778000*%
%TD*%
%TA.AperFunction,ComponentPad*%
%ADD13C,1.524000*%
%TD*%
%TA.AperFunction,ComponentPad*%
%ADD14C,1.600000*%
%TD*%
%TA.AperFunction,ComponentPad*%
%ADD15R,2.000000X2.000000*%
%TD*%
%TA.AperFunction,ComponentPad*%
%ADD16C,2.000000*%
%TD*%
%TA.AperFunction,ComponentPad*%
%ADD17R,1.524000X1.524000*%
%TD*%
%TA.AperFunction,ViaPad*%
%ADD18C,0.900000*%
%TD*%
%TA.AperFunction,Conductor*%
%ADD19C,0.200000*%
%TD*%
G04 APERTURE END LIST*
D10*
%TO.P,U1,4,SDA*%
%TO.N,/GPIO2{slash}SDA1*%
X72710000Y-54620000D03*
%TO.P,U1,3,SCL*%
%TO.N,/GPIO3{slash}SCL1*%
X70170000Y-54620000D03*
%TO.P,U1,2,GND*%
%TO.N,GND*%
X67630000Y-54620000D03*
%TO.P,U1,1,VIN*%
%TO.N,+5V*%
X65090000Y-54620000D03*
%TD*%
D11*
%TO.P,U3,24,PC_1*%
%TO.N,unconnected-(U3-PC_1-Pad24)*%
X148365000Y-69500000D03*
%TO.P,U3,1,VDD*%
%TO.N,Net-(J3-3V3)*%
X166365000Y-47580000D03*
%TO.P,U3,2,PA_2*%
%TO.N,/GPIO13{slash}PWM1*%
X164365000Y-47580000D03*
%TO.P,U3,3,PA_3*%
%TO.N,/GPIO12{slash}PWM0*%
X162365000Y-47580000D03*
%TO.P,U3,4,PA_6*%
%TO.N,/GPIO5*%
X160365000Y-47580000D03*
%TO.P,U3,5,NRESET*%
%TO.N,unconnected-(U3-NRESET-Pad5)*%
X158365000Y-47580000D03*
%TO.P,U3,6,PA_8*%
%TO.N,unconnected-(U3-PA_8-Pad6)*%
X156365000Y-47580000D03*
%TO.P,U3,7,PC_9*%
%TO.N,unconnected-(U3-PC_9-Pad7)*%
X154365000Y-47580000D03*
%TO.P,U3,8,RFU*%
%TO.N,unconnected-(U3-RFU-Pad8)*%
X152365000Y-47580000D03*
%TO.P,U3,9,PA_11*%
%TO.N,unconnected-(U3-PA_11-Pad9)*%
X150365000Y-47580000D03*
%TO.P,U3,10,GND*%
%TO.N,GND*%
X148365000Y-47580000D03*
%TO.P,U3,11,VOUT*%
%TO.N,unconnected-(U3-VOUT-Pad11)*%
X138800000Y-51580000D03*
%TO.P,U3,12,GND*%
%TO.N,unconnected-(U3-GND-Pad12)*%
X138800000Y-53580000D03*
%TO.P,U3,13,PA_14*%
%TO.N,unconnected-(U3-PA_14-Pad13)*%
X138800000Y-55580000D03*
%TO.P,U3,14,PA_13*%
%TO.N,unconnected-(U3-PA_13-Pad14)*%
X138800000Y-57560000D03*
%TO.P,U3,15,PB_4*%
%TO.N,unconnected-(U3-PB_4-Pad15)*%
X138800000Y-59580000D03*
%TO.P,U3,16,PB_3*%
%TO.N,unconnected-(U3-PB_3-Pad16)*%
X138800000Y-61580000D03*
%TO.P,U3,17,PA_10*%
%TO.N,unconnected-(U3-PA_10-Pad17)*%
X138800000Y-63580000D03*
%TO.P,U3,18,PA_9*%
%TO.N,unconnected-(U3-PA_9-Pad18)*%
X138800000Y-65580000D03*
%TO.P,U3,19,PB_1*%
%TO.N,Net-(Q1-G)*%
X166365000Y-69500000D03*
%TO.P,U3,20,PB_0*%
%TO.N,unconnected-(U3-PB_0-Pad20)*%
X164365000Y-69540000D03*
%TO.P,U3,21,PA_5*%
%TO.N,unconnected-(U3-PA_5-Pad21)*%
X162365000Y-69500000D03*
%TO.P,U3,22,PA_4*%
%TO.N,unconnected-(U3-PA_4-Pad22)*%
X160365000Y-69500000D03*
%TO.P,U3,23,PA_1*%
%TO.N,unconnected-(U3-PA_1-Pad23)*%
X158365000Y-69540000D03*
%TO.P,U3,24,PC_1*%
%TO.N,unconnected-(U3-PC_1-Pad24)_1*%
X156365000Y-69540000D03*
%TO.P,U3,25,NC*%
%TO.N,unconnected-(U3-NC-Pad25)*%
X154365000Y-69540000D03*
%TO.P,U3,26,PC_13*%
%TO.N,unconnected-(U3-PC_13-Pad26)*%
X152365000Y-69540000D03*
%TO.P,U3,27,PA_0*%
%TO.N,unconnected-(U3-PA_0-Pad27)*%
X150365000Y-69540000D03*
%TD*%
D12*
%TO.P,U2,1,RST*%
%TO.N,unconnected-(U2-RST-Pad1)*%
X86870000Y-54510000D03*
%TO.P,U2,2,SDA*%
%TO.N,/GPIO2{slash}SDA1*%
X89410000Y-54510000D03*
%TO.P,U2,3,SCL*%
%TO.N,/GPIO3{slash}SCL1*%
X91950000Y-54510000D03*
%TO.P,U2,4,GND*%
%TO.N,GND*%
X94490000Y-54510000D03*
%TO.P,U2,5,3V*%
%TO.N,unconnected-(U2-3V-Pad5)*%
X97030000Y-54510000D03*
%TO.P,U2,6,VIN*%
%TO.N,+5V*%
X99570000Y-54510000D03*
%TD*%
D13*
%TO.P,J2,1,Pin_1*%
%TO.N,GND*%
X62030000Y-37230000D03*
%TO.P,J2,2,Pin_2*%
%TO.N,+5V*%
X62030000Y-39770000D03*
%TO.P,J2,3,Pin_3*%
%TO.N,unconnected-(J2-Pin_3-Pad3)*%
X64570000Y-37230000D03*
%TO.P,J2,4,Pin_4*%
%TO.N,unconnected-(J2-Pin_4-Pad4)*%
X64570000Y-39770000D03*
%TO.P,J2,5,Pin_5*%
%TO.N,/GPIO2{slash}SDA1*%
X67110000Y-37230000D03*
%TO.P,J2,6,Pin_6*%
%TO.N,unconnected-(J2-Pin_6-Pad6)*%
X67110000Y-39770000D03*
%TO.P,J2,7,Pin_7*%
%TO.N,/GPIO11{slash}SPI0.SCLK*%
X69650000Y-37230000D03*
%TO.P,J2,8,Pin_8*%
%TO.N,/GPIO3{slash}SCL1*%
X69650000Y-39770000D03*
%TO.P,J2,9,Pin_9*%
%TO.N,/GPIO10{slash}SPI0.MOSI*%
X72190000Y-37230000D03*
%TO.P,J2,10,Pin_10*%
%TO.N,/GPIO8{slash}SPI0.CE0*%
X72190000Y-39770000D03*
%TO.P,J2,11,Pin_11*%
%TO.N,unconnected-(J2-Pin_11-Pad11)*%
X74730000Y-37230000D03*
%TO.P,J2,12,Pin_12*%
%TO.N,/GPIO9{slash}SPI0.MISO*%
X74730000Y-39770000D03*
%TO.P,J2,13,Pin_13*%
%TO.N,unconnected-(J2-Pin_13-Pad13)*%
X77270000Y-37230000D03*
%TO.P,J2,14,Pin_14*%
%TO.N,unconnected-(J2-Pin_14-Pad14)*%
X77270000Y-39770000D03*
%TO.P,J2,15,Pin_15*%
%TO.N,/GPIO17*%
X79810000Y-37230000D03*
%TO.P,J2,16,Pin_16*%
%TO.N,unconnected-(J2-Pin_16-Pad16)*%
X79810000Y-39770000D03*
%TO.P,J2,17,Pin_17*%
%TO.N,/GPIO6*%
X82350000Y-37230000D03*
%TO.P,J2,18,Pin_18*%
%TO.N,unconnected-(J2-Pin_18-Pad18)*%
X82350000Y-39770000D03*
%TO.P,J2,19,Pin_19*%
%TO.N,unconnected-(J2-Pin_19-Pad19)*%
X84890000Y-37230000D03*
%TO.P,J2,20,Pin_20*%
%TO.N,unconnected-(J2-Pin_20-Pad20)*%
X84890000Y-39770000D03*
%TD*%
D14*
%TO.P,R3,1*%
%TO.N,GND*%
X101546000Y-87611000D03*
%TO.P,R3,2*%
%TO.N,Net-(Q1-G)*%
X104086000Y-87611000D03*
%TD*%
D13*
%TO.P,P3,7,GND*%
%TO.N,GND*%
X75110000Y-97990000D03*
%TO.P,P3,6,CATH*%
%TO.N,unconnected-(J3-CATH-Pad6)*%
X77650000Y-97990000D03*
%TO.P,P3,5,SW*%
%TO.N,Net-(J3-SW)*%
X80190000Y-97990000D03*
%TO.P,P3,4,ALM*%
%TO.N,unconnected-(J3-ALM-Pad4)*%
X82730000Y-97990000D03*
%TO.P,P3,3,LED*%
%TO.N,unconnected-(J3-LED-Pad3)*%
X85270000Y-97990000D03*
%TO.P,P3,2,3V3*%
%TO.N,Net-(J3-3V3)*%
X87810000Y-97990000D03*
%TO.P,P3,1,VOUT*%
%TO.N,unconnected-(J3-VOUT-Pad1)*%
X90350000Y-97990000D03*
%TD*%
D15*
%TO.P,Q1,1,D*%
%TO.N,Net-(J3-SW)*%
X100694500Y-78126500D03*
D16*
%TO.P,Q1,2,G*%
%TO.N,Net-(Q1-G)*%
X103234500Y-78126500D03*
%TO.P,Q1,3,S*%
%TO.N,GND*%
X105774500Y-78126500D03*
%TD*%
D17*
%TO.P,J1,1,Pin_1*%
%TO.N,unconnected-(J1-Pin_1-Pad1)*%
X108260000Y-49310000D03*
D13*
%TO.P,J1,2,Pin_2*%
%TO.N,+5V*%
X108260000Y-46770000D03*
%TO.P,J1,3,Pin_3*%
%TO.N,/GPIO2{slash}SDA1*%
X105720000Y-49310000D03*
%TO.P,J1,4,Pin_4*%
%TO.N,+5V*%
X105720000Y-46770000D03*
%TO.P,J1,5,Pin_5*%
%TO.N,/GPIO3{slash}SCL1*%
X103180000Y-49310000D03*
%TO.P,J1,6,Pin_6*%
%TO.N,GND*%
X103180000Y-46770000D03*
%TO.P,J1,7,Pin_7*%
%TO.N,/GPIO4{slash}GPCLK0*%
X100640000Y-49310000D03*
%TO.P,J1,8,Pin_8*%
%TO.N,/GPIO14{slash}TXD0*%
X100640000Y-46770000D03*
%TO.P,J1,9,Pin_9*%
%TO.N,GND*%
X98100000Y-49310000D03*
%TO.P,J1,10,Pin_10*%
%TO.N,/GPIO15{slash}RXD0*%
X98100000Y-46770000D03*
%TO.P,J1,11,Pin_11*%
%TO.N,/GPIO17*%
X95560000Y-49310000D03*
%TO.P,J1,12,Pin_12*%
%TO.N,/GPIO18{slash}PCM.CLK*%
X95560000Y-46770000D03*
%TO.P,J1,13,Pin_13*%
%TO.N,/GPIO27*%
X93020000Y-49310000D03*
%TO.P,J1,14,Pin_14*%
%TO.N,GND*%
X93020000Y-46770000D03*
%TO.P,J1,15,Pin_15*%
%TO.N,/GPIO22*%
X90480000Y-49310000D03*
%TO.P,J1,16,Pin_16*%
%TO.N,/GPIO23*%
X90480000Y-46770000D03*
%TO.P,J1,17,Pin_17*%
%TO.N,unconnected-(J1-Pin_17-Pad17)*%
X87940000Y-49310000D03*
%TO.P,J1,18,Pin_18*%
%TO.N,/GPIO24*%
X87940000Y-46770000D03*
%TO.P,J1,19,Pin_19*%
%TO.N,/GPIO10{slash}SPI0.MOSI*%
X85400000Y-49310000D03*
%TO.P,J1,20,Pin_20*%
%TO.N,GND*%
X85400000Y-46770000D03*
%TO.P,J1,21,Pin_21*%
%TO.N,/GPIO9{slash}SPI0.MISO*%
X82860000Y-49310000D03*
%TO.P,J1,22,Pin_22*%
%TO.N,/GPIO25*%
X82860000Y-46770000D03*
%TO.P,J1,23,Pin_23*%
%TO.N,/GPIO11{slash}SPI0.SCLK*%
X80320000Y-49310000D03*
%TO.P,J1,24,Pin_24*%
%TO.N,/GPIO8{slash}SPI0.CE0*%
X80320000Y-46770000D03*
%TO.P,J1,25,Pin_25*%
%TO.N,GND*%
X77780000Y-49310000D03*
%TO.P,J1,26,Pin_26*%
%TO.N,/GPIO7{slash}SPI0.CE1*%
X77780000Y-46770000D03*
%TO.P,J1,27,Pin_27*%
%TO.N,/ID_SDA*%
X75240000Y-49310000D03*
%TO.P,J1,28,Pin_28*%
%TO.N,/ID_SCL*%
X75240000Y-46770000D03*
%TO.P,J1,29,Pin_29*%
%TO.N,/GPIO5*%
X72700000Y-49310000D03*
%TO.P,J1,30,Pin_30*%
%TO.N,GND*%
X72700000Y-46770000D03*
%TO.P,J1,31,Pin_31*%
%TO.N,/GPIO6*%
X70160000Y-49310000D03*
%TO.P,J1,32,Pin_32*%
%TO.N,/GPIO12{slash}PWM0*%
X70160000Y-46770000D03*
%TO.P,J1,33,Pin_33*%
%TO.N,/GPIO13{slash}PWM1*%
X67620000Y-49310000D03*
%TO.P,J1,34,Pin_34*%
%TO.N,GND*%
X67620000Y-46770000D03*
%TO.P,J1,35,Pin_35*%
%TO.N,/GPIO19{slash}PCM.FS*%
X65080000Y-49310000D03*
%TO.P,J1,36,Pin_36*%
%TO.N,/GPIO16*%
X65080000Y-46770000D03*
%TO.P,J1,37,Pin_37*%
%TO.N,/GPIO26*%
X62540000Y-49310000D03*
%TO.P,J1,38,Pin_38*%
%TO.N,/GPIO20{slash}PCM.DIN*%
X62540000Y-46770000D03*
%TO.P,J1,39,Pin_39*%
%TO.N,GND*%
X60000000Y-49310000D03*
%TO.P,J1,40,Pin_40*%
%TO.N,/GPIO21{slash}PCM.DOUT*%
X60000000Y-46770000D03*
%TD*%
D18*
%TO.N,/GPIO6*%
X71411000Y-43690000D03*
%TD*%
D19*
%TO.N,/GPIO6*%
X71411000Y-43690000D02*
X71411000Y-48059000D01*
X71411000Y-48059000D02*
X70160000Y-49310000D01*
%TO.N,/GPIO3{slash}SCL1*%
X70170000Y-54620000D02*
X72353000Y-52437000D01*
X72353000Y-52437000D02*
X89877000Y-52437000D01*
X89877000Y-52437000D02*
X91950000Y-54510000D01*
%TO.N,/GPIO2{slash}SDA1*%
X72710000Y-54620000D02*
X74497000Y-56407000D01*
X74497000Y-56407000D02*
X87513000Y-56407000D01*
X87513000Y-56407000D02*
X89410000Y-54510000D01*
X66047000Y-40214000D02*
X61476000Y-44785000D01*
X64353000Y-57623000D02*
X69707000Y-57623000D01*
X66047000Y-38293000D02*
X66047000Y-40214000D01*
X67110000Y-37230000D02*
X66047000Y-38293000D01*
X61476000Y-54746000D02*
X64353000Y-57623000D01*
X61476000Y-44785000D02*
X61476000Y-54746000D01*
X69707000Y-57623000D02*
X72710000Y-54620000D01*
%TO.N,/GPIO3{slash}SCL1*%
X63669000Y-45751000D02*
X63669000Y-51251000D01*
X63669000Y-51251000D02*
X62242000Y-52678000D01*
X62242000Y-52678000D02*
X62242000Y-54524000D01*
X62242000Y-54524000D02*
X64940000Y-57222000D01*
X69650000Y-39770000D02*
X63669000Y-45751000D01*
X64940000Y-57222000D02*
X68421000Y-57222000D01*
X68421000Y-57222000D02*
X70170000Y-55473000D01*
X70170000Y-55473000D02*
X70170000Y-54620000D01*
%TO.N,/GPIO8{slash}SPI0.CE0*%
X80320000Y-46770000D02*
X75936800Y-42386800D01*
X74686800Y-42386800D02*
X72300000Y-40000000D01*
X75936800Y-42386800D02*
X74686800Y-42386800D01*
%TO.N,/GPIO17*%
X94260000Y-48080000D02*
X95560000Y-49380000D01*
X95560000Y-49380000D02*
X95560000Y-49310000D01*
X93530000Y-45150000D02*
X94260000Y-45880000D01*
X95560000Y-49310000D02*
X95560000Y-48708300D01*
X94260000Y-45880000D02*
X94260000Y-48080000D01*
X86920000Y-43650000D02*
X88420000Y-45150000D01*
X85642000Y-38449000D02*
X86920000Y-39727000D01*
X86920000Y-39727000D02*
X86920000Y-43650000D01*
X79920000Y-37460000D02*
X80909000Y-38449000D01*
X80909000Y-38449000D02*
X85642000Y-38449000D01*
X88420000Y-45150000D02*
X93530000Y-45150000D01*
%TO.N,/GPIO11{slash}SPI0.SCLK*%
X79050000Y-48040000D02*
X79050000Y-46523600D01*
X79050000Y-46523600D02*
X76111400Y-43585000D01*
X74335700Y-43585000D02*
X70835200Y-40084500D01*
X70835200Y-38535200D02*
X69760000Y-37460000D01*
X76111400Y-43585000D02*
X74335700Y-43585000D01*
X80320000Y-49310000D02*
X79050000Y-48040000D01*
X70835200Y-40084500D02*
X70835200Y-38535200D01*
%TO.N,/GPIO9{slash}SPI0.MISO*%
X81590000Y-48040000D02*
X82860000Y-49310000D01*
X81590000Y-46006000D02*
X81590000Y-48040000D01*
X74840000Y-40000000D02*
X75584000Y-40000000D01*
X75584000Y-40000000D02*
X81590000Y-46006000D01*
%TO.N,/GPIO10{slash}SPI0.MOSI*%
X84130000Y-45772500D02*
X84130000Y-48040000D01*
X73218000Y-38378000D02*
X77833000Y-38378000D01*
X78519000Y-40161500D02*
X84130000Y-45772500D01*
X78519000Y-39064000D02*
X78519000Y-40161500D01*
X77833000Y-38378000D02*
X78519000Y-39064000D01*
X84130000Y-48040000D02*
X85400000Y-49310000D01*
X72300000Y-37460000D02*
X73218000Y-38378000D01*
%TD*%
%TA.AperFunction,Conductor*%
%TO.N,GND*%
G36*
X86965652Y-34645051D02*
G01*
X87170233Y-34657632D01*
X87189748Y-34660403D01*
X87384889Y-34704176D01*
X87403723Y-34710008D01*
X87589448Y-34784171D01*
X87607120Y-34792916D01*
X87778738Y-34895594D01*
X87794795Y-34907028D01*
X87947962Y-35035624D01*
X87962009Y-35049466D01*
X88092836Y-35200713D01*
X88104513Y-35216611D01*
X88209701Y-35386688D01*
X88218710Y-35404238D01*
X88295594Y-35588842D01*
X88301706Y-35607597D01*
X88348346Y-35802064D01*
X88351406Y-35821550D01*
X88367017Y-36026177D01*
X88367376Y-36035507D01*
X88367376Y-36035901D01*
X88367337Y-36047223D01*
X88367385Y-36047291D01*
X88367402Y-36066668D01*
X88367394Y-36066692D01*
X88367402Y-36066740D01*
X88369141Y-42993092D01*
X88369138Y-42993928D01*
X88368483Y-43094720D01*
X88368484Y-43094730D01*
X88388464Y-43237469D01*
X88389661Y-43254562D01*
X88389999Y-43691999D01*
X88390000Y-43692000D01*
X89256000Y-44466000D01*
X89697552Y-44465132D01*
X89701523Y-44465190D01*
X89707435Y-44465372D01*
X89763853Y-44472543D01*
X89870470Y-44470499D01*
X167296068Y-44441512D01*
X167299863Y-44442076D01*
X167315513Y-44441790D01*
X167315515Y-44441791D01*
X167326990Y-44441581D01*
X167336833Y-44441793D01*
X167541396Y-44454369D01*
X167560919Y-44457140D01*
X167756064Y-44500912D01*
X167774891Y-44506742D01*
X167960621Y-44580905D01*
X167978299Y-44589653D01*
X168149915Y-44692330D01*
X168165970Y-44703762D01*
X168215611Y-44745439D01*
X168319133Y-44832355D01*
X168333183Y-44846201D01*
X168464011Y-44997450D01*
X168475689Y-45013349D01*
X168580870Y-45183422D01*
X168589879Y-45200971D01*
X168666765Y-45385585D01*
X168672876Y-45404341D01*
X168719510Y-45598802D01*
X168722570Y-45618291D01*
X168738187Y-45823099D01*
X168738497Y-45829027D01*
X168738552Y-45831003D01*
X168738507Y-45843964D01*
X168738935Y-45844558D01*
X168739456Y-45862986D01*
X168739144Y-45864168D01*
X168739505Y-45866468D01*
X168743236Y-71186937D01*
X168742667Y-71190760D01*
X168743159Y-71217834D01*
X168742945Y-71227694D01*
X168730368Y-71432225D01*
X168727595Y-71451755D01*
X168683824Y-71646884D01*
X168677989Y-71665727D01*
X168603830Y-71851443D01*
X168595081Y-71869123D01*
X168492409Y-72040732D01*
X168480967Y-72056801D01*
X168352378Y-72209959D01*
X168338533Y-72224009D01*
X168187286Y-72354836D01*
X168171388Y-72366513D01*
X168001311Y-72471701D01*
X167983761Y-72480710D01*
X167799157Y-72557594D01*
X167780402Y-72563706D01*
X167585935Y-72610346D01*
X167566448Y-72613406D01*
X167361878Y-72629012D01*
X167352446Y-72629371D01*
X167351051Y-72629371D01*
X167350627Y-72629370D01*
X167322235Y-72629272D01*
X167321515Y-72629384D01*
X118906967Y-72649671D01*
X118906949Y-72649671D01*
X118902173Y-72649674D01*
X118798469Y-72647751D01*
X118678927Y-72663047D01*
X118674663Y-72663298D01*
X118673817Y-72663102D01*
X118667418Y-72663511D01*
X114911015Y-72663999D01*
X114911000Y-72664000D01*
X112336000Y-72665000D01*
X109315000Y-72665000D01*
X109315000Y-99685500D01*
X109295315Y-99752539D01*
X109242511Y-99798294D01*
X109191000Y-99809500D01*
X53860595Y-99809500D01*
X53860595Y-99809183D01*
X53851365Y-99809936D01*
X53695774Y-99800368D01*
X53676244Y-99797595D01*
X53481115Y-99753824D01*
X53462272Y-99747989D01*
X53276556Y-99673830D01*
X53258876Y-99665081D01*
X53192208Y-99625194D01*
X53087264Y-99562407D01*
X53071202Y-99550969D01*
X52918037Y-99422375D01*
X52903990Y-99408533D01*
X52773163Y-99257286D01*
X52761486Y-99241388D01*
X52748830Y-99220924D01*
X52656295Y-99071306D01*
X52647290Y-99053763D01*
X52642676Y-99042685D01*
X52570405Y-98869157D01*
X52564293Y-98850402D01*
X52537978Y-98740680D01*
X52517652Y-98655932D01*
X52514593Y-98636449D01*
X52504031Y-98498000D01*
X52498981Y-98431801D01*
X52498623Y-98422445D01*
X52498622Y-98422308D01*
X52498663Y-98410777D01*
X52498617Y-98410714D01*
X52498609Y-98392016D01*
X52498609Y-98391120D01*
X52498616Y-98391097D01*
X52498609Y-98391054D01*
X52498673Y-97890678D01*
X73848000Y-97890678D01*
X73848000Y-98089321D01*
X73879075Y-98285520D01*
X73879075Y-98285523D01*
X73940457Y-98474437D01*
X74030641Y-98651432D01*
X74057730Y-98688715D01*
X74620504Y-98125941D01*
X74636619Y-98186081D01*
X74703498Y-98301920D01*
X74798080Y-98396502D01*
X74913919Y-98463381D01*
X74974057Y-98479494D01*
X74411283Y-99042268D01*
X74411283Y-99042269D01*
X74448567Y-99069358D01*
X74625562Y-99159542D01*
X74814477Y-99220924D01*
X75010679Y-99252000D01*
X75209321Y-99252000D01*
X75405520Y-99220924D01*
X75405523Y-99220924D01*
X75594437Y-99159542D01*
X75771425Y-99069362D01*
X75808716Y-99042268D01*
X75245942Y-98479494D01*
X75306081Y-98463381D01*
X75421920Y-98396502D01*
X75516502Y-98301920D01*
X75583381Y-98186081D01*
X75599495Y-98125942D01*
X76162268Y-98688715D01*
X76189362Y-98651425D01*
X76279542Y-98474437D01*
X76340924Y-98285523D01*
X76340924Y-98285520D01*
X76372000Y-98089321D01*
X76372000Y-97895197D01*
X76687500Y-97895197D01*
X76687500Y-98084802D01*
X76724486Y-98270743D01*
X76724488Y-98270751D01*
X76797042Y-98445912D01*
X76902377Y-98603558D01*
X77036441Y-98737622D01*
X77141300Y-98807686D01*
X77194085Y-98842956D01*
X77369249Y-98915512D01*
X77555197Y-98952499D01*
X77555201Y-98952500D01*
X77555202Y-98952500D01*
X77744799Y-98952500D01*
X77744800Y-98952499D01*
X77930751Y-98915512D01*
X78105915Y-98842956D01*
X78263558Y-98737622D01*
X78397622Y-98603558D01*
X78502956Y-98445915D01*
X78575512Y-98270751D01*
X78612500Y-98084798D01*
X78612500Y-97895202D01*
X78612499Y-97895197D01*
X79227500Y-97895197D01*
X79227500Y-98084802D01*
X79264486Y-98270743D01*
X79264488Y-98270751D01*
X79337042Y-98445912D01*
X79442377Y-98603558D01*
X79576441Y-98737622D01*
X79681300Y-98807686D01*
X79734085Y-98842956D01*
X79909249Y-98915512D01*
X80095197Y-98952499D01*
X80095201Y-98952500D01*
X80095202Y-98952500D01*
X80284799Y-98952500D01*
X80284800Y-98952499D01*
X80470751Y-98915512D01*
X80645915Y-98842956D01*
X80803558Y-98737622D01*
X80937622Y-98603558D01*
X81042956Y-98445915D01*
X81115512Y-98270751D01*
X81152500Y-98084798D01*
X81152500Y-97895202D01*
X81152499Y-97895197D01*
X81767500Y-97895197D01*
X81767500Y-98084802D01*
X81804486Y-98270743D01*
X81804488Y-98270751D01*
X81877042Y-98445912D01*
X81982377Y-98603558D01*
X82116441Y-98737622D01*
X82221300Y-98807686D01*
X82274085Y-98842956D01*
X82449249Y-98915512D01*
X82635197Y-98952499D01*
X82635201Y-98952500D01*
X82635202Y-98952500D01*
X82824799Y-98952500D01*
X82824800Y-98952499D01*
X83010751Y-98915512D01*
X83185915Y-98842956D01*
X83343558Y-98737622D01*
X83477622Y-98603558D01*
X83582956Y-98445915D01*
X83655512Y-98270751D01*
X83692500Y-98084798D01*
X83692500Y-97895202D01*
X83692499Y-97895197D01*
X84307500Y-97895197D01*
X84307500Y-98084802D01*
X84344486Y-98270743D01*
X84344488Y-98270751D01*
X84417042Y-98445912D01*
X84522377Y-98603558D01*
X84656441Y-98737622D01*
X84761300Y-98807686D01*
X84814085Y-98842956D01*
X84989249Y-98915512D01*
X85175197Y-98952499D01*
X85175201Y-98952500D01*
X85175202Y-98952500D01*
X85364799Y-98952500D01*
X85364800Y-98952499D01*
X85550751Y-98915512D01*
X85725915Y-98842956D01*
X85883558Y-98737622D01*
X86017622Y-98603558D01*
X86122956Y-98445915D01*
X86195512Y-98270751D01*
X86232500Y-98084798D01*
X86232500Y-97895202D01*
X86232499Y-97895197D01*
X86847500Y-97895197D01*
X86847500Y-98084802D01*
X86884486Y-98270743D01*
X86884488Y-98270751D01*
X86957042Y-98445912D01*
X87062377Y-98603558D01*
X87196441Y-98737622D01*
X87301300Y-98807686D01*
X87354085Y-98842956D01*
X87529249Y-98915512D01*
X87715197Y-98952499D01*
X87715201Y-98952500D01*
X87715202Y-98952500D01*
X87904799Y-98952500D01*
X87904800Y-98952499D01*
X88090751Y-98915512D01*
X88265915Y-98842956D01*
X88423558Y-98737622D01*
X88557622Y-98603558D01*
X88662956Y-98445915D01*
X88735512Y-98270751D01*
X88772500Y-98084798D01*
X88772500Y-97895202D01*
X88772499Y-97895197D01*
X89387500Y-97895197D01*
X89387500Y-98084802D01*
X89424486Y-98270743D01*
X89424488Y-98270751D01*
X89497042Y-98445912D01*
X89602377Y-98603558D01*
X89736441Y-98737622D01*
X89841300Y-98807686D01*
X89894085Y-98842956D01*
X90069249Y-98915512D01*
X90255197Y-98952499D01*
X90255201Y-98952500D01*
X90255202Y-98952500D01*
X90444799Y-98952500D01*
X90444800Y-98952499D01*
X90630751Y-98915512D01*
X90805915Y-98842956D01*
X90963558Y-98737622D01*
X91097622Y-98603558D01*
X91202956Y-98445915D01*
X91275512Y-98270751D01*
X91312500Y-98084798D01*
X91312500Y-97895202D01*
X91275512Y-97709249D01*
X91202956Y-97534085D01*
X91167686Y-97481300D01*
X91097622Y-97376441D01*
X90963558Y-97242377D01*
X90805912Y-97137042D01*
X90630751Y-97064488D01*
X90630743Y-97064486D01*
X90444802Y-97027500D01*
X90444798Y-97027500D01*
X90255202Y-97027500D01*
X90255197Y-97027500D01*
X90069256Y-97064486D01*
X90069248Y-97064488D01*
X89894087Y-97137042D01*
X89736441Y-97242377D01*
X89602377Y-97376441D01*
X89497042Y-97534087D01*
X89424488Y-97709248D01*
X89424486Y-97709256D01*
X89387500Y-97895197D01*
X88772499Y-97895197D01*
X88735512Y-97709249D01*
X88662956Y-97534085D01*
X88627686Y-97481300D01*
X88557622Y-97376441D01*
X88423558Y-97242377D01*
X88265912Y-97137042D01*
X88090751Y-97064488D01*
X88090743Y-97064486D01*
X87904802Y-97027500D01*
X87904798Y-97027500D01*
X87715202Y-97027500D01*
X87715197Y-97027500D01*
X87529256Y-97064486D01*
X87529248Y-97064488D01*
X87354087Y-97137042D01*
X87196441Y-97242377D01*
X87062377Y-97376441D01*
X86957042Y-97534087D01*
X86884488Y-97709248D01*
X86884486Y-97709256D01*
X86847500Y-97895197D01*
X86232499Y-97895197D01*
X86195512Y-97709249D01*
X86122956Y-97534085D01*
X86087686Y-97481300D01*
X86017622Y-97376441D01*
X85883558Y-97242377D01*
X85725912Y-97137042D01*
X85550751Y-97064488D01*
X85550743Y-97064486D01*
X85364802Y-97027500D01*
X85364798Y-97027500D01*
X85175202Y-97027500D01*
X85175197Y-97027500D01*
X84989256Y-97064486D01*
X84989248Y-97064488D01*
X84814087Y-97137042D01*
X84656441Y-97242377D01*
X84522377Y-97376441D01*
X84417042Y-97534087D01*
X84344488Y-97709248D01*
X84344486Y-97709256D01*
X84307500Y-97895197D01*
X83692499Y-97895197D01*
X83655512Y-97709249D01*
X83582956Y-97534085D01*
X83547686Y-97481300D01*
X83477622Y-97376441D01*
X83343558Y-97242377D01*
X83185912Y-97137042D01*
X83010751Y-97064488D01*
X83010743Y-97064486D01*
X82824802Y-97027500D01*
X82824798Y-97027500D01*
X82635202Y-97027500D01*
X82635197Y-97027500D01*
X82449256Y-97064486D01*
X82449248Y-97064488D01*
X82274087Y-97137042D01*
X82116441Y-97242377D01*
X81982377Y-97376441D01*
X81877042Y-97534087D01*
X81804488Y-97709248D01*
X81804486Y-97709256D01*
X81767500Y-97895197D01*
X81152499Y-97895197D01*
X81115512Y-97709249D01*
X81042956Y-97534085D01*
X81007686Y-97481300D01*
X80937622Y-97376441D01*
X80803558Y-97242377D01*
X80645912Y-97137042D01*
X80470751Y-97064488D01*
X80470743Y-97064486D01*
X80284802Y-97027500D01*
X80284798Y-97027500D01*
X80095202Y-97027500D01*
X80095197Y-97027500D01*
X79909256Y-97064486D01*
X79909248Y-97064488D01*
X79734087Y-97137042D01*
X79576441Y-97242377D01*
X79442377Y-97376441D01*
X79337042Y-97534087D01*
X79264488Y-97709248D01*
X79264486Y-97709256D01*
X79227500Y-97895197D01*
X78612499Y-97895197D01*
X78575512Y-97709249D01*
X78502956Y-97534085D01*
X78467686Y-97481300D01*
X78397622Y-97376441D01*
X78263558Y-97242377D01*
X78105912Y-97137042D01*
X77930751Y-97064488D01*
X77930743Y-97064486D01*
X77744802Y-97027500D01*
X77744798Y-97027500D01*
X77555202Y-97027500D01*
X77555197Y-97027500D01*
X77369256Y-97064486D01*
X77369248Y-97064488D01*
X77194087Y-97137042D01*
X77036441Y-97242377D01*
X76902377Y-97376441D01*
X76797042Y-97534087D01*
X76724488Y-97709248D01*
X76724486Y-97709256D01*
X76687500Y-97895197D01*
X76372000Y-97895197D01*
X76372000Y-97890678D01*
X76340924Y-97694479D01*
X76340924Y-97694476D01*
X76279542Y-97505562D01*
X76189358Y-97328567D01*
X76162268Y-97291283D01*
X75599494Y-97854057D01*
X75583381Y-97793919D01*
X75516502Y-97678080D01*
X75421920Y-97583498D01*
X75306081Y-97516619D01*
X75245942Y-97500504D01*
X75808716Y-96937731D01*
X75808715Y-96937730D01*
X75771432Y-96910641D01*
X75594437Y-96820457D01*
X75405522Y-96759075D01*
X75209321Y-96728000D01*
X75010679Y-96728000D01*
X74814479Y-96759075D01*
X74814476Y-96759075D01*
X74625562Y-96820457D01*
X74448564Y-96910643D01*
X74411283Y-96937729D01*
X74411282Y-96937730D01*
X74974058Y-97500504D01*
X74913919Y-97516619D01*
X74798080Y-97583498D01*
X74703498Y-97678080D01*
X74636619Y-97793919D01*
X74620504Y-97854057D01*
X74057730Y-97291282D01*
X74057729Y-97291283D01*
X74030643Y-97328564D01*
X73940457Y-97505562D01*
X73879075Y-97694476D01*
X73879075Y-97694479D01*
X73848000Y-97890678D01*
X52498673Y-97890678D01*
X52498884Y-96253713D01*
X54633500Y-96253713D01*
X54633500Y-96466286D01*
X54666595Y-96675243D01*
X54666754Y-96676243D01*
X54713612Y-96820457D01*
X54732444Y-96878414D01*
X54828951Y-97067820D01*
X54953890Y-97239786D01*
X55104213Y-97390109D01*
X55276179Y-97515048D01*
X55276181Y-97515049D01*
X55276184Y-97515051D01*
X55465588Y-97611557D01*
X55667757Y-97677246D01*
X55877713Y-97710500D01*
X55877714Y-97710500D01*
X56090286Y-97710500D01*
X56090287Y-97710500D01*
X56300243Y-97677246D01*
X56502412Y-97611557D01*
X56691816Y-97515051D01*
X56737307Y-97482000D01*
X56863786Y-97390109D01*
X56863788Y-97390106D01*
X56863792Y-97390104D01*
X57014104Y-97239792D01*
X57014106Y-97239788D01*
X57014109Y-97239786D01*
X57088754Y-97137044D01*
X57139051Y-97067816D01*
X57235557Y-96878412D01*
X57301246Y-96676243D01*
X57334500Y-96466287D01*
X57334500Y-96253713D01*
X57301246Y-96043757D01*
X57235557Y-95841588D01*
X57139051Y-95652184D01*
X57139049Y-95652181D01*
X57139048Y-95652179D01*
X57014109Y-95480213D01*
X56863786Y-95329890D01*
X56691820Y-95204951D01*
X56502414Y-95108444D01*
X56502413Y-95108443D01*
X56502412Y-95108443D01*
X56300243Y-95042754D01*
X56300241Y-95042753D01*
X56300240Y-95042753D01*
X56138957Y-95017208D01*
X56090287Y-95009500D01*
X55877713Y-95009500D01*
X55829042Y-95017208D01*
X55667760Y-95042753D01*
X55465585Y-95108444D01*
X55276179Y-95204951D01*
X55104213Y-95329890D01*
X54953890Y-95480213D01*
X54828951Y-95652179D01*
X54732444Y-95841585D01*
X54666753Y-96043760D01*
X54633500Y-96253713D01*
X52498884Y-96253713D01*
X52501100Y-78999081D01*
X94929500Y-78999081D01*
X94929500Y-78999082D01*
X94929500Y-97040918D01*
X94959082Y-97070500D01*
X97000918Y-97070500D01*
X97030500Y-97040918D01*
X97030500Y-87508682D01*
X100246000Y-87508682D01*
X100246000Y-87713317D01*
X100278009Y-87915417D01*
X100341244Y-88110031D01*
X100434141Y-88292350D01*
X100434147Y-88292359D01*
X100466523Y-88336921D01*
X100466524Y-88336922D01*
X101146000Y-87657446D01*
X101146000Y-87663661D01*
X101173259Y-87765394D01*
X101225920Y-87856606D01*
X101300394Y-87931080D01*
X101391606Y-87983741D01*
X101493339Y-88011000D01*
X101499553Y-88011000D01*
X100820076Y-88690474D01*
X100864650Y-88722859D01*
X101046968Y-88815755D01*
X101241582Y-88878990D01*
X101443683Y-88911000D01*
X101648317Y-88911000D01*
X101850417Y-88878990D01*
X102045031Y-88815755D01*
X102227349Y-88722859D01*
X102271921Y-88690474D01*
X101592447Y-88011000D01*
X101598661Y-88011000D01*
X101700394Y-87983741D01*
X101791606Y-87931080D01*
X101866080Y-87856606D01*
X101918741Y-87765394D01*
X101946000Y-87663661D01*
X101946000Y-87657448D01*
X102625474Y-88336922D01*
X102625474Y-88336921D01*
X102657859Y-88292349D01*
X102750755Y-88110031D01*
X102813990Y-87915417D01*
X102843875Y-87726731D01*
X102873804Y-87663596D01*
X102933116Y-87626665D01*
X103002978Y-87627663D01*
X103061211Y-87666273D01*
X103087965Y-87721937D01*
X103123947Y-87902829D01*
X103123950Y-87902839D01*
X103199364Y-88084907D01*
X103199371Y-88084920D01*
X103308860Y-88248781D01*
X103308863Y-88248785D01*
X103448214Y-88388136D01*
X103448218Y-88388139D01*
X103612079Y-88497628D01*
X103612092Y-88497635D01*
X103794160Y-88573049D01*
X103794165Y-88573051D01*
X103794169Y-88573051D01*
X103794170Y-88573052D01*
X103987456Y-88611500D01*
X103987459Y-88611500D01*
X104184543Y-88611500D01*
X104314582Y-88585632D01*
X104377835Y-88573051D01*
X104559914Y-88497632D01*
X104723782Y-88388139D01*
X104863139Y-88248782D01*
X104972632Y-88084914D01*
X105048051Y-87902835D01*
X105083081Y-87726731D01*
X105086500Y-87709543D01*
X105086500Y-87512456D01*
X105048052Y-87319170D01*
X105048051Y-87319169D01*
X105048051Y-87319165D01*
X105036352Y-87290920D01*
X104972635Y-87137092D01*
X104972628Y-87137079D01*
X104863139Y-86973218D01*
X104863136Y-86973214D01*
X104723785Y-86833863D01*
X104723781Y-86833860D01*
X104559920Y-86724371D01*
X104559907Y-86724364D01*
X104377839Y-86648950D01*
X104377829Y-86648947D01*
X104184543Y-86610500D01*
X104184541Y-86610500D01*
X103987459Y-86610500D01*
X103987457Y-86610500D01*
X103794170Y-86648947D01*
X103794160Y-86648950D01*
X103612092Y-86724364D01*
X103612079Y-86724371D01*
X103448218Y-86833860D01*
X103448214Y-86833863D01*
X103308863Y-86973214D01*
X103308860Y-86973218D01*
X103199371Y-87137079D01*
X103199364Y-87137092D01*
X103123950Y-87319160D01*
X103123947Y-87319170D01*
X103087965Y-87500062D01*
X103055580Y-87561973D01*
X102994864Y-87596547D01*
X102925094Y-87592806D01*
X102868423Y-87551940D01*
X102843875Y-87495268D01*
X102813990Y-87306582D01*
X102750755Y-87111968D01*
X102657859Y-86929650D01*
X102625474Y-86885077D01*
X102625474Y-86885076D01*
X101946000Y-87564551D01*
X101946000Y-87558339D01*
X101918741Y-87456606D01*
X101866080Y-87365394D01*
X101791606Y-87290920D01*
X101700394Y-87238259D01*
X101598661Y-87211000D01*
X101592446Y-87211000D01*
X102271922Y-86531524D01*
X102271921Y-86531523D01*
X102227359Y-86499147D01*
X102227350Y-86499141D01*
X102045031Y-86406244D01*
X101850417Y-86343009D01*
X101648317Y-86311000D01*
X101443683Y-86311000D01*
X101241582Y-86343009D01*
X101046968Y-86406244D01*
X100864644Y-86499143D01*
X100820077Y-86531523D01*
X100820077Y-86531524D01*
X101499554Y-87211000D01*
X101493339Y-87211000D01*
X101391606Y-87238259D01*
X101300394Y-87290920D01*
X101225920Y-87365394D01*
X101173259Y-87456606D01*
X101146000Y-87558339D01*
X101146000Y-87564553D01*
X100466524Y-86885077D01*
X100466523Y-86885077D01*
X100434143Y-86929644D01*
X100341244Y-87111968D01*
X100278009Y-87306582D01*
X100246000Y-87508682D01*
X97030500Y-87508682D01*
X97030500Y-78999082D01*
X97000918Y-78969500D01*
X95000918Y-78969500D01*
X94959082Y-78969500D01*
X94959081Y-78969500D01*
X94929500Y-78999081D01*
X52501100Y-78999081D01*
X52501343Y-77106747D01*
X99494000Y-77106747D01*
X99494000Y-79146252D01*
X99505631Y-79204729D01*
X99505632Y-79204730D01*
X99549947Y-79271052D01*
X99616269Y-79315367D01*
X99616270Y-79315368D01*
X99674747Y-79326999D01*
X99674750Y-79327000D01*
X99674752Y-79327000D01*
X101714250Y-79327000D01*
X101714251Y-79326999D01*
X101729068Y-79324052D01*
X101772729Y-79315368D01*
X101772729Y-79315367D01*
X101772731Y-79315367D01*
X101839052Y-79271052D01*
X101883367Y-79204731D01*
X101883367Y-79204729D01*
X101883368Y-79204729D01*
X101894999Y-79146252D01*
X101895000Y-79146250D01*
X101895000Y-78658409D01*
X101914685Y-78591370D01*
X101967489Y-78545615D01*
X102036647Y-78535671D01*
X102100203Y-78564696D01*
X102129484Y-78602113D01*
X102207740Y-78755699D01*
X102318810Y-78908573D01*
X102452427Y-79042190D01*
X102605301Y-79153260D01*
X102680183Y-79191414D01*
X102773663Y-79239045D01*
X102773665Y-79239045D01*
X102773668Y-79239047D01*
X102869997Y-79270346D01*
X102953381Y-79297440D01*
X103140014Y-79327000D01*
X103140019Y-79327000D01*
X103328986Y-79327000D01*
X103515618Y-79297440D01*
X103695332Y-79239047D01*
X103863699Y-79153260D01*
X104016573Y-79042190D01*
X104150190Y-78908573D01*
X104230691Y-78797772D01*
X104286021Y-78755107D01*
X104355634Y-78749128D01*
X104417429Y-78781734D01*
X104441493Y-78814363D01*
X104491583Y-78912669D01*
X104491584Y-78912670D01*
X104551838Y-78995604D01*
X104551840Y-78995605D01*
X105161976Y-78385468D01*
X105185184Y-78441496D01*
X105257961Y-78550413D01*
X105350587Y-78643039D01*
X105459504Y-78715816D01*
X105515530Y-78739022D01*
X104905393Y-79349158D01*
X104988328Y-79409414D01*
X105198697Y-79516602D01*
X105423252Y-79589565D01*
X105423251Y-79589565D01*
X105656448Y-79626500D01*
X105892552Y-79626500D01*
X106125747Y-79589565D01*
X106350302Y-79516602D01*
X106560663Y-79409418D01*
X106560669Y-79409414D01*
X106643604Y-79349158D01*
X106643605Y-79349158D01*
X106033469Y-78739022D01*
X106089496Y-78715816D01*
X106198413Y-78643039D01*
X106291039Y-78550413D01*
X106363816Y-78441496D01*
X106387022Y-78385469D01*
X106997158Y-78995605D01*
X106997158Y-78995604D01*
X107057414Y-78912669D01*
X107057418Y-78912663D01*
X107164602Y-78702302D01*
X107237565Y-78477747D01*
X107274500Y-78244552D01*
X107274500Y-78008447D01*
X107237565Y-77775252D01*
X107164602Y-77550697D01*
X107057414Y-77340328D01*
X106997158Y-77257394D01*
X106997158Y-77257393D01*
X106387022Y-77867529D01*
X106363816Y-77811504D01*
X106291039Y-77702587D01*
X106198413Y-77609961D01*
X106089496Y-77537184D01*
X106033469Y-77513977D01*
X106643605Y-76903840D01*
X106643604Y-76903838D01*
X106560674Y-76843587D01*
X106350302Y-76736397D01*
X106125747Y-76663434D01*
X106125748Y-76663434D01*
X105892552Y-76626500D01*
X105656448Y-76626500D01*
X105423252Y-76663434D01*
X105198697Y-76736397D01*
X104988330Y-76843584D01*
X104905394Y-76903840D01*
X105515531Y-77513977D01*
X105459504Y-77537184D01*
X105350587Y-77609961D01*
X105257961Y-77702587D01*
X105185184Y-77811504D01*
X105161977Y-77867531D01*
X104551840Y-77257394D01*
X104491583Y-77340333D01*
X104441493Y-77438638D01*
X104393518Y-77489433D01*
X104325697Y-77506228D01*
X104259563Y-77483690D01*
X104230691Y-77455227D01*
X104218638Y-77438638D01*
X104150190Y-77344427D01*
X104016573Y-77210810D01*
X103863699Y-77099740D01*
X103762681Y-77048269D01*
X103695336Y-77013954D01*
X103515618Y-76955559D01*
X103328986Y-76926000D01*
X103328981Y-76926000D01*
X103140019Y-76926000D01*
X103140014Y-76926000D01*
X102953381Y-76955559D01*
X102773663Y-77013954D01*
X102605300Y-77099740D01*
X102518079Y-77163110D01*
X102452427Y-77210810D01*
X102452425Y-77210812D01*
X102452424Y-77210812D01*
X102318812Y-77344424D01*
X102318812Y-77344425D01*
X102318810Y-77344427D01*
X102318808Y-77344430D01*
X102207740Y-77497300D01*
X102129485Y-77650885D01*
X102081510Y-77701681D01*
X102013689Y-77718476D01*
X101947554Y-77695939D01*
X101904103Y-77641223D01*
X101895000Y-77594590D01*
X101895000Y-77106749D01*
X101894999Y-77106747D01*
X101883368Y-77048270D01*
X101883367Y-77048269D01*
X101839052Y-76981947D01*
X101772730Y-76937632D01*
X101772729Y-76937631D01*
X101714252Y-76926000D01*
X101714248Y-76926000D01*
X99674752Y-76926000D01*
X99674747Y-76926000D01*
X99616270Y-76937631D01*
X99616269Y-76937632D01*
X99549947Y-76981947D01*
X99505632Y-77048269D01*
X99505631Y-77048270D01*
X99494000Y-77106747D01*
X52501343Y-77106747D01*
X52502330Y-69421153D01*
X147564500Y-69421153D01*
X147564500Y-69578846D01*
X147595261Y-69733489D01*
X147595264Y-69733501D01*
X147655602Y-69879172D01*
X147655609Y-69879185D01*
X147743210Y-70010288D01*
X147743213Y-70010292D01*
X147854707Y-70121786D01*
X147854711Y-70121789D01*
X147985814Y-70209390D01*
X147985827Y-70209397D01*
X148131498Y-70269735D01*
X148131503Y-70269737D01*
X148286153Y-70300499D01*
X148286156Y-70300500D01*
X148286158Y-70300500D01*
X148443844Y-70300500D01*
X148443845Y-70300499D01*
X148598497Y-70269737D01*
X148744179Y-70209394D01*
X148875289Y-70121789D01*
X148986789Y-70010289D01*
X149074394Y-69879179D01*
X149134737Y-69733497D01*
X149165500Y-69578842D01*
X149165500Y-69461153D01*
X149564500Y-69461153D01*
X149564500Y-69618846D01*
X149595261Y-69773489D01*
X149595264Y-69773501D01*
X149655602Y-69919172D01*
X149655609Y-69919185D01*
X149743210Y-70050288D01*
X149743213Y-70050292D01*
X149854707Y-70161786D01*
X149854711Y-70161789D01*
X149985814Y-70249390D01*
X149985827Y-70249397D01*
X150131498Y-70309735D01*
X150131503Y-70309737D01*
X150286153Y-70340499D01*
X150286156Y-70340500D01*
X150286158Y-70340500D01*
X150443844Y-70340500D01*
X150443845Y-70340499D01*
X150598497Y-70309737D01*
X150744179Y-70249394D01*
X150875289Y-70161789D01*
X150986789Y-70050289D01*
X151074394Y-69919179D01*
X151134737Y-69773497D01*
X151165500Y-69618842D01*
X151165500Y-69461158D01*
X151165500Y-69461156D01*
X151165500Y-69461155D01*
X151165499Y-69461153D01*
X151564500Y-69461153D01*
X151564500Y-69618846D01*
X151595261Y-69773489D01*
X151595264Y-69773501D01*
X151655602Y-69919172D01*
X151655609Y-69919185D01*
X151743210Y-70050288D01*
X151743213Y-70050292D01*
X151854707Y-70161786D01*
X151854711Y-70161789D01*
X151985814Y-70249390D01*
X151985827Y-70249397D01*
X152131498Y-70309735D01*
X152131503Y-70309737D01*
X152286153Y-70340499D01*
X152286156Y-70340500D01*
X152286158Y-70340500D01*
X152443844Y-70340500D01*
X152443845Y-70340499D01*
X152598497Y-70309737D01*
X152744179Y-70249394D01*
X152875289Y-70161789D01*
X152986789Y-70050289D01*
X153074394Y-69919179D01*
X153134737Y-69773497D01*
X153165500Y-69618842D01*
X153165500Y-69461158D01*
X153165500Y-69461156D01*
X153165500Y-69461155D01*
X153165499Y-69461153D01*
X153564500Y-69461153D01*
X153564500Y-69618846D01*
X153595261Y-69773489D01*
X153595264Y-69773501D01*
X153655602Y-69919172D01*
X153655609Y-69919185D01*
X153743210Y-70050288D01*
X153743213Y-70050292D01*
X153854707Y-70161786D01*
X153854711Y-70161789D01*
X153985814Y-70249390D01*
X153985827Y-70249397D01*
X154131498Y-70309735D01*
X154131503Y-70309737D01*
X154286153Y-70340499D01*
X154286156Y-70340500D01*
X154286158Y-70340500D01*
X154443844Y-70340500D01*
X154443845Y-70340499D01*
X154598497Y-70309737D01*
X154744179Y-70249394D01*
X154875289Y-70161789D01*
X154986789Y-70050289D01*
X155074394Y-69919179D01*
X155134737Y-69773497D01*
X155165500Y-69618842D01*
X155165500Y-69461158D01*
X155165500Y-69461156D01*
X155165500Y-69461155D01*
X155165499Y-69461153D01*
X155564500Y-69461153D01*
X155564500Y-69618846D01*
X155595261Y-69773489D01*
X155595264Y-69773501D01*
X155655602Y-69919172D01*
X155655609Y-69919185D01*
X155743210Y-70050288D01*
X155743213Y-70050292D01*
X155854707Y-70161786D01*
X155854711Y-70161789D01*
X155985814Y-70249390D01*
X155985827Y-70249397D01*
X156131498Y-70309735D01*
X156131503Y-70309737D01*
X156286153Y-70340499D01*
X156286156Y-70340500D01*
X156286158Y-70340500D01*
X156443844Y-70340500D01*
X156443845Y-70340499D01*
X156598497Y-70309737D01*
X156744179Y-70249394D01*
X156875289Y-70161789D01*
X156986789Y-70050289D01*
X157074394Y-69919179D01*
X157134737Y-69773497D01*
X157165500Y-69618842D01*
X157165500Y-69461158D01*
X157165500Y-69461156D01*
X157165500Y-69461155D01*
X157165499Y-69461153D01*
X157564500Y-69461153D01*
X157564500Y-69618846D01*
X157595261Y-69773489D01*
X157595264Y-69773501D01*
X157655602Y-69919172D01*
X157655609Y-69919185D01*
X157743210Y-70050288D01*
X157743213Y-70050292D01*
X157854707Y-70161786D01*
X157854711Y-70161789D01*
X157985814Y-70249390D01*
X157985827Y-70249397D01*
X158131498Y-70309735D01*
X158131503Y-70309737D01*
X158286153Y-70340499D01*
X158286156Y-70340500D01*
X158286158Y-70340500D01*
X158443844Y-70340500D01*
X158443845Y-70340499D01*
X158598497Y-70309737D01*
X158744179Y-70249394D01*
X158875289Y-70161789D01*
X158986789Y-70050289D01*
X159074394Y-69919179D01*
X159134737Y-69773497D01*
X159165500Y-69618842D01*
X159165500Y-69461158D01*
X159165499Y-69461155D01*
X159161144Y-69439259D01*
X159161144Y-69439257D01*
X159157543Y-69421153D01*
X159564500Y-69421153D01*
X159564500Y-69578846D01*
X159595261Y-69733489D01*
X159595264Y-69733501D01*
X159655602Y-69879172D01*
X159655609Y-69879185D01*
X159743210Y-70010288D01*
X159743213Y-70010292D01*
X159854707Y-70121786D01*
X159854711Y-70121789D01*
X159985814Y-70209390D01*
X159985827Y-70209397D01*
X160131498Y-70269735D01*
X160131503Y-70269737D01*
X160286153Y-70300499D01*
X160286156Y-70300500D01*
X160286158Y-70300500D01*
X160443844Y-70300500D01*
X160443845Y-70300499D01*
X160598497Y-70269737D01*
X160744179Y-70209394D01*
X160875289Y-70121789D01*
X160986789Y-70010289D01*
X161074394Y-69879179D01*
X161134737Y-69733497D01*
X161165500Y-69578842D01*
X161165500Y-69421158D01*
X161165500Y-69421155D01*
X161165499Y-69421153D01*
X161564500Y-69421153D01*
X161564500Y-69578846D01*
X161595261Y-69733489D01*
X161595264Y-69733501D01*
X161655602Y-69879172D01*
X161655609Y-69879185D01*
X161743210Y-70010288D01*
X161743213Y-70010292D01*
X161854707Y-70121786D01*
X161854711Y-70121789D01*
X161985814Y-70209390D01*
X161985827Y-70209397D01*
X162131498Y-70269735D01*
X162131503Y-70269737D01*
X162286153Y-70300499D01*
X162286156Y-70300500D01*
X162286158Y-70300500D01*
X162443844Y-70300500D01*
X162443845Y-70300499D01*
X162598497Y-70269737D01*
X162744179Y-70209394D01*
X162875289Y-70121789D01*
X162986789Y-70010289D01*
X163074394Y-69879179D01*
X163134737Y-69733497D01*
X163165500Y-69578842D01*
X163165500Y-69461153D01*
X163564500Y-69461153D01*
X163564500Y-69618846D01*
X163595261Y-69773489D01*
X163595264Y-69773501D01*
X163655602Y-69919172D01*
X163655609Y-69919185D01*
X163743210Y-70050288D01*
X163743213Y-70050292D01*
X163854707Y-70161786D01*
X163854711Y-70161789D01*
X163985814Y-70249390D01*
X163985827Y-70249397D01*
X164131498Y-70309735D01*
X164131503Y-70309737D01*
X164286153Y-70340499D01*
X164286156Y-70340500D01*
X164286158Y-70340500D01*
X164443844Y-70340500D01*
X164443845Y-70340499D01*
X164598497Y-70309737D01*
X164744179Y-70249394D01*
X164875289Y-70161789D01*
X164986789Y-70050289D01*
X165074394Y-69919179D01*
X165134737Y-69773497D01*
X165165500Y-69618842D01*
X165165500Y-69461158D01*
X165165499Y-69461155D01*
X165161144Y-69439259D01*
X165161144Y-69439257D01*
X165157543Y-69421153D01*
X165564500Y-69421153D01*
X165564500Y-69578846D01*
X165595261Y-69733489D01*
X165595264Y-69733501D01*
X165655602Y-69879172D01*
X165655609Y-69879185D01*
X165743210Y-70010288D01*
X165743213Y-70010292D01*
X165854707Y-70121786D01*
X165854711Y-70121789D01*
X165985814Y-70209390D01*
X165985827Y-70209397D01*
X166131498Y-70269735D01*
X166131503Y-70269737D01*
X166286153Y-70300499D01*
X166286156Y-70300500D01*
X166286158Y-70300500D01*
X166443844Y-70300500D01*
X166443845Y-70300499D01*
X166598497Y-70269737D01*
X166744179Y-70209394D01*
X166875289Y-70121789D01*
X166986789Y-70010289D01*
X167074394Y-69879179D01*
X167134737Y-69733497D01*
X167165500Y-69578842D01*
X167165500Y-69421158D01*
X167165500Y-69421155D01*
X167165499Y-69421153D01*
X167142695Y-69306510D01*
X167134737Y-69266503D01*
X167090965Y-69160827D01*
X167074397Y-69120827D01*
X167074390Y-69120814D01*
X166986789Y-68989711D01*
X166986786Y-68989707D01*
X166875292Y-68878213D01*
X166875288Y-68878210D01*
X166744185Y-68790609D01*
X166744172Y-68790602D01*
X166598501Y-68730264D01*
X166598489Y-68730261D01*
X166443845Y-68699500D01*
X166443842Y-68699500D01*
X166286158Y-68699500D01*
X166286155Y-68699500D01*
X166131510Y-68730261D01*
X166131498Y-68730264D01*
X165985827Y-68790602D01*
X165985814Y-68790609D01*
X165854711Y-68878210D01*
X165854707Y-68878213D01*
X165743213Y-68989707D01*
X165743210Y-68989711D01*
X165655609Y-69120814D01*
X165655602Y-69120827D01*
X165595264Y-69266498D01*
X165595261Y-69266510D01*
X165564500Y-69421153D01*
X165157543Y-69421153D01*
X165134738Y-69306510D01*
X165134737Y-69306503D01*
X165134735Y-69306498D01*
X165074397Y-69160827D01*
X165074390Y-69160814D01*
X164986789Y-69029711D01*
X164986786Y-69029707D01*
X164875292Y-68918213D01*
X164875288Y-68918210D01*
X164744185Y-68830609D01*
X164744172Y-68830602D01*
X164598501Y-68770264D01*
X164598489Y-68770261D01*
X164443845Y-68739500D01*
X164443842Y-68739500D01*
X164286158Y-68739500D01*
X164286155Y-68739500D01*
X164131510Y-68770261D01*
X164131498Y-68770264D01*
X163985827Y-68830602D01*
X163985814Y-68830609D01*
X163854711Y-68918210D01*
X163854707Y-68918213D01*
X163743213Y-69029707D01*
X163743210Y-69029711D01*
X163655609Y-69160814D01*
X163655602Y-69160827D01*
X163595264Y-69306498D01*
X163595261Y-69306510D01*
X163564500Y-69461153D01*
X163165500Y-69461153D01*
X163165500Y-69421158D01*
X163165500Y-69421155D01*
X163165499Y-69421153D01*
X163142695Y-69306510D01*
X163134737Y-69266503D01*
X163090965Y-69160827D01*
X163074397Y-69120827D01*
X163074390Y-69120814D01*
X162986789Y-68989711D01*
X162986786Y-68989707D01*
X162875292Y-68878213D01*
X162875288Y-68878210D01*
X162744185Y-68790609D01*
X162744172Y-68790602D01*
X162598501Y-68730264D01*
X162598489Y-68730261D01*
X162443845Y-68699500D01*
X162443842Y-68699500D01*
X162286158Y-68699500D01*
X162286155Y-68699500D01*
X162131510Y-68730261D01*
X162131498Y-68730264D01*
X161985827Y-68790602D01*
X161985814Y-68790609D01*
X161854711Y-68878210D01*
X161854707Y-68878213D01*
X161743213Y-68989707D01*
X161743210Y-68989711D01*
X161655609Y-69120814D01*
X161655602Y-69120827D01*
X161595264Y-69266498D01*
X161595261Y-69266510D01*
X161564500Y-69421153D01*
X161165499Y-69421153D01*
X161142695Y-69306510D01*
X161134737Y-69266503D01*
X161090965Y-69160827D01*
X161074397Y-69120827D01*
X161074390Y-69120814D01*
X160986789Y-68989711D01*
X160986786Y-68989707D01*
X160875292Y-68878213D01*
X160875288Y-68878210D01*
X160744185Y-68790609D01*
X160744172Y-68790602D01*
X160598501Y-68730264D01*
X160598489Y-68730261D01*
X160443845Y-68699500D01*
X160443842Y-68699500D01*
X160286158Y-68699500D01*
X160286155Y-68699500D01*
X160131510Y-68730261D01*
X160131498Y-68730264D01*
X159985827Y-68790602D01*
X159985814Y-68790609D01*
X159854711Y-68878210D01*
X159854707Y-68878213D01*
X159743213Y-68989707D01*
X159743210Y-68989711D01*
X159655609Y-69120814D01*
X159655602Y-69120827D01*
X159595264Y-69266498D01*
X159595261Y-69266510D01*
X159564500Y-69421153D01*
X159157543Y-69421153D01*
X159134738Y-69306510D01*
X159134737Y-69306503D01*
X159134735Y-69306498D01*
X159074397Y-69160827D01*
X159074390Y-69160814D01*
X158986789Y-69029711D01*
X158986786Y-69029707D01*
X158875292Y-68918213D01*
X158875288Y-68918210D01*
X158744185Y-68830609D01*
X158744172Y-68830602D01*
X158598501Y-68770264D01*
X158598489Y-68770261D01*
X158443845Y-68739500D01*
X158443842Y-68739500D01*
X158286158Y-68739500D01*
X158286155Y-68739500D01*
X158131510Y-68770261D01*
X158131498Y-68770264D01*
X157985827Y-68830602D01*
X157985814Y-68830609D01*
X157854711Y-68918210D01*
X157854707Y-68918213D01*
X157743213Y-69029707D01*
X157743210Y-69029711D01*
X157655609Y-69160814D01*
X157655602Y-69160827D01*
X157595264Y-69306498D01*
X157595261Y-69306510D01*
X157564500Y-69461153D01*
X157165499Y-69461153D01*
X157134738Y-69306510D01*
X157134737Y-69306503D01*
X157134735Y-69306498D01*
X157074397Y-69160827D01*
X157074390Y-69160814D01*
X156986789Y-69029711D01*
X156986786Y-69029707D01*
X156875292Y-68918213D01*
X156875288Y-68918210D01*
X156744185Y-68830609D01*
X156744172Y-68830602D01*
X156598501Y-68770264D01*
X156598489Y-68770261D01*
X156443845Y-68739500D01*
X156443842Y-68739500D01*
X156286158Y-68739500D01*
X156286155Y-68739500D01*
X156131510Y-68770261D01*
X156131498Y-68770264D01*
X155985827Y-68830602D01*
X155985814Y-68830609D01*
X155854711Y-68918210D01*
X155854707Y-68918213D01*
X155743213Y-69029707D01*
X155743210Y-69029711D01*
X155655609Y-69160814D01*
X155655602Y-69160827D01*
X155595264Y-69306498D01*
X155595261Y-69306510D01*
X155564500Y-69461153D01*
X155165499Y-69461153D01*
X155134738Y-69306510D01*
X155134737Y-69306503D01*
X155134735Y-69306498D01*
X155074397Y-69160827D01*
X155074390Y-69160814D01*
X154986789Y-69029711D01*
X154986786Y-69029707D01*
X154875292Y-68918213D01*
X154875288Y-68918210D01*
X154744185Y-68830609D01*
X154744172Y-68830602D01*
X154598501Y-68770264D01*
X154598489Y-68770261D01*
X154443845Y-68739500D01*
X154443842Y-68739500D01*
X154286158Y-68739500D01*
X154286155Y-68739500D01*
X154131510Y-68770261D01*
X154131498Y-68770264D01*
X153985827Y-68830602D01*
X153985814Y-68830609D01*
X153854711Y-68918210D01*
X153854707Y-68918213D01*
X153743213Y-69029707D01*
X153743210Y-69029711D01*
X153655609Y-69160814D01*
X153655602Y-69160827D01*
X153595264Y-69306498D01*
X153595261Y-69306510D01*
X153564500Y-69461153D01*
X153165499Y-69461153D01*
X153134738Y-69306510D01*
X153134737Y-69306503D01*
X153134735Y-69306498D01*
X153074397Y-69160827D01*
X153074390Y-69160814D01*
X152986789Y-69029711D01*
X152986786Y-69029707D01*
X152875292Y-68918213D01*
X152875288Y-68918210D01*
X152744185Y-68830609D01*
X152744172Y-68830602D01*
X152598501Y-68770264D01*
X152598489Y-68770261D01*
X152443845Y-68739500D01*
X152443842Y-68739500D01*
X152286158Y-68739500D01*
X152286155Y-68739500D01*
X152131510Y-68770261D01*
X152131498Y-68770264D01*
X151985827Y-68830602D01*
X151985814Y-68830609D01*
X151854711Y-68918210D01*
X151854707Y-68918213D01*
X151743213Y-69029707D01*
X151743210Y-69029711D01*
X151655609Y-69160814D01*
X151655602Y-69160827D01*
X151595264Y-69306498D01*
X151595261Y-69306510D01*
X151564500Y-69461153D01*
X151165499Y-69461153D01*
X151134738Y-69306510D01*
X151134737Y-69306503D01*
X151134735Y-69306498D01*
X151074397Y-69160827D01*
X151074390Y-69160814D01*
X150986789Y-69029711D01*
X150986786Y-69029707D01*
X150875292Y-68918213D01*
X150875288Y-68918210D01*
X150744185Y-68830609D01*
X150744172Y-68830602D01*
X150598501Y-68770264D01*
X150598489Y-68770261D01*
X150443845Y-68739500D01*
X150443842Y-68739500D01*
X150286158Y-68739500D01*
X150286155Y-68739500D01*
X150131510Y-68770261D01*
X150131498Y-68770264D01*
X149985827Y-68830602D01*
X149985814Y-68830609D01*
X149854711Y-68918210D01*
X149854707Y-68918213D01*
X149743213Y-69029707D01*
X149743210Y-69029711D01*
X149655609Y-69160814D01*
X149655602Y-69160827D01*
X149595264Y-69306498D01*
X149595261Y-69306510D01*
X149564500Y-69461153D01*
X149165500Y-69461153D01*
X149165500Y-69421158D01*
X149165500Y-69421155D01*
X149165499Y-69421153D01*
X149142695Y-69306510D01*
X149134737Y-69266503D01*
X149090965Y-69160827D01*
X149074397Y-69120827D01*
X149074390Y-69120814D01*
X148986789Y-68989711D01*
X148986786Y-68989707D01*
X148875292Y-68878213D01*
X148875288Y-68878210D01*
X148744185Y-68790609D01*
X148744172Y-68790602D01*
X148598501Y-68730264D01*
X148598489Y-68730261D01*
X148443845Y-68699500D01*
X148443842Y-68699500D01*
X148286158Y-68699500D01*
X148286155Y-68699500D01*
X148131510Y-68730261D01*
X148131498Y-68730264D01*
X147985827Y-68790602D01*
X147985814Y-68790609D01*
X147854711Y-68878210D01*
X147854707Y-68878213D01*
X147743213Y-68989707D01*
X147743210Y-68989711D01*
X147655609Y-69120814D01*
X147655602Y-69120827D01*
X147595264Y-69266498D01*
X147595261Y-69266510D01*
X147564500Y-69421153D01*
X52502330Y-69421153D01*
X52502833Y-65501153D01*
X137999500Y-65501153D01*
X137999500Y-65658846D01*
X138030261Y-65813489D01*
X138030264Y-65813501D01*
X138090602Y-65959172D01*
X138090609Y-65959185D01*
X138178210Y-66090288D01*
X138178213Y-66090292D01*
X138289707Y-66201786D01*
X138289711Y-66201789D01*
X138420814Y-66289390D01*
X138420827Y-66289397D01*
X138566498Y-66349735D01*
X138566503Y-66349737D01*
X138721153Y-66380499D01*
X138721156Y-66380500D01*
X138721158Y-66380500D01*
X138878844Y-66380500D01*
X138878845Y-66380499D01*
X139033497Y-66349737D01*
X139179179Y-66289394D01*
X139310289Y-66201789D01*
X139421789Y-66090289D01*
X139509394Y-65959179D01*
X139569737Y-65813497D01*
X139600500Y-65658842D01*
X139600500Y-65501158D01*
X139600500Y-65501155D01*
X139600499Y-65501153D01*
X139569738Y-65346510D01*
X139569737Y-65346503D01*
X139569735Y-65346498D01*
X139509397Y-65200827D01*
X139509390Y-65200814D01*
X139421789Y-65069711D01*
X139421786Y-65069707D01*
X139310292Y-64958213D01*
X139310288Y-64958210D01*
X139179185Y-64870609D01*
X139179172Y-64870602D01*
X139033501Y-64810264D01*
X139033489Y-64810261D01*
X138878845Y-64779500D01*
X138878842Y-64779500D01*
X138721158Y-64779500D01*
X138721155Y-64779500D01*
X138566510Y-64810261D01*
X138566498Y-64810264D01*
X138420827Y-64870602D01*
X138420814Y-64870609D01*
X138289711Y-64958210D01*
X138289707Y-64958213D01*
X138178213Y-65069707D01*
X138178210Y-65069711D01*
X138090609Y-65200814D01*
X138090602Y-65200827D01*
X138030264Y-65346498D01*
X138030261Y-65346510D01*
X137999500Y-65501153D01*
X52502833Y-65501153D01*
X52503090Y-63501153D01*
X137999500Y-63501153D01*
X137999500Y-63658846D01*
X138030261Y-63813489D01*
X138030264Y-63813501D01*
X138090602Y-63959172D01*
X138090609Y-63959185D01*
X138178210Y-64090288D01*
X138178213Y-64090292D01*
X138289707Y-64201786D01*
X138289711Y-64201789D01*
X138420814Y-64289390D01*
X138420827Y-64289397D01*
X138566498Y-64349735D01*
X138566503Y-64349737D01*
X138721153Y-64380499D01*
X138721156Y-64380500D01*
X138721158Y-64380500D01*
X138878844Y-64380500D01*
X138878845Y-64380499D01*
X139033497Y-64349737D01*
X139179179Y-64289394D01*
X139310289Y-64201789D01*
X139421789Y-64090289D01*
X139509394Y-63959179D01*
X139569737Y-63813497D01*
X139600500Y-63658842D01*
X139600500Y-63501158D01*
X139600500Y-63501155D01*
X139600499Y-63501153D01*
X139569738Y-63346510D01*
X139569737Y-63346503D01*
X139569735Y-63346498D01*
X139509397Y-63200827D01*
X139509390Y-63200814D01*
X139421789Y-63069711D01*
X139421786Y-63069707D01*
X139310292Y-62958213D01*
X139310288Y-62958210D01*
X139179185Y-62870609D01*
X139179172Y-62870602D01*
X139033501Y-62810264D01*
X139033489Y-62810261D01*
X138878845Y-62779500D01*
X138878842Y-62779500D01*
X138721158Y-62779500D01*
X138721155Y-62779500D01*
X138566510Y-62810261D01*
X138566498Y-62810264D01*
X138420827Y-62870602D01*
X138420814Y-62870609D01*
X138289711Y-62958210D01*
X138289707Y-62958213D01*
X138178213Y-63069707D01*
X138178210Y-63069711D01*
X138090609Y-63200814D01*
X138090602Y-63200827D01*
X138030264Y-63346498D01*
X138030261Y-63346510D01*
X137999500Y-63501153D01*
X52503090Y-63501153D01*
X52503347Y-61501153D01*
X137999500Y-61501153D01*
X137999500Y-61658846D01*
X138030261Y-61813489D01*
X138030264Y-61813501D01*
X138090602Y-61959172D01*
X138090609Y-61959185D01*
X138178210Y-62090288D01*
X138178213Y-62090292D01*
X138289707Y-62201786D01*
X138289711Y-62201789D01*
X138420814Y-62289390D01*
X138420827Y-62289397D01*
X138566498Y-62349735D01*
X138566503Y-62349737D01*
X138721153Y-62380499D01*
X138721156Y-62380500D01*
X138721158Y-62380500D01*
X138878844Y-62380500D01*
X138878845Y-62380499D01*
X139033497Y-62349737D01*
X139179179Y-62289394D01*
X139310289Y-62201789D01*
X139421789Y-62090289D01*
X139509394Y-61959179D01*
X139569737Y-61813497D01*
X139600500Y-61658842D01*
X139600500Y-61501158D01*
X139600500Y-61501155D01*
X139600499Y-61501153D01*
X139569738Y-61346510D01*
X139569737Y-61346503D01*
X139569735Y-61346498D01*
X139509397Y-61200827D01*
X139509390Y-61200814D01*
X139421789Y-61069711D01*
X139421786Y-61069707D01*
X139310292Y-60958213D01*
X139310288Y-60958210D01*
X139179185Y-60870609D01*
X139179172Y-60870602D01*
X139033501Y-60810264D01*
X139033489Y-60810261D01*
X138878845Y-60779500D01*
X138878842Y-60779500D01*
X138721158Y-60779500D01*
X138721155Y-60779500D01*
X138566510Y-60810261D01*
X138566498Y-60810264D01*
X138420827Y-60870602D01*
X138420814Y-60870609D01*
X138289711Y-60958210D01*
X138289707Y-60958213D01*
X138178213Y-61069707D01*
X138178210Y-61069711D01*
X138090609Y-61200814D01*
X138090602Y-61200827D01*
X138030264Y-61346498D01*
X138030261Y-61346510D01*
X137999500Y-61501153D01*
X52503347Y-61501153D01*
X52503604Y-59501153D01*
X137999500Y-59501153D01*
X137999500Y-59658846D01*
X138030261Y-59813489D01*
X138030264Y-59813501D01*
X138090602Y-59959172D01*
X138090609Y-59959185D01*
X138178210Y-60090288D01*
X138178213Y-60090292D01*
X138289707Y-60201786D01*
X138289711Y-60201789D01*
X138420814Y-60289390D01*
X138420827Y-60289397D01*
X138566498Y-60349735D01*
X138566503Y-60349737D01*
X138721153Y-60380499D01*
X138721156Y-60380500D01*
X138721158Y-60380500D01*
X138878844Y-60380500D01*
X138878845Y-60380499D01*
X139033497Y-60349737D01*
X139179179Y-60289394D01*
X139310289Y-60201789D01*
X139421789Y-60090289D01*
X139509394Y-59959179D01*
X139569737Y-59813497D01*
X139600500Y-59658842D01*
X139600500Y-59501158D01*
X139600500Y-59501155D01*
X139600499Y-59501153D01*
X139569738Y-59346510D01*
X139569737Y-59346503D01*
X139569735Y-59346498D01*
X139509397Y-59200827D01*
X139509390Y-59200814D01*
X139421789Y-59069711D01*
X139421786Y-59069707D01*
X139310292Y-58958213D01*
X139310288Y-58958210D01*
X139179185Y-58870609D01*
X139179172Y-58870602D01*
X139033501Y-58810264D01*
X139033489Y-58810261D01*
X138878845Y-58779500D01*
X138878842Y-58779500D01*
X138721158Y-58779500D01*
X138721155Y-58779500D01*
X138566510Y-58810261D01*
X138566498Y-58810264D01*
X138420827Y-58870602D01*
X138420814Y-58870609D01*
X138289711Y-58958210D01*
X138289707Y-58958213D01*
X138178213Y-59069707D01*
X138178210Y-59069711D01*
X138090609Y-59200814D01*
X138090602Y-59200827D01*
X138030264Y-59346498D01*
X138030261Y-59346510D01*
X137999500Y-59501153D01*
X52503604Y-59501153D01*
X52505099Y-47863713D01*
X54606500Y-47863713D01*
X54606500Y-48076287D01*
X54607019Y-48079562D01*
X54639753Y-48286239D01*
X54639753Y-48286241D01*
X54639754Y-48286243D01*
X54699385Y-48469769D01*
X54705444Y-48488414D01*
X54801951Y-48677820D01*
X54926890Y-48849786D01*
X55077213Y-49000109D01*
X55249179Y-49125048D01*
X55249181Y-49125049D01*
X55249184Y-49125051D01*
X55438588Y-49221557D01*
X55640757Y-49287246D01*
X55850713Y-49320500D01*
X55850714Y-49320500D01*
X56063286Y-49320500D01*
X56063287Y-49320500D01*
X56273243Y-49287246D01*
X56475412Y-49221557D01*
X56496763Y-49210678D01*
X58738000Y-49210678D01*
X58738000Y-49409321D01*
X58769075Y-49605520D01*
X58769075Y-49605523D01*
X58830457Y-49794437D01*
X58920641Y-49971432D01*
X58947730Y-50008715D01*
X59510504Y-49445941D01*
X59526619Y-49506081D01*
X59593498Y-49621920D01*
X59688080Y-49716502D01*
X59803919Y-49783381D01*
X59864057Y-49799494D01*
X59301283Y-50362268D01*
X59301283Y-50362269D01*
X59338567Y-50389358D01*
X59515562Y-50479542D01*
X59704477Y-50540924D01*
X59900679Y-50572000D01*
X60099321Y-50572000D01*
X60295520Y-50540924D01*
X60295523Y-50540924D01*
X60484437Y-50479542D01*
X60661425Y-50389362D01*
X60698716Y-50362268D01*
X60135942Y-49799494D01*
X60196081Y-49783381D01*
X60311920Y-49716502D01*
X60406502Y-49621920D01*
X60473381Y-49506081D01*
X60489495Y-49445942D01*
X61056105Y-50012552D01*
X61110148Y-50023905D01*
X61159905Y-50072956D01*
X61175500Y-50133159D01*
X61175500Y-54785562D01*
X61183926Y-54817007D01*
X61195979Y-54861990D01*
X61206851Y-54880820D01*
X61214130Y-54893428D01*
X61217935Y-54900017D01*
X61217936Y-54900021D01*
X61217937Y-54900021D01*
X61235540Y-54930511D01*
X64112540Y-57807511D01*
X64168489Y-57863460D01*
X64168491Y-57863461D01*
X64168495Y-57863464D01*
X64237004Y-57903017D01*
X64237011Y-57903021D01*
X64313438Y-57923500D01*
X64313440Y-57923500D01*
X69746560Y-57923500D01*
X69746562Y-57923500D01*
X69822989Y-57903021D01*
X69891511Y-57863460D01*
X69947460Y-57807511D01*
X70273818Y-57481153D01*
X137999500Y-57481153D01*
X137999500Y-57638846D01*
X138030261Y-57793489D01*
X138030264Y-57793501D01*
X138090602Y-57939172D01*
X138090609Y-57939185D01*
X138178210Y-58070288D01*
X138178213Y-58070292D01*
X138289707Y-58181786D01*
X138289711Y-58181789D01*
X138420814Y-58269390D01*
X138420827Y-58269397D01*
X138566498Y-58329735D01*
X138566503Y-58329737D01*
X138721153Y-58360499D01*
X138721156Y-58360500D01*
X138721158Y-58360500D01*
X138878844Y-58360500D01*
X138878845Y-58360499D01*
X139033497Y-58329737D01*
X139179179Y-58269394D01*
X139310289Y-58181789D01*
X139421789Y-58070289D01*
X139509394Y-57939179D01*
X139569737Y-57793497D01*
X139600500Y-57638842D01*
X139600500Y-57481158D01*
X139600500Y-57481155D01*
X139600499Y-57481153D01*
X139569738Y-57326510D01*
X139569737Y-57326503D01*
X139553035Y-57286181D01*
X139509397Y-57180827D01*
X139509390Y-57180814D01*
X139421789Y-57049711D01*
X139421786Y-57049707D01*
X139310292Y-56938213D01*
X139310288Y-56938210D01*
X139179185Y-56850609D01*
X139179172Y-56850602D01*
X139033501Y-56790264D01*
X139033489Y-56790261D01*
X138878845Y-56759500D01*
X138878842Y-56759500D01*
X138721158Y-56759500D01*
X138721155Y-56759500D01*
X138566510Y-56790261D01*
X138566498Y-56790264D01*
X138420827Y-56850602D01*
X138420814Y-56850609D01*
X138289711Y-56938210D01*
X138289707Y-56938213D01*
X138178213Y-57049707D01*
X138178210Y-57049711D01*
X138090609Y-57180814D01*
X138090602Y-57180827D01*
X138030264Y-57326498D01*
X138030261Y-57326510D01*
X137999500Y-57481153D01*
X70273818Y-57481153D01*
X72061129Y-55693840D01*
X72122450Y-55660357D01*
X72192141Y-55665341D01*
X72205104Y-55671039D01*
X72262521Y-55700295D01*
X72262523Y-55700295D01*
X72262526Y-55700297D01*
X72356065Y-55730689D01*
X72437030Y-55756997D01*
X72618252Y-55785700D01*
X72618257Y-55785700D01*
X72801748Y-55785700D01*
X72982969Y-55756997D01*
X72982972Y-55756996D01*
X73157474Y-55700297D01*
X73214896Y-55671038D01*
X73283563Y-55658142D01*
X73348304Y-55684418D01*
X73358871Y-55693842D01*
X74312489Y-56647460D01*
X74371829Y-56681720D01*
X74381008Y-56687020D01*
X74381012Y-56687022D01*
X74457438Y-56707500D01*
X74457440Y-56707500D01*
X87552560Y-56707500D01*
X87552562Y-56707500D01*
X87628989Y-56687021D01*
X87697511Y-56647460D01*
X87753460Y-56591511D01*
X88817784Y-55527185D01*
X88879105Y-55493702D01*
X88948796Y-55498686D01*
X88961758Y-55504383D01*
X88991777Y-55519679D01*
X89154875Y-55572673D01*
X89324254Y-55599500D01*
X89324255Y-55599500D01*
X89495745Y-55599500D01*
X89495746Y-55599500D01*
X89665125Y-55572673D01*
X89828223Y-55519679D01*
X89981022Y-55441824D01*
X90119762Y-55341024D01*
X90241024Y-55219762D01*
X90341824Y-55081022D01*
X90419679Y-54928223D01*
X90472673Y-54765125D01*
X90499500Y-54595746D01*
X90499500Y-54424254D01*
X90472673Y-54254875D01*
X90419679Y-54091777D01*
X90341824Y-53938978D01*
X90284875Y-53860594D01*
X90241029Y-53800244D01*
X90241025Y-53800239D01*
X90119760Y-53678974D01*
X90119755Y-53678970D01*
X89981025Y-53578178D01*
X89981024Y-53578177D01*
X89981022Y-53578176D01*
X89828223Y-53500321D01*
X89665125Y-53447327D01*
X89665123Y-53447326D01*
X89665122Y-53447326D01*
X89535009Y-53426718D01*
X89495746Y-53420500D01*
X89324254Y-53420500D01*
X89292379Y-53425548D01*
X89154877Y-53447326D01*
X88991774Y-53500322D01*
X88838974Y-53578178D01*
X88700244Y-53678970D01*
X88700239Y-53678974D01*
X88578974Y-53800239D01*
X88578970Y-53800244D01*
X88478178Y-53938974D01*
X88400322Y-54091774D01*
X88347326Y-54254877D01*
X88320500Y-54424254D01*
X88320500Y-54595745D01*
X88347326Y-54765122D01*
X88347327Y-54765125D01*
X88391156Y-54900017D01*
X88400323Y-54928228D01*
X88415615Y-54958241D01*
X88428511Y-55026910D01*
X88402234Y-55091650D01*
X88392811Y-55102216D01*
X87424848Y-56070181D01*
X87363525Y-56103666D01*
X87337167Y-56106500D01*
X74672833Y-56106500D01*
X74605794Y-56086815D01*
X74585152Y-56070181D01*
X73783842Y-55268871D01*
X73750357Y-55207548D01*
X73755341Y-55137856D01*
X73761034Y-55124903D01*
X73790297Y-55067474D01*
X73846997Y-54892969D01*
X73848921Y-54880820D01*
X73875700Y-54711748D01*
X73875700Y-54528251D01*
X73861529Y-54438780D01*
X73859228Y-54424254D01*
X85780500Y-54424254D01*
X85780500Y-54595745D01*
X85807326Y-54765122D01*
X85807327Y-54765125D01*
X85860321Y-54928223D01*
X85931272Y-55067473D01*
X85938178Y-55081025D01*
X86038970Y-55219755D01*
X86038974Y-55219760D01*
X86160239Y-55341025D01*
X86160244Y-55341029D01*
X86234183Y-55394748D01*
X86298978Y-55441824D01*
X86451777Y-55519679D01*
X86614875Y-55572673D01*
X86784254Y-55599500D01*
X86784255Y-55599500D01*
X86955745Y-55599500D01*
X86955746Y-55599500D01*
X87125125Y-55572673D01*
X87288223Y-55519679D01*
X87441022Y-55441824D01*
X87579762Y-55341024D01*
X87701024Y-55219762D01*
X87801824Y-55081022D01*
X87879679Y-54928223D01*
X87932673Y-54765125D01*
X87959500Y-54595746D01*
X87959500Y-54424254D01*
X87932673Y-54254875D01*
X87879679Y-54091777D01*
X87801824Y-53938978D01*
X87744875Y-53860594D01*
X87701029Y-53800244D01*
X87701025Y-53800239D01*
X87579760Y-53678974D01*
X87579755Y-53678970D01*
X87441025Y-53578178D01*
X87441024Y-53578177D01*
X87441022Y-53578176D01*
X87288223Y-53500321D01*
X87125125Y-53447327D01*
X87125123Y-53447326D01*
X87125122Y-53447326D01*
X86995009Y-53426718D01*
X86955746Y-53420500D01*
X86784254Y-53420500D01*
X86752379Y-53425548D01*
X86614877Y-53447326D01*
X86451774Y-53500322D01*
X86298974Y-53578178D01*
X86160244Y-53678970D01*
X86160239Y-53678974D01*
X86038974Y-53800239D01*
X86038970Y-53800244D01*
X85938178Y-53938974D01*
X85860322Y-54091774D01*
X85807326Y-54254877D01*
X85780500Y-54424254D01*
X73859228Y-54424254D01*
X73846997Y-54347030D01*
X73833351Y-54305034D01*
X73790297Y-54172526D01*
X73706996Y-54009040D01*
X73599146Y-53860597D01*
X73469403Y-53730854D01*
X73320960Y-53623004D01*
X73232981Y-53578176D01*
X73157476Y-53539704D01*
X73157475Y-53539703D01*
X73157474Y-53539703D01*
X73083342Y-53515616D01*
X72982969Y-53483002D01*
X72801748Y-53454300D01*
X72801743Y-53454300D01*
X72618257Y-53454300D01*
X72618252Y-53454300D01*
X72437030Y-53483002D01*
X72262523Y-53539704D01*
X72099039Y-53623004D01*
X71950594Y-53730856D01*
X71820856Y-53860594D01*
X71713004Y-54009039D01*
X71629704Y-54172523D01*
X71573002Y-54347030D01*
X71562473Y-54413513D01*
X71532544Y-54476648D01*
X71473232Y-54513579D01*
X71403370Y-54512581D01*
X71345137Y-54473971D01*
X71317527Y-54413513D01*
X71306997Y-54347030D01*
X71250295Y-54172521D01*
X71221039Y-54115104D01*
X71208142Y-54046435D01*
X71234418Y-53981694D01*
X71243833Y-53971136D01*
X72441152Y-52773819D01*
X72502475Y-52740334D01*
X72528833Y-52737500D01*
X89701167Y-52737500D01*
X89768206Y-52757185D01*
X89788848Y-52773819D01*
X90932811Y-53917782D01*
X90966296Y-53979105D01*
X90961312Y-54048797D01*
X90955616Y-54061755D01*
X90940323Y-54091770D01*
X90887326Y-54254877D01*
X90860500Y-54424254D01*
X90860500Y-54595745D01*
X90887326Y-54765122D01*
X90887327Y-54765125D01*
X90940321Y-54928223D01*
X91011272Y-55067473D01*
X91018178Y-55081025D01*
X91118970Y-55219755D01*
X91118974Y-55219760D01*
X91240239Y-55341025D01*
X91240244Y-55341029D01*
X91314183Y-55394748D01*
X91378978Y-55441824D01*
X91531777Y-55519679D01*
X91694875Y-55572673D01*
X91864254Y-55599500D01*
X91864255Y-55599500D01*
X92035745Y-55599500D01*
X92035746Y-55599500D01*
X92205125Y-55572673D01*
X92368223Y-55519679D01*
X92521022Y-55441824D01*
X92659762Y-55341024D01*
X92781024Y-55219762D01*
X92881824Y-55081022D01*
X92949392Y-54948411D01*
X92997366Y-54897615D01*
X93065187Y-54880820D01*
X93131322Y-54903357D01*
X93174774Y-54958072D01*
X93177808Y-54966388D01*
X93202761Y-55043188D01*
X93202762Y-55043191D01*
X93302023Y-55237998D01*
X93430524Y-55414866D01*
X93430528Y-55414871D01*
X93585128Y-55569471D01*
X93585133Y-55569475D01*
X93762001Y-55697976D01*
X93956808Y-55797237D01*
X93956811Y-55797238D01*
X94164739Y-55864797D01*
X94239999Y-55876717D01*
X94240000Y-55876717D01*
X94240000Y-54943012D01*
X94297007Y-54975925D01*
X94424174Y-55010000D01*
X94555826Y-55010000D01*
X94682993Y-54975925D01*
X94740000Y-54943012D01*
X94740000Y-55876717D01*
X94815258Y-55864797D01*
X94815261Y-55864797D01*
X95023188Y-55797238D01*
X95023191Y-55797237D01*
X95217998Y-55697976D01*
X95394866Y-55569475D01*
X95394871Y-55569471D01*
X95549471Y-55414871D01*
X95549475Y-55414866D01*
X95677976Y-55237998D01*
X95777235Y-55043193D01*
X95802190Y-54966389D01*
X95841627Y-54908713D01*
X95905985Y-54881514D01*
X95974832Y-54893428D01*
X96026308Y-54940671D01*
X96030607Y-54948411D01*
X96044626Y-54975925D01*
X96091272Y-55067473D01*
X96098178Y-55081025D01*
X96198970Y-55219755D01*
X96198974Y-55219760D01*
X96320239Y-55341025D01*
X96320244Y-55341029D01*
X96394183Y-55394748D01*
X96458978Y-55441824D01*
X96611777Y-55519679D01*
X96774875Y-55572673D01*
X96944254Y-55599500D01*
X96944255Y-55599500D01*
X97115745Y-55599500D01*
X97115746Y-55599500D01*
X97285125Y-55572673D01*
X97448223Y-55519679D01*
X97601022Y-55441824D01*
X97739762Y-55341024D01*
X97861024Y-55219762D01*
X97961824Y-55081022D01*
X98039679Y-54928223D01*
X98092673Y-54765125D01*
X98119500Y-54595746D01*
X98119500Y-54424254D01*
X98480500Y-54424254D01*
X98480500Y-54595745D01*
X98507326Y-54765122D01*
X98507327Y-54765125D01*
X98560321Y-54928223D01*
X98631272Y-55067473D01*
X98638178Y-55081025D01*
X98738970Y-55219755D01*
X98738974Y-55219760D01*
X98860239Y-55341025D01*
X98860244Y-55341029D01*
X98934183Y-55394748D01*
X98998978Y-55441824D01*
X99151777Y-55519679D01*
X99314875Y-55572673D01*
X99484254Y-55599500D01*
X99484255Y-55599500D01*
X99655745Y-55599500D01*
X99655746Y-55599500D01*
X99825125Y-55572673D01*
X99988223Y-55519679D01*
X100024582Y-55501153D01*
X137999500Y-55501153D01*
X137999500Y-55658846D01*
X138030261Y-55813489D01*
X138030264Y-55813501D01*
X138090602Y-55959172D01*
X138090609Y-55959185D01*
X138178210Y-56090288D01*
X138178213Y-56090292D01*
X138289707Y-56201786D01*
X138289711Y-56201789D01*
X138420814Y-56289390D01*
X138420827Y-56289397D01*
X138566498Y-56349735D01*
X138566503Y-56349737D01*
X138721153Y-56380499D01*
X138721156Y-56380500D01*
X138721158Y-56380500D01*
X138878844Y-56380500D01*
X138878845Y-56380499D01*
X139033497Y-56349737D01*
X139179179Y-56289394D01*
X139310289Y-56201789D01*
X139421789Y-56090289D01*
X139509394Y-55959179D01*
X139569737Y-55813497D01*
X139600500Y-55658842D01*
X139600500Y-55501158D01*
X139600500Y-55501155D01*
X139600499Y-55501153D01*
X139593006Y-55463483D01*
X139569737Y-55346503D01*
X139537581Y-55268871D01*
X139509397Y-55200827D01*
X139509390Y-55200814D01*
X139421789Y-55069711D01*
X139421786Y-55069707D01*
X139310292Y-54958213D01*
X139310288Y-54958210D01*
X139179185Y-54870609D01*
X139179172Y-54870602D01*
X139033501Y-54810264D01*
X139033489Y-54810261D01*
X138878845Y-54779500D01*
X138878842Y-54779500D01*
X138721158Y-54779500D01*
X138721155Y-54779500D01*
X138566510Y-54810261D01*
X138566498Y-54810264D01*
X138420827Y-54870602D01*
X138420814Y-54870609D01*
X138289711Y-54958210D01*
X138289707Y-54958213D01*
X138178213Y-55069707D01*
X138178210Y-55069711D01*
X138090609Y-55200814D01*
X138090602Y-55200827D01*
X138030264Y-55346498D01*
X138030261Y-55346510D01*
X137999500Y-55501153D01*
X100024582Y-55501153D01*
X100141022Y-55441824D01*
X100178127Y-55414866D01*
X100205818Y-55394748D01*
X100279755Y-55341029D01*
X100279753Y-55341029D01*
X100279762Y-55341024D01*
X100401024Y-55219762D01*
X100501824Y-55081022D01*
X100579679Y-54928223D01*
X100632673Y-54765125D01*
X100659500Y-54595746D01*
X100659500Y-54424254D01*
X100632673Y-54254875D01*
X100579679Y-54091777D01*
X100501824Y-53938978D01*
X100444875Y-53860594D01*
X100401029Y-53800244D01*
X100401025Y-53800239D01*
X100279760Y-53678974D01*
X100279755Y-53678970D01*
X100164708Y-53595384D01*
X100141025Y-53578178D01*
X100141024Y-53578177D01*
X100141022Y-53578176D01*
X99989856Y-53501153D01*
X137999500Y-53501153D01*
X137999500Y-53658846D01*
X138030261Y-53813489D01*
X138030264Y-53813501D01*
X138090602Y-53959172D01*
X138090609Y-53959185D01*
X138178210Y-54090288D01*
X138178213Y-54090292D01*
X138289707Y-54201786D01*
X138289711Y-54201789D01*
X138420814Y-54289390D01*
X138420827Y-54289397D01*
X138566498Y-54349735D01*
X138566503Y-54349737D01*
X138691120Y-54374525D01*
X138721153Y-54380499D01*
X138721156Y-54380500D01*
X138721158Y-54380500D01*
X138878844Y-54380500D01*
X138878845Y-54380499D01*
X139033497Y-54349737D01*
X139179179Y-54289394D01*
X139310289Y-54201789D01*
X139421789Y-54090289D01*
X139509394Y-53959179D01*
X139517762Y-53938978D01*
X139526541Y-53917782D01*
X139569737Y-53813497D01*
X139600500Y-53658842D01*
X139600500Y-53501158D01*
X139600500Y-53501155D01*
X139600499Y-53501153D01*
X139596889Y-53483003D01*
X139569737Y-53346503D01*
X139534796Y-53262147D01*
X139509397Y-53200827D01*
X139509390Y-53200814D01*
X139421789Y-53069711D01*
X139421786Y-53069707D01*
X139310292Y-52958213D01*
X139310288Y-52958210D01*
X139179185Y-52870609D01*
X139179172Y-52870602D01*
X139033501Y-52810264D01*
X139033489Y-52810261D01*
X138878845Y-52779500D01*
X138878842Y-52779500D01*
X138721158Y-52779500D01*
X138721155Y-52779500D01*
X138566510Y-52810261D01*
X138566498Y-52810264D01*
X138420827Y-52870602D01*
X138420814Y-52870609D01*
X138289711Y-52958210D01*
X138289707Y-52958213D01*
X138178213Y-53069707D01*
X138178210Y-53069711D01*
X138090609Y-53200814D01*
X138090602Y-53200827D01*
X138030264Y-53346498D01*
X138030261Y-53346510D01*
X137999500Y-53501153D01*
X99989856Y-53501153D01*
X99988223Y-53500321D01*
X99825125Y-53447327D01*
X99825123Y-53447326D01*
X99825122Y-53447326D01*
X99695009Y-53426718D01*
X99655746Y-53420500D01*
X99484254Y-53420500D01*
X99452379Y-53425548D01*
X99314877Y-53447326D01*
X99151774Y-53500322D01*
X98998974Y-53578178D01*
X98860244Y-53678970D01*
X98860239Y-53678974D01*
X98738974Y-53800239D01*
X98738970Y-53800244D01*
X98638178Y-53938974D01*
X98560322Y-54091774D01*
X98507326Y-54254877D01*
X98480500Y-54424254D01*
X98119500Y-54424254D01*
X98092673Y-54254875D01*
X98039679Y-54091777D01*
X97961824Y-53938978D01*
X97904875Y-53860594D01*
X97861029Y-53800244D01*
X97861025Y-53800239D01*
X97739760Y-53678974D01*
X97739755Y-53678970D01*
X97601025Y-53578178D01*
X97601024Y-53578177D01*
X97601022Y-53578176D01*
X97448223Y-53500321D01*
X97285125Y-53447327D01*
X97285123Y-53447326D01*
X97285122Y-53447326D01*
X97155009Y-53426718D01*
X97115746Y-53420500D01*
X96944254Y-53420500D01*
X96912379Y-53425548D01*
X96774877Y-53447326D01*
X96611774Y-53500322D01*
X96458974Y-53578178D01*
X96320244Y-53678970D01*
X96320239Y-53678974D01*
X96198974Y-53800239D01*
X96198970Y-53800244D01*
X96098175Y-53938978D01*
X96098174Y-53938979D01*
X96030606Y-54071588D01*
X95982632Y-54122384D01*
X95914811Y-54139179D01*
X95848676Y-54116641D01*
X95805225Y-54061926D01*
X95802191Y-54053610D01*
X95777239Y-53976814D01*
X95777237Y-53976808D01*
X95677976Y-53782001D01*
X95549475Y-53605133D01*
X95549471Y-53605128D01*
X95394871Y-53450528D01*
X95394866Y-53450524D01*
X95217998Y-53322023D01*
X95023191Y-53222762D01*
X95023188Y-53222761D01*
X94815258Y-53155201D01*
X94740000Y-53143281D01*
X94740000Y-54076988D01*
X94682993Y-54044075D01*
X94555826Y-54010000D01*
X94424174Y-54010000D01*
X94297007Y-54044075D01*
X94240000Y-54076988D01*
X94240000Y-53143281D01*
X94164741Y-53155201D01*
X93956811Y-53222761D01*
X93956808Y-53222762D01*
X93762001Y-53322023D01*
X93585133Y-53450524D01*
X93585128Y-53450528D01*
X93430528Y-53605128D01*
X93430524Y-53605133D01*
X93302023Y-53782001D01*
X93202762Y-53976808D01*
X93202761Y-53976811D01*
X93177808Y-54053611D01*
X93138370Y-54111287D01*
X93074012Y-54138485D01*
X93005165Y-54126570D01*
X92953690Y-54079326D01*
X92949392Y-54071588D01*
X92946719Y-54066342D01*
X92881824Y-53938978D01*
X92881822Y-53938975D01*
X92881821Y-53938973D01*
X92781029Y-53800244D01*
X92781025Y-53800239D01*
X92659760Y-53678974D01*
X92659755Y-53678970D01*
X92521025Y-53578178D01*
X92521024Y-53578177D01*
X92521022Y-53578176D01*
X92368223Y-53500321D01*
X92205125Y-53447327D01*
X92205123Y-53447326D01*
X92205122Y-53447326D01*
X92075009Y-53426718D01*
X92035746Y-53420500D01*
X91864254Y-53420500D01*
X91832379Y-53425548D01*
X91694877Y-53447326D01*
X91531770Y-53500323D01*
X91501755Y-53515616D01*
X91433085Y-53528511D01*
X91368345Y-53502232D01*
X91357782Y-53492811D01*
X90061512Y-52196541D01*
X90061504Y-52196535D01*
X89992995Y-52156982D01*
X89992990Y-52156979D01*
X89967513Y-52150152D01*
X89916562Y-52136500D01*
X72313438Y-52136500D01*
X72275224Y-52146739D01*
X72237009Y-52156979D01*
X72237004Y-52156982D01*
X72168495Y-52196535D01*
X72168487Y-52196541D01*
X70818871Y-53546156D01*
X70757548Y-53579641D01*
X70687856Y-53574657D01*
X70674896Y-53568960D01*
X70617474Y-53539702D01*
X70442970Y-53483003D01*
X70261748Y-53454300D01*
X70261743Y-53454300D01*
X70078257Y-53454300D01*
X70078252Y-53454300D01*
X69897030Y-53483002D01*
X69722523Y-53539704D01*
X69559039Y-53623004D01*
X69410594Y-53730856D01*
X69280856Y-53860594D01*
X69170140Y-54012982D01*
X69168827Y-54012028D01*
X69122263Y-54054134D01*
X69053331Y-54065540D01*
X68989175Y-54037867D01*
X68957890Y-53998750D01*
X68883153Y-53852069D01*
X68747589Y-53665484D01*
X68747589Y-53665483D01*
X68584516Y-53502410D01*
X68397932Y-53366848D01*
X68192446Y-53262147D01*
X67973102Y-53190877D01*
X67880000Y-53176131D01*
X67880000Y-54186988D01*
X67822993Y-54154075D01*
X67695826Y-54120000D01*
X67564174Y-54120000D01*
X67437007Y-54154075D01*
X67380000Y-54186988D01*
X67380000Y-53176131D01*
X67286897Y-53190877D01*
X67067553Y-53262147D01*
X66862067Y-53366848D01*
X66675484Y-53502410D01*
X66675483Y-53502410D01*
X66512410Y-53665483D01*
X66512410Y-53665484D01*
X66376848Y-53852067D01*
X66302109Y-53998751D01*
X66254134Y-54049547D01*
X66186313Y-54066342D01*
X66120178Y-54043804D01*
X66090702Y-54012369D01*
X66089860Y-54012982D01*
X66067128Y-53981694D01*
X65979146Y-53860597D01*
X65849403Y-53730854D01*
X65700960Y-53623004D01*
X65612981Y-53578176D01*
X65537476Y-53539704D01*
X65537475Y-53539703D01*
X65537474Y-53539703D01*
X65463342Y-53515616D01*
X65362969Y-53483002D01*
X65181748Y-53454300D01*
X65181743Y-53454300D01*
X64998257Y-53454300D01*
X64998252Y-53454300D01*
X64817030Y-53483002D01*
X64642523Y-53539704D01*
X64479039Y-53623004D01*
X64330594Y-53730856D01*
X64200856Y-53860594D01*
X64093004Y-54009039D01*
X64009704Y-54172523D01*
X63953002Y-54347030D01*
X63924300Y-54528251D01*
X63924300Y-54711748D01*
X63953002Y-54892969D01*
X63979957Y-54975925D01*
X64009703Y-55067474D01*
X64093004Y-55230960D01*
X64200854Y-55379403D01*
X64330597Y-55509146D01*
X64479040Y-55616996D01*
X64642526Y-55700297D01*
X64775034Y-55743351D01*
X64817030Y-55756997D01*
X64998252Y-55785700D01*
X64998257Y-55785700D01*
X65181748Y-55785700D01*
X65362969Y-55756997D01*
X65362972Y-55756996D01*
X65537474Y-55700297D01*
X65700960Y-55616996D01*
X65849403Y-55509146D01*
X65979146Y-55379403D01*
X66086996Y-55230960D01*
X66086996Y-55230959D01*
X66089860Y-55227018D01*
X66091183Y-55227979D01*
X66137680Y-55185891D01*
X66206607Y-55174452D01*
X66270777Y-55202092D01*
X66302109Y-55241248D01*
X66376848Y-55387932D01*
X66512410Y-55574515D01*
X66512410Y-55574516D01*
X66675483Y-55737589D01*
X66862067Y-55873151D01*
X67067555Y-55977852D01*
X67286890Y-56049119D01*
X67380000Y-56063866D01*
X67380000Y-55053012D01*
X67437007Y-55085925D01*
X67564174Y-55120000D01*
X67695826Y-55120000D01*
X67822993Y-55085925D01*
X67880000Y-55053012D01*
X67880000Y-56063865D01*
X67973109Y-56049119D01*
X68192444Y-55977852D01*
X68397932Y-55873151D01*
X68584515Y-55737589D01*
X68584516Y-55737589D01*
X68747589Y-55574516D01*
X68747589Y-55574515D01*
X68883153Y-55387930D01*
X68957890Y-55241249D01*
X69005864Y-55190453D01*
X69073685Y-55173657D01*
X69139820Y-55196194D01*
X69169299Y-55227628D01*
X69170140Y-55227018D01*
X69173003Y-55230959D01*
X69173004Y-55230960D01*
X69280854Y-55379403D01*
X69410597Y-55509146D01*
X69410603Y-55509150D01*
X69465904Y-55549330D01*
X69508570Y-55604660D01*
X69514548Y-55674273D01*
X69481942Y-55736068D01*
X69480699Y-55737328D01*
X68332848Y-56885181D01*
X68271525Y-56918666D01*
X68245167Y-56921500D01*
X65115833Y-56921500D01*
X65048794Y-56901815D01*
X65028152Y-56885181D01*
X62578819Y-54435848D01*
X62545334Y-54374525D01*
X62542500Y-54348167D01*
X62542500Y-52853833D01*
X62562185Y-52786794D01*
X62578819Y-52766152D01*
X63208471Y-52136500D01*
X63843818Y-51501153D01*
X137999500Y-51501153D01*
X137999500Y-51658846D01*
X138030261Y-51813489D01*
X138030264Y-51813501D01*
X138090602Y-51959172D01*
X138090609Y-51959185D01*
X138178210Y-52090288D01*
X138178213Y-52090292D01*
X138289707Y-52201786D01*
X138289711Y-52201789D01*
X138420814Y-52289390D01*
X138420827Y-52289397D01*
X138566498Y-52349735D01*
X138566503Y-52349737D01*
X138721153Y-52380499D01*
X138721156Y-52380500D01*
X138721158Y-52380500D01*
X138878844Y-52380500D01*
X138878845Y-52380499D01*
X139033497Y-52349737D01*
X139179179Y-52289394D01*
X139310289Y-52201789D01*
X139421789Y-52090289D01*
X139509394Y-51959179D01*
X139569737Y-51813497D01*
X139600500Y-51658842D01*
X139600500Y-51501158D01*
X139600500Y-51501155D01*
X139600499Y-51501153D01*
X139587442Y-51435511D01*
X139569737Y-51346503D01*
X139513792Y-51211438D01*
X139509397Y-51200827D01*
X139509390Y-51200814D01*
X139421789Y-51069711D01*
X139421786Y-51069707D01*
X139310292Y-50958213D01*
X139310288Y-50958210D01*
X139179185Y-50870609D01*
X139179172Y-50870602D01*
X139033501Y-50810264D01*
X139033489Y-50810261D01*
X138878845Y-50779500D01*
X138878842Y-50779500D01*
X138721158Y-50779500D01*
X138721155Y-50779500D01*
X138566510Y-50810261D01*
X138566498Y-50810264D01*
X138420827Y-50870602D01*
X138420814Y-50870609D01*
X138289711Y-50958210D01*
X138289707Y-50958213D01*
X138178213Y-51069707D01*
X138178210Y-51069711D01*
X138090609Y-51200814D01*
X138090602Y-51200827D01*
X138030264Y-51346498D01*
X138030261Y-51346510D01*
X137999500Y-51501153D01*
X63843818Y-51501153D01*
X63909460Y-51435511D01*
X63949022Y-51366988D01*
X63969500Y-51290562D01*
X63969500Y-51211438D01*
X63969500Y-49767539D01*
X63989185Y-49700500D01*
X64041989Y-49654745D01*
X64111147Y-49644801D01*
X64174703Y-49673826D01*
X64208061Y-49720087D01*
X64227041Y-49765910D01*
X64227042Y-49765912D01*
X64332377Y-49923558D01*
X64466441Y-50057622D01*
X64563362Y-50122382D01*
X64624085Y-50162956D01*
X64799249Y-50235512D01*
X64985197Y-50272499D01*
X64985201Y-50272500D01*
X64985202Y-50272500D01*
X65174799Y-50272500D01*
X65174800Y-50272499D01*
X65360751Y-50235512D01*
X65535915Y-50162956D01*
X65693558Y-50057622D01*
X65827622Y-49923558D01*
X65932956Y-49765915D01*
X66005512Y-49590751D01*
X66042500Y-49404798D01*
X66042500Y-49215202D01*
X66042499Y-49215199D01*
X66042499Y-49215197D01*
X66657500Y-49215197D01*
X66657500Y-49404802D01*
X66694486Y-49590743D01*
X66694488Y-49590751D01*
X66767042Y-49765912D01*
X66872377Y-49923558D01*
X67006441Y-50057622D01*
X67103362Y-50122382D01*
X67164085Y-50162956D01*
X67339249Y-50235512D01*
X67525197Y-50272499D01*
X67525201Y-50272500D01*
X67525202Y-50272500D01*
X67714799Y-50272500D01*
X67714800Y-50272499D01*
X67900751Y-50235512D01*
X68075915Y-50162956D01*
X68233558Y-50057622D01*
X68367622Y-49923558D01*
X68472956Y-49765915D01*
X68545512Y-49590751D01*
X68582500Y-49404798D01*
X68582500Y-49215202D01*
X68582499Y-49215199D01*
X68582499Y-49215197D01*
X68560677Y-49105488D01*
X68545512Y-49029249D01*
X68472956Y-48854085D01*
X68383500Y-48720205D01*
X68367622Y-48696441D01*
X68233558Y-48562377D01*
X68075912Y-48457042D01*
X67900751Y-48384488D01*
X67900743Y-48384486D01*
X67714802Y-48347500D01*
X67714798Y-48347500D01*
X67525202Y-48347500D01*
X67525197Y-48347500D01*
X67339256Y-48384486D01*
X67339248Y-48384488D01*
X67164087Y-48457042D01*
X67006441Y-48562377D01*
X66872377Y-48696441D01*
X66767042Y-48854087D01*
X66694488Y-49029248D01*
X66694486Y-49029256D01*
X66657500Y-49215197D01*
X66042499Y-49215197D01*
X66020677Y-49105488D01*
X66005512Y-49029249D01*
X65932956Y-48854085D01*
X65843500Y-48720205D01*
X65827622Y-48696441D01*
X65693558Y-48562377D01*
X65535912Y-48457042D01*
X65360751Y-48384488D01*
X65360743Y-48384486D01*
X65174802Y-48347500D01*
X65174798Y-48347500D01*
X64985202Y-48347500D01*
X64985197Y-48347500D01*
X64799256Y-48384486D01*
X64799248Y-48384488D01*
X64624087Y-48457042D01*
X64466441Y-48562377D01*
X64332377Y-48696441D01*
X64227042Y-48854087D01*
X64208061Y-48899913D01*
X64164220Y-48954316D01*
X64097925Y-48976381D01*
X64030226Y-48959102D01*
X63982616Y-48907964D01*
X63969500Y-48852460D01*
X63969500Y-47227539D01*
X63989185Y-47160500D01*
X64041989Y-47114745D01*
X64111147Y-47104801D01*
X64174703Y-47133826D01*
X64208061Y-47180087D01*
X64227041Y-47225910D01*
X64227042Y-47225912D01*
X64332377Y-47383558D01*
X64466441Y-47517622D01*
X64559795Y-47579999D01*
X64624085Y-47622956D01*
X64799249Y-47695512D01*
X64984473Y-47732355D01*
X64985197Y-47732499D01*
X64985201Y-47732500D01*
X64985202Y-47732500D01*
X65174799Y-47732500D01*
X65174800Y-47732499D01*
X65360751Y-47695512D01*
X65535915Y-47622956D01*
X65693558Y-47517622D01*
X65827622Y-47383558D01*
X65932956Y-47225915D01*
X66005512Y-47050751D01*
X66042500Y-46864798D01*
X66042500Y-46675202D01*
X66042500Y-46675201D01*
X66042500Y-46675199D01*
X66041601Y-46670678D01*
X66358000Y-46670678D01*
X66358000Y-46869321D01*
X66389075Y-47065520D01*
X66389075Y-47065523D01*
X66450457Y-47254437D01*
X66540641Y-47431432D01*
X66567730Y-47468715D01*
X67130504Y-46905941D01*
X67146619Y-46966081D01*
X67213498Y-47081920D01*
X67308080Y-47176502D01*
X67423919Y-47243381D01*
X67484057Y-47259494D01*
X66921283Y-47822268D01*
X66921283Y-47822269D01*
X66958567Y-47849358D01*
X67135562Y-47939542D01*
X67324477Y-48000924D01*
X67520679Y-48032000D01*
X67719321Y-48032000D01*
X67915520Y-48000924D01*
X67915523Y-48000924D01*
X68104437Y-47939542D01*
X68281425Y-47849362D01*
X68318716Y-47822268D01*
X67755942Y-47259494D01*
X67816081Y-47243381D01*
X67931920Y-47176502D01*
X68026502Y-47081920D01*
X68093381Y-46966081D01*
X68109495Y-46905942D01*
X68672268Y-47468715D01*
X68699362Y-47431425D01*
X68789542Y-47254437D01*
X68850924Y-47065523D01*
X68850924Y-47065520D01*
X68882000Y-46869321D01*
X68882000Y-46675197D01*
X69197500Y-46675197D01*
X69197500Y-46864802D01*
X69234486Y-47050743D01*
X69234488Y-47050751D01*
X69307042Y-47225912D01*
X69412377Y-47383558D01*
X69546441Y-47517622D01*
X69639795Y-47579999D01*
X69704085Y-47622956D01*
X69879249Y-47695512D01*
X70064473Y-47732355D01*
X70065197Y-47732499D01*
X70065201Y-47732500D01*
X70065202Y-47732500D01*
X70254799Y-47732500D01*
X70254800Y-47732499D01*
X70440751Y-47695512D01*
X70615915Y-47622956D01*
X70773558Y-47517622D01*
X70831424Y-47459756D01*
X70898819Y-47392362D01*
X70960142Y-47358877D01*
X71029834Y-47363861D01*
X71085767Y-47405733D01*
X71110184Y-47471197D01*
X71110500Y-47480043D01*
X71110500Y-47883166D01*
X71090815Y-47950205D01*
X71074181Y-47970847D01*
X70654752Y-48390276D01*
X70593429Y-48423761D01*
X70523737Y-48418777D01*
X70519618Y-48417156D01*
X70440751Y-48384488D01*
X70440743Y-48384486D01*
X70254802Y-48347500D01*
X70254798Y-48347500D01*
X70065202Y-48347500D01*
X70065197Y-48347500D01*
X69879256Y-48384486D01*
X69879248Y-48384488D01*
X69704087Y-48457042D01*
X69546441Y-48562377D01*
X69412377Y-48696441D01*
X69307042Y-48854087D01*
X69234488Y-49029248D01*
X69234486Y-49029256D01*
X69197500Y-49215197D01*
X69197500Y-49404802D01*
X69234486Y-49590743D01*
X69234488Y-49590751D01*
X69307042Y-49765912D01*
X69412377Y-49923558D01*
X69546441Y-50057622D01*
X69643362Y-50122382D01*
X69704085Y-50162956D01*
X69879249Y-50235512D01*
X70065197Y-50272499D01*
X70065201Y-50272500D01*
X70065202Y-50272500D01*
X70254799Y-50272500D01*
X70254800Y-50272499D01*
X70440751Y-50235512D01*
X70615915Y-50162956D01*
X70773558Y-50057622D01*
X70907622Y-49923558D01*
X71012956Y-49765915D01*
X71085512Y-49590751D01*
X71122500Y-49404798D01*
X71122500Y-49215202D01*
X71122499Y-49215199D01*
X71122499Y-49215197D01*
X71737500Y-49215197D01*
X71737500Y-49404802D01*
X71774486Y-49590743D01*
X71774488Y-49590751D01*
X71847042Y-49765912D01*
X71952377Y-49923558D01*
X72086441Y-50057622D01*
X72183362Y-50122382D01*
X72244085Y-50162956D01*
X72419249Y-50235512D01*
X72605197Y-50272499D01*
X72605201Y-50272500D01*
X72605202Y-50272500D01*
X72794799Y-50272500D01*
X72794800Y-50272499D01*
X72980751Y-50235512D01*
X73155915Y-50162956D01*
X73313558Y-50057622D01*
X73447622Y-49923558D01*
X73552956Y-49765915D01*
X73625512Y-49590751D01*
X73662500Y-49404798D01*
X73662500Y-49215202D01*
X73662499Y-49215199D01*
X73662499Y-49215197D01*
X74277500Y-49215197D01*
X74277500Y-49404802D01*
X74314486Y-49590743D01*
X74314488Y-49590751D01*
X74387042Y-49765912D01*
X74492377Y-49923558D01*
X74626441Y-50057622D01*
X74723362Y-50122382D01*
X74784085Y-50162956D01*
X74959249Y-50235512D01*
X75145197Y-50272499D01*
X75145201Y-50272500D01*
X75145202Y-50272500D01*
X75334799Y-50272500D01*
X75334800Y-50272499D01*
X75520751Y-50235512D01*
X75695915Y-50162956D01*
X75853558Y-50057622D01*
X75987622Y-49923558D01*
X76092956Y-49765915D01*
X76165512Y-49590751D01*
X76202500Y-49404798D01*
X76202500Y-49215202D01*
X76202500Y-49215201D01*
X76202500Y-49215199D01*
X76201601Y-49210678D01*
X76518000Y-49210678D01*
X76518000Y-49409321D01*
X76549075Y-49605520D01*
X76549075Y-49605523D01*
X76610457Y-49794437D01*
X76700641Y-49971432D01*
X76727730Y-50008715D01*
X77290504Y-49445941D01*
X77306619Y-49506081D01*
X77373498Y-49621920D01*
X77468080Y-49716502D01*
X77583919Y-49783381D01*
X77644057Y-49799494D01*
X77081283Y-50362268D01*
X77081283Y-50362269D01*
X77118567Y-50389358D01*
X77295562Y-50479542D01*
X77484477Y-50540924D01*
X77680679Y-50572000D01*
X77879321Y-50572000D01*
X78075520Y-50540924D01*
X78075523Y-50540924D01*
X78264437Y-50479542D01*
X78441425Y-50389362D01*
X78478716Y-50362268D01*
X77915942Y-49799494D01*
X77976081Y-49783381D01*
X78091920Y-49716502D01*
X78186502Y-49621920D01*
X78253381Y-49506081D01*
X78269495Y-49445942D01*
X78832268Y-50008715D01*
X78859362Y-49971425D01*
X78949542Y-49794437D01*
X79010924Y-49605523D01*
X79010924Y-49605520D01*
X79042000Y-49409321D01*
X79042000Y-49210678D01*
X79010924Y-49014479D01*
X79010924Y-49014476D01*
X78949542Y-48825562D01*
X78859358Y-48648567D01*
X78832268Y-48611283D01*
X78269494Y-49174057D01*
X78253381Y-49113919D01*
X78186502Y-48998080D01*
X78091920Y-48903498D01*
X77976081Y-48836619D01*
X77915942Y-48820504D01*
X78478716Y-48257731D01*
X78478715Y-48257730D01*
X78441432Y-48230641D01*
X78264437Y-48140457D01*
X78075522Y-48079075D01*
X77879321Y-48048000D01*
X77680679Y-48048000D01*
X77484479Y-48079075D01*
X77484476Y-48079075D01*
X77295562Y-48140457D01*
X77118564Y-48230643D01*
X77081283Y-48257729D01*
X77081282Y-48257730D01*
X77644058Y-48820504D01*
X77583919Y-48836619D01*
X77468080Y-48903498D01*
X77373498Y-48998080D01*
X77306619Y-49113919D01*
X77290504Y-49174057D01*
X76727730Y-48611282D01*
X76727729Y-48611283D01*
X76700643Y-48648564D01*
X76610457Y-48825562D01*
X76549075Y-49014476D01*
X76549075Y-49014479D01*
X76518000Y-49210678D01*
X76201601Y-49210678D01*
X76165513Y-49029256D01*
X76165512Y-49029249D01*
X76092956Y-48854085D01*
X76003500Y-48720205D01*
X75987622Y-48696441D01*
X75853558Y-48562377D01*
X75695912Y-48457042D01*
X75605400Y-48419551D01*
X75520751Y-48384488D01*
X75520743Y-48384486D01*
X75334802Y-48347500D01*
X75334798Y-48347500D01*
X75145202Y-48347500D01*
X75145197Y-48347500D01*
X74959256Y-48384486D01*
X74959248Y-48384488D01*
X74784087Y-48457042D01*
X74626441Y-48562377D01*
X74492377Y-48696441D01*
X74387042Y-48854087D01*
X74314488Y-49029248D01*
X74314486Y-49029256D01*
X74277500Y-49215197D01*
X73662499Y-49215197D01*
X73640677Y-49105488D01*
X73625512Y-49029249D01*
X73552956Y-48854085D01*
X73463500Y-48720205D01*
X73447622Y-48696441D01*
X73313558Y-48562377D01*
X73155912Y-48457042D01*
X72980751Y-48384488D01*
X72980743Y-48384486D01*
X72794802Y-48347500D01*
X72794798Y-48347500D01*
X72605202Y-48347500D01*
X72605197Y-48347500D01*
X72419256Y-48384486D01*
X72419248Y-48384488D01*
X72244087Y-48457042D01*
X72086441Y-48562377D01*
X71952377Y-48696441D01*
X71847042Y-48854087D01*
X71774488Y-49029248D01*
X71774486Y-49029256D01*
X71737500Y-49215197D01*
X71122499Y-49215197D01*
X71100677Y-49105488D01*
X71085512Y-49029249D01*
X71052843Y-48950380D01*
X71045374Y-48880911D01*
X71076649Y-48818431D01*
X71079692Y-48815277D01*
X71651460Y-48243511D01*
X71691021Y-48174989D01*
X71711500Y-48098562D01*
X71711500Y-47855093D01*
X71731185Y-47788054D01*
X71783989Y-47742299D01*
X71853147Y-47732355D01*
X71908386Y-47754775D01*
X72038567Y-47849358D01*
X72215562Y-47939542D01*
X72404477Y-48000924D01*
X72600679Y-48032000D01*
X72799321Y-48032000D01*
X72995520Y-48000924D01*
X72995523Y-48000924D01*
X73184437Y-47939542D01*
X73361425Y-47849362D01*
X73398715Y-47822268D01*
X72835942Y-47259495D01*
X72896081Y-47243381D01*
X73011920Y-47176502D01*
X73106502Y-47081920D01*
X73173381Y-46966081D01*
X73189495Y-46905942D01*
X73752268Y-47468715D01*
X73779362Y-47431425D01*
X73869542Y-47254437D01*
X73930924Y-47065523D01*
X73930924Y-47065520D01*
X73962000Y-46869321D01*
X73962000Y-46675197D01*
X74277500Y-46675197D01*
X74277500Y-46864802D01*
X74314486Y-47050743D01*
X74314488Y-47050751D01*
X74387042Y-47225912D01*
X74492377Y-47383558D01*
X74626441Y-47517622D01*
X74719795Y-47579999D01*
X74784085Y-47622956D01*
X74959249Y-47695512D01*
X75144473Y-47732355D01*
X75145197Y-47732499D01*
X75145201Y-47732500D01*
X75145202Y-47732500D01*
X75334799Y-47732500D01*
X75334800Y-47732499D01*
X75520751Y-47695512D01*
X75695915Y-47622956D01*
X75853558Y-47517622D01*
X75987622Y-47383558D01*
X76092956Y-47225915D01*
X76165512Y-47050751D01*
X76202500Y-46864798D01*
X76202500Y-46675202D01*
X76202499Y-46675199D01*
X76202499Y-46675197D01*
X76196236Y-46643709D01*
X76165512Y-46489249D01*
X76092956Y-46314085D01*
X76028004Y-46216878D01*
X75987622Y-46156441D01*
X75853558Y-46022377D01*
X75695912Y-45917042D01*
X75520751Y-45844488D01*
X75520743Y-45844486D01*
X75334802Y-45807500D01*
X75334798Y-45807500D01*
X75145202Y-45807500D01*
X75145197Y-45807500D01*
X74959256Y-45844486D01*
X74959248Y-45844488D01*
X74784087Y-45917042D01*
X74626441Y-46022377D01*
X74492377Y-46156441D01*
X74387042Y-46314087D01*
X74314488Y-46489248D01*
X74314486Y-46489256D01*
X74277500Y-46675197D01*
X73962000Y-46675197D01*
X73962000Y-46670678D01*
X73930924Y-46474479D01*
X73930924Y-46474476D01*
X73869542Y-46285562D01*
X73779358Y-46108567D01*
X73752268Y-46071283D01*
X73189494Y-46634057D01*
X73173381Y-46573919D01*
X73106502Y-46458080D01*
X73011920Y-46363498D01*
X72896081Y-46296619D01*
X72835941Y-46280504D01*
X73398716Y-45717730D01*
X73361432Y-45690641D01*
X73184437Y-45600457D01*
X72995522Y-45539075D01*
X72799321Y-45508000D01*
X72600679Y-45508000D01*
X72404479Y-45539075D01*
X72404476Y-45539075D01*
X72215562Y-45600457D01*
X72038564Y-45690643D01*
X71908385Y-45785224D01*
X71842579Y-45808704D01*
X71774525Y-45792879D01*
X71725830Y-45742773D01*
X71711500Y-45684906D01*
X71711500Y-44337840D01*
X71731185Y-44270801D01*
X71766607Y-44234739D01*
X71825669Y-44195276D01*
X71916276Y-44104669D01*
X71987465Y-43998127D01*
X72036501Y-43879744D01*
X72061500Y-43754069D01*
X72061500Y-43625931D01*
X72061500Y-43625928D01*
X72036502Y-43500261D01*
X72036501Y-43500260D01*
X72036501Y-43500256D01*
X71987465Y-43381873D01*
X71987464Y-43381872D01*
X71987461Y-43381866D01*
X71916276Y-43275331D01*
X71916273Y-43275327D01*
X71825672Y-43184726D01*
X71825668Y-43184723D01*
X71719133Y-43113538D01*
X71719124Y-43113533D01*
X71600744Y-43064499D01*
X71600738Y-43064497D01*
X71475071Y-43039500D01*
X71475069Y-43039500D01*
X71346931Y-43039500D01*
X71346929Y-43039500D01*
X71221261Y-43064497D01*
X71221255Y-43064499D01*
X71102875Y-43113533D01*
X71102866Y-43113538D01*
X70996331Y-43184723D01*
X70996327Y-43184726D01*
X70905726Y-43275327D01*
X70905723Y-43275331D01*
X70834538Y-43381866D01*
X70834533Y-43381875D01*
X70785499Y-43500255D01*
X70785497Y-43500261D01*
X70760500Y-43625928D01*
X70760500Y-43625931D01*
X70760500Y-43754069D01*
X70760500Y-43754071D01*
X70760499Y-43754071D01*
X70785497Y-43879738D01*
X70785499Y-43879744D01*
X70834533Y-43998124D01*
X70834538Y-43998133D01*
X70905723Y-44104668D01*
X70905726Y-44104672D01*
X70996328Y-44195274D01*
X70996331Y-44195276D01*
X71055391Y-44234739D01*
X71100195Y-44288349D01*
X71110500Y-44337840D01*
X71110500Y-46059957D01*
X71090815Y-46126996D01*
X71038011Y-46172751D01*
X70968853Y-46182695D01*
X70905297Y-46153670D01*
X70898819Y-46147638D01*
X70773558Y-46022377D01*
X70615912Y-45917042D01*
X70440751Y-45844488D01*
X70440743Y-45844486D01*
X70254802Y-45807500D01*
X70254798Y-45807500D01*
X70065202Y-45807500D01*
X70065197Y-45807500D01*
X69879256Y-45844486D01*
X69879248Y-45844488D01*
X69704087Y-45917042D01*
X69546441Y-46022377D01*
X69412377Y-46156441D01*
X69307042Y-46314087D01*
X69234488Y-46489248D01*
X69234486Y-46489256D01*
X69197500Y-46675197D01*
X68882000Y-46675197D01*
X68882000Y-46670678D01*
X68850924Y-46474479D01*
X68850924Y-46474476D01*
X68789542Y-46285562D01*
X68699358Y-46108567D01*
X68672268Y-46071283D01*
X68109494Y-46634057D01*
X68093381Y-46573919D01*
X68026502Y-46458080D01*
X67931920Y-46363498D01*
X67816081Y-46296619D01*
X67755942Y-46280504D01*
X68318716Y-45717731D01*
X68318715Y-45717730D01*
X68281432Y-45690641D01*
X68104437Y-45600457D01*
X67915522Y-45539075D01*
X67719321Y-45508000D01*
X67520679Y-45508000D01*
X67324479Y-45539075D01*
X67324476Y-45539075D01*
X67135562Y-45600457D01*
X66958564Y-45690643D01*
X66921283Y-45717729D01*
X66921282Y-45717730D01*
X67484058Y-46280504D01*
X67423919Y-46296619D01*
X67308080Y-46363498D01*
X67213498Y-46458080D01*
X67146619Y-46573919D01*
X67130504Y-46634057D01*
X66567730Y-46071282D01*
X66567729Y-46071283D01*
X66540643Y-46108564D01*
X66450457Y-46285562D01*
X66389075Y-46474476D01*
X66389075Y-46474479D01*
X66358000Y-46670678D01*
X66041601Y-46670678D01*
X66017574Y-46549889D01*
X66005512Y-46489249D01*
X65932956Y-46314085D01*
X65868004Y-46216878D01*
X65827622Y-46156441D01*
X65693558Y-46022377D01*
X65535912Y-45917042D01*
X65445400Y-45879551D01*
X65360751Y-45844488D01*
X65360743Y-45844486D01*
X65174802Y-45807500D01*
X65174798Y-45807500D01*
X64985202Y-45807500D01*
X64985197Y-45807500D01*
X64799256Y-45844486D01*
X64799248Y-45844488D01*
X64624087Y-45917042D01*
X64466441Y-46022377D01*
X64332377Y-46156441D01*
X64227042Y-46314087D01*
X64208061Y-46359913D01*
X64164220Y-46414316D01*
X64097925Y-46436381D01*
X64030226Y-46419102D01*
X63982616Y-46367964D01*
X63969500Y-46312460D01*
X63969500Y-45926832D01*
X63989185Y-45859793D01*
X64005814Y-45839156D01*
X69155248Y-40689721D01*
X69216569Y-40656238D01*
X69286261Y-40661222D01*
X69290380Y-40662843D01*
X69369249Y-40695512D01*
X69527054Y-40726901D01*
X69555197Y-40732499D01*
X69555201Y-40732500D01*
X69555202Y-40732500D01*
X69744799Y-40732500D01*
X69744800Y-40732499D01*
X69930751Y-40695512D01*
X70105915Y-40622956D01*
X70263558Y-40517622D01*
X70397622Y-40383558D01*
X70438515Y-40322357D01*
X70492125Y-40277554D01*
X70561450Y-40268845D01*
X70624478Y-40299000D01*
X70629297Y-40303568D01*
X74151189Y-43825460D01*
X74219712Y-43865022D01*
X74296138Y-43885500D01*
X75935567Y-43885500D01*
X76002606Y-43905185D01*
X76023248Y-43921819D01*
X77707770Y-45606341D01*
X77741255Y-45667664D01*
X77736271Y-45737356D01*
X77694399Y-45793289D01*
X77644280Y-45815639D01*
X77499256Y-45844486D01*
X77499248Y-45844488D01*
X77324087Y-45917042D01*
X77166441Y-46022377D01*
X77032377Y-46156441D01*
X76927042Y-46314087D01*
X76854488Y-46489248D01*
X76854486Y-46489256D01*
X76817500Y-46675197D01*
X76817500Y-46864802D01*
X76854486Y-47050743D01*
X76854488Y-47050751D01*
X76927042Y-47225912D01*
X77032377Y-47383558D01*
X77166441Y-47517622D01*
X77259795Y-47579999D01*
X77324085Y-47622956D01*
X77499249Y-47695512D01*
X77684473Y-47732355D01*
X77685197Y-47732499D01*
X77685201Y-47732500D01*
X77685202Y-47732500D01*
X77874799Y-47732500D01*
X77874800Y-47732499D01*
X78060751Y-47695512D01*
X78235915Y-47622956D01*
X78393558Y-47517622D01*
X78527622Y-47383558D01*
X78527625Y-47383552D01*
X78529645Y-47381093D01*
X78531034Y-47380146D01*
X78531930Y-47379251D01*
X78532099Y-47379420D01*
X78587391Y-47341757D01*
X78657235Y-47339886D01*
X78717004Y-47376072D01*
X78747721Y-47438827D01*
X78749500Y-47459756D01*
X78749500Y-48079562D01*
X78754591Y-48098560D01*
X78769979Y-48155990D01*
X78770288Y-48156525D01*
X78793073Y-48195989D01*
X78809539Y-48224509D01*
X78809541Y-48224512D01*
X79400276Y-48815247D01*
X79433761Y-48876570D01*
X79428777Y-48946262D01*
X79427156Y-48950380D01*
X79394489Y-49029244D01*
X79394486Y-49029256D01*
X79357500Y-49215197D01*
X79357500Y-49404802D01*
X79394486Y-49590743D01*
X79394488Y-49590751D01*
X79467042Y-49765912D01*
X79572377Y-49923558D01*
X79706441Y-50057622D01*
X79803362Y-50122382D01*
X79864085Y-50162956D01*
X80039249Y-50235512D01*
X80225197Y-50272499D01*
X80225201Y-50272500D01*
X80225202Y-50272500D01*
X80414799Y-50272500D01*
X80414800Y-50272499D01*
X80600751Y-50235512D01*
X80775915Y-50162956D01*
X80933558Y-50057622D01*
X81067622Y-49923558D01*
X81172956Y-49765915D01*
X81245512Y-49590751D01*
X81282500Y-49404798D01*
X81282500Y-49215202D01*
X81282499Y-49215199D01*
X81282499Y-49215197D01*
X81260677Y-49105488D01*
X81245512Y-49029249D01*
X81172956Y-48854085D01*
X81083500Y-48720205D01*
X81067622Y-48696441D01*
X80933558Y-48562377D01*
X80775912Y-48457042D01*
X80600751Y-48384488D01*
X80600743Y-48384486D01*
X80414802Y-48347500D01*
X80414798Y-48347500D01*
X80225202Y-48347500D01*
X80225197Y-48347500D01*
X80039256Y-48384486D01*
X80039244Y-48384489D01*
X79960380Y-48417156D01*
X79890911Y-48424625D01*
X79828432Y-48393350D01*
X79825247Y-48390276D01*
X79386819Y-47951848D01*
X79353334Y-47890525D01*
X79350500Y-47864167D01*
X79350500Y-47459756D01*
X79370185Y-47392717D01*
X79422989Y-47346962D01*
X79492147Y-47337018D01*
X79555703Y-47366043D01*
X79570355Y-47381093D01*
X79572382Y-47383563D01*
X79706441Y-47517622D01*
X79799795Y-47579999D01*
X79864085Y-47622956D01*
X80039249Y-47695512D01*
X80224473Y-47732355D01*
X80225197Y-47732499D01*
X80225201Y-47732500D01*
X80225202Y-47732500D01*
X80414799Y-47732500D01*
X80414800Y-47732499D01*
X80600751Y-47695512D01*
X80775915Y-47622956D01*
X80933558Y-47517622D01*
X81067622Y-47383558D01*
X81067625Y-47383552D01*
X81069645Y-47381093D01*
X81071034Y-47380146D01*
X81071930Y-47379251D01*
X81072099Y-47379420D01*
X81127391Y-47341757D01*
X81197235Y-47339886D01*
X81257004Y-47376072D01*
X81287721Y-47438827D01*
X81289500Y-47459756D01*
X81289500Y-48079562D01*
X81294591Y-48098560D01*
X81309979Y-48155990D01*
X81310288Y-48156525D01*
X81333073Y-48195989D01*
X81349539Y-48224509D01*
X81349541Y-48224512D01*
X81940276Y-48815247D01*
X81973761Y-48876570D01*
X81968777Y-48946262D01*
X81967156Y-48950380D01*
X81934489Y-49029244D01*
X81934486Y-49029256D01*
X81897500Y-49215197D01*
X81897500Y-49404802D01*
X81934486Y-49590743D01*
X81934488Y-49590751D01*
X82007042Y-49765912D01*
X82112377Y-49923558D01*
X82246441Y-50057622D01*
X82343362Y-50122382D01*
X82404085Y-50162956D01*
X82579249Y-50235512D01*
X82765197Y-50272499D01*
X82765201Y-50272500D01*
X82765202Y-50272500D01*
X82954799Y-50272500D01*
X82954800Y-50272499D01*
X83140751Y-50235512D01*
X83315915Y-50162956D01*
X83473558Y-50057622D01*
X83607622Y-49923558D01*
X83712956Y-49765915D01*
X83785512Y-49590751D01*
X83822500Y-49404798D01*
X83822500Y-49215202D01*
X83822499Y-49215199D01*
X83822499Y-49215197D01*
X83800677Y-49105488D01*
X83785512Y-49029249D01*
X83712956Y-48854085D01*
X83623500Y-48720205D01*
X83607622Y-48696441D01*
X83473558Y-48562377D01*
X83315912Y-48457042D01*
X83140751Y-48384488D01*
X83140743Y-48384486D01*
X82954802Y-48347500D01*
X82954798Y-48347500D01*
X82765202Y-48347500D01*
X82765197Y-48347500D01*
X82579256Y-48384486D01*
X82579244Y-48384489D01*
X82500380Y-48417156D01*
X82430911Y-48424625D01*
X82368432Y-48393350D01*
X82365247Y-48390276D01*
X81926819Y-47951848D01*
X81893334Y-47890525D01*
X81890500Y-47864167D01*
X81890500Y-47459756D01*
X81910185Y-47392717D01*
X81962989Y-47346962D01*
X82032147Y-47337018D01*
X82095703Y-47366043D01*
X82110355Y-47381093D01*
X82112382Y-47383563D01*
X82246441Y-47517622D01*
X82339795Y-47579999D01*
X82404085Y-47622956D01*
X82579249Y-47695512D01*
X82764473Y-47732355D01*
X82765197Y-47732499D01*
X82765201Y-47732500D01*
X82765202Y-47732500D01*
X82954799Y-47732500D01*
X82954800Y-47732499D01*
X83140751Y-47695512D01*
X83315915Y-47622956D01*
X83473558Y-47517622D01*
X83607622Y-47383558D01*
X83607625Y-47383552D01*
X83609645Y-47381093D01*
X83611034Y-47380146D01*
X83611930Y-47379251D01*
X83612099Y-47379420D01*
X83667391Y-47341757D01*
X83737235Y-47339886D01*
X83797004Y-47376072D01*
X83827721Y-47438827D01*
X83829500Y-47459756D01*
X83829500Y-48079562D01*
X83834591Y-48098560D01*
X83849979Y-48155990D01*
X83850288Y-48156525D01*
X83873073Y-48195989D01*
X83889539Y-48224509D01*
X83889541Y-48224512D01*
X84480276Y-48815247D01*
X84513761Y-48876570D01*
X84508777Y-48946262D01*
X84507156Y-48950380D01*
X84474489Y-49029244D01*
X84474486Y-49029256D01*
X84437500Y-49215197D01*
X84437500Y-49404802D01*
X84474486Y-49590743D01*
X84474488Y-49590751D01*
X84547042Y-49765912D01*
X84652377Y-49923558D01*
X84786441Y-50057622D01*
X84883362Y-50122382D01*
X84944085Y-50162956D01*
X85119249Y-50235512D01*
X85305197Y-50272499D01*
X85305201Y-50272500D01*
X85305202Y-50272500D01*
X85494799Y-50272500D01*
X85494800Y-50272499D01*
X85680751Y-50235512D01*
X85855915Y-50162956D01*
X86013558Y-50057622D01*
X86147622Y-49923558D01*
X86252956Y-49765915D01*
X86325512Y-49590751D01*
X86362500Y-49404798D01*
X86362500Y-49215202D01*
X86362499Y-49215199D01*
X86362499Y-49215197D01*
X86977500Y-49215197D01*
X86977500Y-49404802D01*
X87014486Y-49590743D01*
X87014488Y-49590751D01*
X87087042Y-49765912D01*
X87192377Y-49923558D01*
X87326441Y-50057622D01*
X87423362Y-50122382D01*
X87484085Y-50162956D01*
X87659249Y-50235512D01*
X87845197Y-50272499D01*
X87845201Y-50272500D01*
X87845202Y-50272500D01*
X88034799Y-50272500D01*
X88034800Y-50272499D01*
X88220751Y-50235512D01*
X88395915Y-50162956D01*
X88553558Y-50057622D01*
X88687622Y-49923558D01*
X88792956Y-49765915D01*
X88865512Y-49590751D01*
X88902500Y-49404798D01*
X88902500Y-49215202D01*
X88902499Y-49215199D01*
X88902499Y-49215197D01*
X89517500Y-49215197D01*
X89517500Y-49404802D01*
X89554486Y-49590743D01*
X89554488Y-49590751D01*
X89627042Y-49765912D01*
X89732377Y-49923558D01*
X89866441Y-50057622D01*
X89963362Y-50122382D01*
X90024085Y-50162956D01*
X90199249Y-50235512D01*
X90385197Y-50272499D01*
X90385201Y-50272500D01*
X90385202Y-50272500D01*
X90574799Y-50272500D01*
X90574800Y-50272499D01*
X90760751Y-50235512D01*
X90935915Y-50162956D01*
X91093558Y-50057622D01*
X91227622Y-49923558D01*
X91332956Y-49765915D01*
X91405512Y-49590751D01*
X91442500Y-49404798D01*
X91442500Y-49215202D01*
X91442499Y-49215199D01*
X91442499Y-49215197D01*
X92057500Y-49215197D01*
X92057500Y-49404802D01*
X92094486Y-49590743D01*
X92094488Y-49590751D01*
X92167042Y-49765912D01*
X92272377Y-49923558D01*
X92406441Y-50057622D01*
X92503362Y-50122382D01*
X92564085Y-50162956D01*
X92739249Y-50235512D01*
X92925197Y-50272499D01*
X92925201Y-50272500D01*
X92925202Y-50272500D01*
X93114799Y-50272500D01*
X93114800Y-50272499D01*
X93300751Y-50235512D01*
X93475915Y-50162956D01*
X93633558Y-50057622D01*
X93767622Y-49923558D01*
X93872956Y-49765915D01*
X93945512Y-49590751D01*
X93982500Y-49404798D01*
X93982500Y-49215202D01*
X93982499Y-49215199D01*
X93982499Y-49215197D01*
X93960677Y-49105488D01*
X93945512Y-49029249D01*
X93872956Y-48854085D01*
X93783500Y-48720205D01*
X93767622Y-48696441D01*
X93633558Y-48562377D01*
X93475912Y-48457042D01*
X93300751Y-48384488D01*
X93300743Y-48384486D01*
X93114802Y-48347500D01*
X93114798Y-48347500D01*
X92925202Y-48347500D01*
X92925197Y-48347500D01*
X92739256Y-48384486D01*
X92739248Y-48384488D01*
X92564087Y-48457042D01*
X92406441Y-48562377D01*
X92272377Y-48696441D01*
X92167042Y-48854087D01*
X92094488Y-49029248D01*
X92094486Y-49029256D01*
X92057500Y-49215197D01*
X91442499Y-49215197D01*
X91420677Y-49105488D01*
X91405512Y-49029249D01*
X91332956Y-48854085D01*
X91243500Y-48720205D01*
X91227622Y-48696441D01*
X91093558Y-48562377D01*
X90935912Y-48457042D01*
X90760751Y-48384488D01*
X90760743Y-48384486D01*
X90574802Y-48347500D01*
X90574798Y-48347500D01*
X90385202Y-48347500D01*
X90385197Y-48347500D01*
X90199256Y-48384486D01*
X90199248Y-48384488D01*
X90024087Y-48457042D01*
X89866441Y-48562377D01*
X89732377Y-48696441D01*
X89627042Y-48854087D01*
X89554488Y-49029248D01*
X89554486Y-49029256D01*
X89517500Y-49215197D01*
X88902499Y-49215197D01*
X88880677Y-49105488D01*
X88865512Y-49029249D01*
X88792956Y-48854085D01*
X88703500Y-48720205D01*
X88687622Y-48696441D01*
X88553558Y-48562377D01*
X88395912Y-48457042D01*
X88220751Y-48384488D01*
X88220743Y-48384486D01*
X88034802Y-48347500D01*
X88034798Y-48347500D01*
X87845202Y-48347500D01*
X87845197Y-48347500D01*
X87659256Y-48384486D01*
X87659248Y-48384488D01*
X87484087Y-48457042D01*
X87326441Y-48562377D01*
X87192377Y-48696441D01*
X87087042Y-48854087D01*
X87014488Y-49029248D01*
X87014486Y-49029256D01*
X86977500Y-49215197D01*
X86362499Y-49215197D01*
X86340677Y-49105488D01*
X86325512Y-49029249D01*
X86252956Y-48854085D01*
X86163500Y-48720205D01*
X86147622Y-48696441D01*
X86013558Y-48562377D01*
X85855912Y-48457042D01*
X85680751Y-48384488D01*
X85680743Y-48384486D01*
X85494802Y-48347500D01*
X85494798Y-48347500D01*
X85305202Y-48347500D01*
X85305197Y-48347500D01*
X85119256Y-48384486D01*
X85119244Y-48384489D01*
X85040380Y-48417156D01*
X84970911Y-48424625D01*
X84908432Y-48393350D01*
X84905247Y-48390276D01*
X84484119Y-47969148D01*
X84450634Y-47907825D01*
X84455618Y-47838133D01*
X84497490Y-47782200D01*
X84562954Y-47757783D01*
X84631227Y-47772635D01*
X84644686Y-47781149D01*
X84738567Y-47849358D01*
X84915562Y-47939542D01*
X85104477Y-48000924D01*
X85300679Y-48032000D01*
X85499321Y-48032000D01*
X85695520Y-48000924D01*
X85695523Y-48000924D01*
X85884437Y-47939542D01*
X86061425Y-47849362D01*
X86098715Y-47822268D01*
X85535942Y-47259495D01*
X85596081Y-47243381D01*
X85711920Y-47176502D01*
X85806502Y-47081920D01*
X85873381Y-46966081D01*
X85889495Y-46905942D01*
X86452268Y-47468715D01*
X86479362Y-47431425D01*
X86569542Y-47254437D01*
X86630924Y-47065523D01*
X86630924Y-47065520D01*
X86662000Y-46869321D01*
X86662000Y-46675197D01*
X86977500Y-46675197D01*
X86977500Y-46864802D01*
X87014486Y-47050743D01*
X87014488Y-47050751D01*
X87087042Y-47225912D01*
X87192377Y-47383558D01*
X87326441Y-47517622D01*
X87419795Y-47579999D01*
X87484085Y-47622956D01*
X87659249Y-47695512D01*
X87844473Y-47732355D01*
X87845197Y-47732499D01*
X87845201Y-47732500D01*
X87845202Y-47732500D01*
X88034799Y-47732500D01*
X88034800Y-47732499D01*
X88220751Y-47695512D01*
X88395915Y-47622956D01*
X88553558Y-47517622D01*
X88687622Y-47383558D01*
X88792956Y-47225915D01*
X88865512Y-47050751D01*
X88902500Y-46864798D01*
X88902500Y-46675202D01*
X88902499Y-46675199D01*
X88902499Y-46675197D01*
X89517500Y-46675197D01*
X89517500Y-46864802D01*
X89554486Y-47050743D01*
X89554488Y-47050751D01*
X89627042Y-47225912D01*
X89732377Y-47383558D01*
X89866441Y-47517622D01*
X89959795Y-47579999D01*
X90024085Y-47622956D01*
X90199249Y-47695512D01*
X90384473Y-47732355D01*
X90385197Y-47732499D01*
X90385201Y-47732500D01*
X90385202Y-47732500D01*
X90574799Y-47732500D01*
X90574800Y-47732499D01*
X90760751Y-47695512D01*
X90935915Y-47622956D01*
X91093558Y-47517622D01*
X91227622Y-47383558D01*
X91332956Y-47225915D01*
X91405512Y-47050751D01*
X91442500Y-46864798D01*
X91442500Y-46675202D01*
X91442500Y-46675201D01*
X91442500Y-46675199D01*
X91417574Y-46549889D01*
X91405512Y-46489249D01*
X91332956Y-46314085D01*
X91268004Y-46216878D01*
X91227622Y-46156441D01*
X91093558Y-46022377D01*
X90935912Y-45917042D01*
X90760751Y-45844488D01*
X90760743Y-45844486D01*
X90574802Y-45807500D01*
X90574798Y-45807500D01*
X90385202Y-45807500D01*
X90385197Y-45807500D01*
X90199256Y-45844486D01*
X90199248Y-45844488D01*
X90024087Y-45917042D01*
X89866441Y-46022377D01*
X89732377Y-46156441D01*
X89627042Y-46314087D01*
X89554488Y-46489248D01*
X89554486Y-46489256D01*
X89517500Y-46675197D01*
X88902499Y-46675197D01*
X88896236Y-46643709D01*
X88865512Y-46489249D01*
X88792956Y-46314085D01*
X88728004Y-46216878D01*
X88687622Y-46156441D01*
X88553558Y-46022377D01*
X88395912Y-45917042D01*
X88220751Y-45844488D01*
X88220743Y-45844486D01*
X88034802Y-45807500D01*
X88034798Y-45807500D01*
X87845202Y-45807500D01*
X87845197Y-45807500D01*
X87659256Y-45844486D01*
X87659248Y-45844488D01*
X87484087Y-45917042D01*
X87326441Y-46022377D01*
X87192377Y-46156441D01*
X87087042Y-46314087D01*
X87014488Y-46489248D01*
X87014486Y-46489256D01*
X86977500Y-46675197D01*
X86662000Y-46675197D01*
X86662000Y-46670678D01*
X86630924Y-46474479D01*
X86630924Y-46474476D01*
X86569542Y-46285562D01*
X86479358Y-46108567D01*
X86452268Y-46071283D01*
X85889494Y-46634057D01*
X85873381Y-46573919D01*
X85806502Y-46458080D01*
X85711920Y-46363498D01*
X85596081Y-46296619D01*
X85535941Y-46280504D01*
X86098715Y-45717730D01*
X86061432Y-45690641D01*
X85884437Y-45600457D01*
X85695522Y-45539075D01*
X85499321Y-45508000D01*
X85300679Y-45508000D01*
X85104479Y-45539075D01*
X85104476Y-45539075D01*
X84915562Y-45600457D01*
X84738564Y-45690643D01*
X84617177Y-45778836D01*
X84551371Y-45802316D01*
X84483317Y-45786491D01*
X84434622Y-45736385D01*
X84424519Y-45710617D01*
X84410021Y-45656511D01*
X84382259Y-45608425D01*
X84370464Y-45587995D01*
X84370458Y-45587987D01*
X79726652Y-40944181D01*
X79693167Y-40882858D01*
X79698151Y-40813166D01*
X79740023Y-40757233D01*
X79805487Y-40732816D01*
X79814333Y-40732500D01*
X79904799Y-40732500D01*
X79904800Y-40732499D01*
X80090751Y-40695512D01*
X80265915Y-40622956D01*
X80423558Y-40517622D01*
X80557622Y-40383558D01*
X80662956Y-40225915D01*
X80735512Y-40050751D01*
X80772500Y-39864798D01*
X80772500Y-39675202D01*
X80735512Y-39489249D01*
X80662956Y-39314085D01*
X80609779Y-39234500D01*
X80557622Y-39156441D01*
X80423558Y-39022377D01*
X80265912Y-38917042D01*
X80090751Y-38844488D01*
X80090743Y-38844486D01*
X79904802Y-38807500D01*
X79904798Y-38807500D01*
X79715202Y-38807500D01*
X79715197Y-38807500D01*
X79529256Y-38844486D01*
X79529248Y-38844488D01*
X79354087Y-38917042D01*
X79196441Y-39022377D01*
X79062380Y-39156438D01*
X79062377Y-39156442D01*
X79046602Y-39180052D01*
X79022413Y-39200266D01*
X78999426Y-39221833D01*
X78995810Y-39222499D01*
X78992990Y-39224857D01*
X78961714Y-39228785D01*
X78930714Y-39234500D01*
X78927311Y-39233105D01*
X78923665Y-39233564D01*
X78895231Y-39219960D01*
X78866062Y-39208008D01*
X78863954Y-39204996D01*
X78860638Y-39203410D01*
X78844069Y-39176588D01*
X78825996Y-39150768D01*
X78825228Y-39146088D01*
X78823918Y-39143967D01*
X78819597Y-39116059D01*
X78819500Y-39113605D01*
X78819500Y-39024438D01*
X78818948Y-39022378D01*
X78799022Y-38948012D01*
X78759460Y-38879489D01*
X78017511Y-38137540D01*
X78017510Y-38137539D01*
X77971153Y-38110775D01*
X77922938Y-38060207D01*
X77909716Y-37991600D01*
X77935684Y-37926736D01*
X77945465Y-37915714D01*
X78017622Y-37843558D01*
X78122956Y-37685915D01*
X78195512Y-37510751D01*
X78232500Y-37324798D01*
X78232500Y-37135202D01*
X78232499Y-37135197D01*
X78847500Y-37135197D01*
X78847500Y-37324802D01*
X78884486Y-37510743D01*
X78884488Y-37510751D01*
X78957042Y-37685912D01*
X79062377Y-37843558D01*
X79196441Y-37977622D01*
X79227152Y-37998142D01*
X79354085Y-38082956D01*
X79529249Y-38155512D01*
X79715197Y-38192499D01*
X79715201Y-38192500D01*
X79715202Y-38192500D01*
X79904799Y-38192500D01*
X79904800Y-38192499D01*
X80090751Y-38155512D01*
X80090765Y-38155505D01*
X80096183Y-38153863D01*
X80166050Y-38153234D01*
X80219869Y-38184840D01*
X80668540Y-38633511D01*
X80724489Y-38689460D01*
X80724491Y-38689461D01*
X80724495Y-38689464D01*
X80793004Y-38729017D01*
X80793011Y-38729021D01*
X80869438Y-38749500D01*
X81736059Y-38749500D01*
X81803098Y-38769185D01*
X81848853Y-38821989D01*
X81858797Y-38891147D01*
X81829772Y-38954703D01*
X81804950Y-38976602D01*
X81736444Y-39022376D01*
X81736438Y-39022380D01*
X81602377Y-39156441D01*
X81497042Y-39314087D01*
X81424488Y-39489248D01*
X81424486Y-39489256D01*
X81387500Y-39675197D01*
X81387500Y-39864802D01*
X81424486Y-40050743D01*
X81424488Y-40050751D01*
X81497042Y-40225912D01*
X81602377Y-40383558D01*
X81736441Y-40517622D01*
X81841300Y-40587686D01*
X81894085Y-40622956D01*
X82069249Y-40695512D01*
X82227054Y-40726901D01*
X82255197Y-40732499D01*
X82255201Y-40732500D01*
X82255202Y-40732500D01*
X82444799Y-40732500D01*
X82444800Y-40732499D01*
X82630751Y-40695512D01*
X82805915Y-40622956D01*
X82963558Y-40517622D01*
X83097622Y-40383558D01*
X83202956Y-40225915D01*
X83275512Y-40050751D01*
X83312500Y-39864798D01*
X83312500Y-39675202D01*
X83275512Y-39489249D01*
X83202956Y-39314085D01*
X83149779Y-39234500D01*
X83097622Y-39156441D01*
X82963561Y-39022380D01*
X82963556Y-39022376D01*
X82895050Y-38976602D01*
X82850245Y-38922990D01*
X82841538Y-38853665D01*
X82871692Y-38790637D01*
X82931135Y-38753918D01*
X82963941Y-38749500D01*
X84276059Y-38749500D01*
X84343098Y-38769185D01*
X84388853Y-38821989D01*
X84398797Y-38891147D01*
X84369772Y-38954703D01*
X84344950Y-38976602D01*
X84276444Y-39022376D01*
X84276438Y-39022380D01*
X84142377Y-39156441D01*
X84037042Y-39314087D01*
X83964488Y-39489248D01*
X83964486Y-39489256D01*
X83927500Y-39675197D01*
X83927500Y-39864802D01*
X83964486Y-40050743D01*
X83964488Y-40050751D01*
X84037042Y-40225912D01*
X84142377Y-40383558D01*
X84276441Y-40517622D01*
X84381300Y-40587686D01*
X84434085Y-40622956D01*
X84609249Y-40695512D01*
X84767054Y-40726901D01*
X84795197Y-40732499D01*
X84795201Y-40732500D01*
X84795202Y-40732500D01*
X84984799Y-40732500D01*
X84984800Y-40732499D01*
X85170751Y-40695512D01*
X85345915Y-40622956D01*
X85503558Y-40517622D01*
X85637622Y-40383558D01*
X85742956Y-40225915D01*
X85815512Y-40050751D01*
X85852500Y-39864798D01*
X85852500Y-39675202D01*
X85815512Y-39489249D01*
X85742956Y-39314085D01*
X85741696Y-39311043D01*
X85734227Y-39241574D01*
X85765502Y-39179094D01*
X85825591Y-39143442D01*
X85895416Y-39145936D01*
X85943938Y-39175909D01*
X86583181Y-39815152D01*
X86616666Y-39876475D01*
X86619500Y-39902833D01*
X86619500Y-43689562D01*
X86633152Y-43740513D01*
X86639979Y-43765990D01*
X86639982Y-43765995D01*
X86679535Y-43834504D01*
X86679539Y-43834509D01*
X86679540Y-43834511D01*
X88179540Y-45334511D01*
X88235489Y-45390460D01*
X88235491Y-45390461D01*
X88235495Y-45390464D01*
X88304004Y-45430017D01*
X88304011Y-45430021D01*
X88380438Y-45450500D01*
X92313374Y-45450500D01*
X92380413Y-45470185D01*
X92426168Y-45522989D01*
X92436112Y-45592147D01*
X92407087Y-45655703D01*
X92369668Y-45684985D01*
X92358566Y-45690641D01*
X92321283Y-45717729D01*
X92321282Y-45717730D01*
X92884057Y-46280505D01*
X92823919Y-46296619D01*
X92708080Y-46363498D01*
X92613498Y-46458080D01*
X92546619Y-46573919D01*
X92530504Y-46634057D01*
X91967730Y-46071282D01*
X91967729Y-46071283D01*
X91940643Y-46108564D01*
X91850457Y-46285562D01*
X91789075Y-46474476D01*
X91789075Y-46474479D01*
X91758000Y-46670678D01*
X91758000Y-46869321D01*
X91789075Y-47065520D01*
X91789075Y-47065523D01*
X91850457Y-47254437D01*
X91940641Y-47431432D01*
X91967730Y-47468715D01*
X92530504Y-46905941D01*
X92546619Y-46966081D01*
X92613498Y-47081920D01*
X92708080Y-47176502D01*
X92823919Y-47243381D01*
X92884056Y-47259494D01*
X92321283Y-47822268D01*
X92321283Y-47822269D01*
X92358567Y-47849358D01*
X92535562Y-47939542D01*
X92724477Y-48000924D01*
X92920679Y-48032000D01*
X93119321Y-48032000D01*
X93315520Y-48000924D01*
X93315523Y-48000924D01*
X93504437Y-47939542D01*
X93681432Y-47849358D01*
X93762614Y-47790376D01*
X93828420Y-47766896D01*
X93896474Y-47782721D01*
X93945169Y-47832827D01*
X93959500Y-47890694D01*
X93959500Y-48119562D01*
X93979979Y-48195988D01*
X93979978Y-48195988D01*
X93983322Y-48201778D01*
X93983325Y-48201790D01*
X93983328Y-48201789D01*
X94015624Y-48257729D01*
X94019539Y-48264509D01*
X94019541Y-48264512D01*
X94619773Y-48864744D01*
X94653258Y-48926067D01*
X94648274Y-48995759D01*
X94646655Y-48999874D01*
X94634489Y-49029248D01*
X94634487Y-49029252D01*
X94634485Y-49029256D01*
X94597500Y-49215197D01*
X94597500Y-49404802D01*
X94634486Y-49590743D01*
X94634488Y-49590751D01*
X94707042Y-49765912D01*
X94812377Y-49923558D01*
X94946441Y-50057622D01*
X95043362Y-50122382D01*
X95104085Y-50162956D01*
X95279249Y-50235512D01*
X95465197Y-50272499D01*
X95465201Y-50272500D01*
X95465202Y-50272500D01*
X95654799Y-50272500D01*
X95654800Y-50272499D01*
X95840751Y-50235512D01*
X96015915Y-50162956D01*
X96173558Y-50057622D01*
X96307622Y-49923558D01*
X96412956Y-49765915D01*
X96485512Y-49590751D01*
X96522500Y-49404798D01*
X96522500Y-49215202D01*
X96522500Y-49215201D01*
X96522500Y-49215199D01*
X96521601Y-49210678D01*
X96838000Y-49210678D01*
X96838000Y-49409321D01*
X96869075Y-49605520D01*
X96869075Y-49605523D01*
X96930457Y-49794437D01*
X97020641Y-49971432D01*
X97047730Y-50008715D01*
X97610504Y-49445941D01*
X97626619Y-49506081D01*
X97693498Y-49621920D01*
X97788080Y-49716502D01*
X97903919Y-49783381D01*
X97964057Y-49799494D01*
X97401283Y-50362268D01*
X97401283Y-50362269D01*
X97438567Y-50389358D01*
X97615562Y-50479542D01*
X97804477Y-50540924D01*
X98000679Y-50572000D01*
X98199321Y-50572000D01*
X98395520Y-50540924D01*
X98395523Y-50540924D01*
X98584437Y-50479542D01*
X98761425Y-50389362D01*
X98798716Y-50362268D01*
X98235942Y-49799494D01*
X98296081Y-49783381D01*
X98411920Y-49716502D01*
X98506502Y-49621920D01*
X98573381Y-49506081D01*
X98589495Y-49445942D01*
X99152268Y-50008715D01*
X99179362Y-49971425D01*
X99269542Y-49794437D01*
X99330924Y-49605523D01*
X99330924Y-49605520D01*
X99362000Y-49409321D01*
X99362000Y-49215197D01*
X99677500Y-49215197D01*
X99677500Y-49404802D01*
X99714486Y-49590743D01*
X99714488Y-49590751D01*
X99787042Y-49765912D01*
X99892377Y-49923558D01*
X100026441Y-50057622D01*
X100123362Y-50122382D01*
X100184085Y-50162956D01*
X100359249Y-50235512D01*
X100545197Y-50272499D01*
X100545201Y-50272500D01*
X100545202Y-50272500D01*
X100734799Y-50272500D01*
X100734800Y-50272499D01*
X100920751Y-50235512D01*
X101095915Y-50162956D01*
X101253558Y-50057622D01*
X101387622Y-49923558D01*
X101492956Y-49765915D01*
X101565512Y-49590751D01*
X101602500Y-49404798D01*
X101602500Y-49215202D01*
X101602499Y-49215199D01*
X101602499Y-49215197D01*
X102217500Y-49215197D01*
X102217500Y-49404802D01*
X102254486Y-49590743D01*
X102254488Y-49590751D01*
X102327042Y-49765912D01*
X102432377Y-49923558D01*
X102566441Y-50057622D01*
X102663362Y-50122382D01*
X102724085Y-50162956D01*
X102899249Y-50235512D01*
X103085197Y-50272499D01*
X103085201Y-50272500D01*
X103085202Y-50272500D01*
X103274799Y-50272500D01*
X103274800Y-50272499D01*
X103460751Y-50235512D01*
X103635915Y-50162956D01*
X103793558Y-50057622D01*
X103927622Y-49923558D01*
X104032956Y-49765915D01*
X104105512Y-49590751D01*
X104142500Y-49404798D01*
X104142500Y-49215202D01*
X104142499Y-49215199D01*
X104142499Y-49215197D01*
X104757500Y-49215197D01*
X104757500Y-49404802D01*
X104794486Y-49590743D01*
X104794488Y-49590751D01*
X104867042Y-49765912D01*
X104972377Y-49923558D01*
X105106441Y-50057622D01*
X105203362Y-50122382D01*
X105264085Y-50162956D01*
X105439249Y-50235512D01*
X105625197Y-50272499D01*
X105625201Y-50272500D01*
X105625202Y-50272500D01*
X105814799Y-50272500D01*
X105814800Y-50272499D01*
X106000751Y-50235512D01*
X106175915Y-50162956D01*
X106333558Y-50057622D01*
X106467622Y-49923558D01*
X106572956Y-49765915D01*
X106645512Y-49590751D01*
X106682500Y-49404798D01*
X106682500Y-49215202D01*
X106682499Y-49215199D01*
X106682499Y-49215197D01*
X106660677Y-49105488D01*
X106645512Y-49029249D01*
X106572956Y-48854085D01*
X106483500Y-48720205D01*
X106467622Y-48696441D01*
X106333558Y-48562377D01*
X106282479Y-48528247D01*
X107297500Y-48528247D01*
X107297500Y-50091752D01*
X107309131Y-50150229D01*
X107309132Y-50150230D01*
X107353447Y-50216552D01*
X107419769Y-50260867D01*
X107419770Y-50260868D01*
X107478247Y-50272499D01*
X107478250Y-50272500D01*
X107478252Y-50272500D01*
X109041750Y-50272500D01*
X109041751Y-50272499D01*
X109056568Y-50269552D01*
X109100229Y-50260868D01*
X109100229Y-50260867D01*
X109100231Y-50260867D01*
X109166552Y-50216552D01*
X109210867Y-50150231D01*
X109210867Y-50150229D01*
X109210868Y-50150229D01*
X109222499Y-50091752D01*
X109222500Y-50091750D01*
X109222500Y-48528249D01*
X109222499Y-48528247D01*
X109210868Y-48469770D01*
X109210867Y-48469769D01*
X109166552Y-48403447D01*
X109100230Y-48359132D01*
X109100229Y-48359131D01*
X109041752Y-48347500D01*
X109041748Y-48347500D01*
X107478252Y-48347500D01*
X107478247Y-48347500D01*
X107419770Y-48359131D01*
X107419769Y-48359132D01*
X107353447Y-48403447D01*
X107309132Y-48469769D01*
X107309131Y-48469770D01*
X107297500Y-48528247D01*
X106282479Y-48528247D01*
X106175912Y-48457042D01*
X106000751Y-48384488D01*
X106000743Y-48384486D01*
X105814802Y-48347500D01*
X105814798Y-48347500D01*
X105625202Y-48347500D01*
X105625197Y-48347500D01*
X105439256Y-48384486D01*
X105439248Y-48384488D01*
X105264087Y-48457042D01*
X105106441Y-48562377D01*
X104972377Y-48696441D01*
X104867042Y-48854087D01*
X104794488Y-49029248D01*
X104794486Y-49029256D01*
X104757500Y-49215197D01*
X104142499Y-49215197D01*
X104120677Y-49105488D01*
X104105512Y-49029249D01*
X104032956Y-48854085D01*
X103943500Y-48720205D01*
X103927622Y-48696441D01*
X103793558Y-48562377D01*
X103635912Y-48457042D01*
X103460751Y-48384488D01*
X103460743Y-48384486D01*
X103274802Y-48347500D01*
X103274798Y-48347500D01*
X103085202Y-48347500D01*
X103085197Y-48347500D01*
X102899256Y-48384486D01*
X102899248Y-48384488D01*
X102724087Y-48457042D01*
X102566441Y-48562377D01*
X102432377Y-48696441D01*
X102327042Y-48854087D01*
X102254488Y-49029248D01*
X102254486Y-49029256D01*
X102217500Y-49215197D01*
X101602499Y-49215197D01*
X101580677Y-49105488D01*
X101565512Y-49029249D01*
X101492956Y-48854085D01*
X101403500Y-48720205D01*
X101387622Y-48696441D01*
X101253558Y-48562377D01*
X101095912Y-48457042D01*
X100920751Y-48384488D01*
X100920743Y-48384486D01*
X100734802Y-48347500D01*
X100734798Y-48347500D01*
X100545202Y-48347500D01*
X100545197Y-48347500D01*
X100359256Y-48384486D01*
X100359248Y-48384488D01*
X100184087Y-48457042D01*
X100026441Y-48562377D01*
X99892377Y-48696441D01*
X99787042Y-48854087D01*
X99714488Y-49029248D01*
X99714486Y-49029256D01*
X99677500Y-49215197D01*
X99362000Y-49215197D01*
X99362000Y-49210678D01*
X99330924Y-49014479D01*
X99330924Y-49014476D01*
X99269542Y-48825562D01*
X99179358Y-48648567D01*
X99152268Y-48611283D01*
X98589494Y-49174057D01*
X98573381Y-49113919D01*
X98506502Y-48998080D01*
X98411920Y-48903498D01*
X98296081Y-48836619D01*
X98235942Y-48820504D01*
X98798716Y-48257731D01*
X98798715Y-48257730D01*
X98761432Y-48230641D01*
X98584437Y-48140457D01*
X98395522Y-48079075D01*
X98199321Y-48048000D01*
X98000679Y-48048000D01*
X97804479Y-48079075D01*
X97804476Y-48079075D01*
X97615562Y-48140457D01*
X97438564Y-48230643D01*
X97401283Y-48257729D01*
X97401282Y-48257730D01*
X97964058Y-48820504D01*
X97903919Y-48836619D01*
X97788080Y-48903498D01*
X97693498Y-48998080D01*
X97626619Y-49113919D01*
X97610504Y-49174057D01*
X97047730Y-48611282D01*
X97047729Y-48611283D01*
X97020643Y-48648564D01*
X96930457Y-48825562D01*
X96869075Y-49014476D01*
X96869075Y-49014479D01*
X96838000Y-49210678D01*
X96521601Y-49210678D01*
X96485513Y-49029256D01*
X96485512Y-49029249D01*
X96412956Y-48854085D01*
X96323500Y-48720205D01*
X96307622Y-48696441D01*
X96173558Y-48562377D01*
X96015912Y-48457042D01*
X95925400Y-48419551D01*
X95840751Y-48384488D01*
X95840743Y-48384486D01*
X95654802Y-48347500D01*
X95654798Y-48347500D01*
X95465202Y-48347500D01*
X95465197Y-48347500D01*
X95279256Y-48384486D01*
X95279248Y-48384488D01*
X95150884Y-48437659D01*
X95081415Y-48445128D01*
X95018935Y-48413853D01*
X95015750Y-48410779D01*
X94596819Y-47991848D01*
X94563334Y-47930525D01*
X94560500Y-47904167D01*
X94560500Y-47415369D01*
X94580185Y-47348330D01*
X94632989Y-47302575D01*
X94702147Y-47292631D01*
X94765703Y-47321656D01*
X94787601Y-47346476D01*
X94797990Y-47362025D01*
X94812379Y-47383560D01*
X94946441Y-47517622D01*
X95039795Y-47579999D01*
X95104085Y-47622956D01*
X95279249Y-47695512D01*
X95464473Y-47732355D01*
X95465197Y-47732499D01*
X95465201Y-47732500D01*
X95465202Y-47732500D01*
X95654799Y-47732500D01*
X95654800Y-47732499D01*
X95840751Y-47695512D01*
X96015915Y-47622956D01*
X96173558Y-47517622D01*
X96307622Y-47383558D01*
X96412956Y-47225915D01*
X96485512Y-47050751D01*
X96522500Y-46864798D01*
X96522500Y-46675202D01*
X96522499Y-46675199D01*
X96522499Y-46675197D01*
X97137500Y-46675197D01*
X97137500Y-46864802D01*
X97174486Y-47050743D01*
X97174488Y-47050751D01*
X97247042Y-47225912D01*
X97352377Y-47383558D01*
X97486441Y-47517622D01*
X97579795Y-47579999D01*
X97644085Y-47622956D01*
X97819249Y-47695512D01*
X98004473Y-47732355D01*
X98005197Y-47732499D01*
X98005201Y-47732500D01*
X98005202Y-47732500D01*
X98194799Y-47732500D01*
X98194800Y-47732499D01*
X98380751Y-47695512D01*
X98555915Y-47622956D01*
X98713558Y-47517622D01*
X98847622Y-47383558D01*
X98952956Y-47225915D01*
X99025512Y-47050751D01*
X99062500Y-46864798D01*
X99062500Y-46675202D01*
X99062499Y-46675199D01*
X99062499Y-46675197D01*
X99677500Y-46675197D01*
X99677500Y-46864802D01*
X99714486Y-47050743D01*
X99714488Y-47050751D01*
X99787042Y-47225912D01*
X99892377Y-47383558D01*
X100026441Y-47517622D01*
X100119795Y-47579999D01*
X100184085Y-47622956D01*
X100359249Y-47695512D01*
X100544473Y-47732355D01*
X100545197Y-47732499D01*
X100545201Y-47732500D01*
X100545202Y-47732500D01*
X100734799Y-47732500D01*
X100734800Y-47732499D01*
X100920751Y-47695512D01*
X101095915Y-47622956D01*
X101253558Y-47517622D01*
X101387622Y-47383558D01*
X101492956Y-47225915D01*
X101565512Y-47050751D01*
X101602500Y-46864798D01*
X101602500Y-46675202D01*
X101602500Y-46675201D01*
X101602500Y-46675199D01*
X101601601Y-46670678D01*
X101918000Y-46670678D01*
X101918000Y-46869321D01*
X101949075Y-47065520D01*
X101949075Y-47065523D01*
X102010457Y-47254437D01*
X102100641Y-47431432D01*
X102127730Y-47468715D01*
X102127731Y-47468716D01*
X102690504Y-46905942D01*
X102706619Y-46966081D01*
X102773498Y-47081920D01*
X102868080Y-47176502D01*
X102983919Y-47243381D01*
X103044057Y-47259494D01*
X102481283Y-47822268D01*
X102481283Y-47822269D01*
X102518567Y-47849358D01*
X102695562Y-47939542D01*
X102884477Y-48000924D01*
X103080679Y-48032000D01*
X103279321Y-48032000D01*
X103475520Y-48000924D01*
X103475523Y-48000924D01*
X103664437Y-47939542D01*
X103813260Y-47863713D01*
X112598500Y-47863713D01*
X112598500Y-48076287D01*
X112599019Y-48079562D01*
X112631753Y-48286239D01*
X112631753Y-48286241D01*
X112631754Y-48286243D01*
X112691385Y-48469769D01*
X112697444Y-48488414D01*
X112793951Y-48677820D01*
X112918890Y-48849786D01*
X113069213Y-49000109D01*
X113241179Y-49125048D01*
X113241181Y-49125049D01*
X113241184Y-49125051D01*
X113430588Y-49221557D01*
X113632757Y-49287246D01*
X113842713Y-49320500D01*
X113842714Y-49320500D01*
X114055286Y-49320500D01*
X114055287Y-49320500D01*
X114265243Y-49287246D01*
X114467412Y-49221557D01*
X114656816Y-49125051D01*
X114683744Y-49105487D01*
X114828786Y-49000109D01*
X114828788Y-49000106D01*
X114828792Y-49000104D01*
X114979104Y-48849792D01*
X114979106Y-48849788D01*
X114979109Y-48849786D01*
X115088086Y-48699789D01*
X115104051Y-48677816D01*
X115200557Y-48488412D01*
X115266246Y-48286243D01*
X115299500Y-48076287D01*
X115299500Y-47863713D01*
X115266246Y-47653757D01*
X115214152Y-47493428D01*
X147265000Y-47493428D01*
X147265000Y-47666571D01*
X147292085Y-47837584D01*
X147345592Y-48002259D01*
X147424196Y-48156525D01*
X147428709Y-48162736D01*
X147428709Y-48162737D01*
X148010000Y-47581446D01*
X148010000Y-47626737D01*
X148034193Y-47717025D01*
X148080930Y-47797975D01*
X148147025Y-47864070D01*
X148227975Y-47910807D01*
X148318263Y-47935000D01*
X148363553Y-47935000D01*
X147782261Y-48516289D01*
X147782262Y-48516290D01*
X147788471Y-48520801D01*
X147942742Y-48599408D01*
X148107415Y-48652914D01*
X148278429Y-48680000D01*
X148451571Y-48680000D01*
X148622584Y-48652914D01*
X148787257Y-48599408D01*
X148941525Y-48520803D01*
X148947736Y-48516289D01*
X148947737Y-48516289D01*
X148366448Y-47935000D01*
X148411737Y-47935000D01*
X148502025Y-47910807D01*
X148582975Y-47864070D01*
X148649070Y-47797975D01*
X148695807Y-47717025D01*
X148720000Y-47626737D01*
X148720000Y-47581448D01*
X149301289Y-48162737D01*
X149301289Y-48162736D01*
X149305803Y-48156525D01*
X149384409Y-48002253D01*
X149407603Y-47930870D01*
X149447040Y-47873194D01*
X149511398Y-47845995D01*
X149580244Y-47857909D01*
X149631721Y-47905153D01*
X149640095Y-47921733D01*
X149655603Y-47959172D01*
X149655606Y-47959178D01*
X149655609Y-47959185D01*
X149743210Y-48090288D01*
X149743213Y-48090292D01*
X149854707Y-48201786D01*
X149854711Y-48201789D01*
X149985814Y-48289390D01*
X149985827Y-48289397D01*
X150126102Y-48347500D01*
X150131503Y-48349737D01*
X150286153Y-48380499D01*
X150286156Y-48380500D01*
X150286158Y-48380500D01*
X150443844Y-48380500D01*
X150443845Y-48380499D01*
X150598497Y-48349737D01*
X150744179Y-48289394D01*
X150875289Y-48201789D01*
X150986789Y-48090289D01*
X151074394Y-47959179D01*
X151134737Y-47813497D01*
X151165500Y-47658842D01*
X151165500Y-47501158D01*
X151165500Y-47501155D01*
X151165499Y-47501153D01*
X151564500Y-47501153D01*
X151564500Y-47658846D01*
X151595261Y-47813489D01*
X151595264Y-47813501D01*
X151655602Y-47959172D01*
X151655609Y-47959185D01*
X151743210Y-48090288D01*
X151743213Y-48090292D01*
X151854707Y-48201786D01*
X151854711Y-48201789D01*
X151985814Y-48289390D01*
X151985827Y-48289397D01*
X152126102Y-48347500D01*
X152131503Y-48349737D01*
X152286153Y-48380499D01*
X152286156Y-48380500D01*
X152286158Y-48380500D01*
X152443844Y-48380500D01*
X152443845Y-48380499D01*
X152598497Y-48349737D01*
X152744179Y-48289394D01*
X152875289Y-48201789D01*
X152986789Y-48090289D01*
X153074394Y-47959179D01*
X153134737Y-47813497D01*
X153165500Y-47658842D01*
X153165500Y-47501158D01*
X153165500Y-47501155D01*
X153165499Y-47501153D01*
X153564500Y-47501153D01*
X153564500Y-47658846D01*
X153595261Y-47813489D01*
X153595264Y-47813501D01*
X153655602Y-47959172D01*
X153655609Y-47959185D01*
X153743210Y-48090288D01*
X153743213Y-48090292D01*
X153854707Y-48201786D01*
X153854711Y-48201789D01*
X153985814Y-48289390D01*
X153985827Y-48289397D01*
X154126102Y-48347500D01*
X154131503Y-48349737D01*
X154286153Y-48380499D01*
X154286156Y-48380500D01*
X154286158Y-48380500D01*
X154443844Y-48380500D01*
X154443845Y-48380499D01*
X154598497Y-48349737D01*
X154744179Y-48289394D01*
X154875289Y-48201789D01*
X154986789Y-48090289D01*
X155074394Y-47959179D01*
X155134737Y-47813497D01*
X155165500Y-47658842D01*
X155165500Y-47501158D01*
X155165500Y-47501155D01*
X155165499Y-47501153D01*
X155564500Y-47501153D01*
X155564500Y-47658846D01*
X155595261Y-47813489D01*
X155595264Y-47813501D01*
X155655602Y-47959172D01*
X155655609Y-47959185D01*
X155743210Y-48090288D01*
X155743213Y-48090292D01*
X155854707Y-48201786D01*
X155854711Y-48201789D01*
X155985814Y-48289390D01*
X155985827Y-48289397D01*
X156126102Y-48347500D01*
X156131503Y-48349737D01*
X156286153Y-48380499D01*
X156286156Y-48380500D01*
X156286158Y-48380500D01*
X156443844Y-48380500D01*
X156443845Y-48380499D01*
X156598497Y-48349737D01*
X156744179Y-48289394D01*
X156875289Y-48201789D01*
X156986789Y-48090289D01*
X157074394Y-47959179D01*
X157134737Y-47813497D01*
X157165500Y-47658842D01*
X157165500Y-47501158D01*
X157165500Y-47501155D01*
X157165499Y-47501153D01*
X157564500Y-47501153D01*
X157564500Y-47658846D01*
X157595261Y-47813489D01*
X157595264Y-47813501D01*
X157655602Y-47959172D01*
X157655609Y-47959185D01*
X157743210Y-48090288D01*
X157743213Y-48090292D01*
X157854707Y-48201786D01*
X157854711Y-48201789D01*
X157985814Y-48289390D01*
X157985827Y-48289397D01*
X158126102Y-48347500D01*
X158131503Y-48349737D01*
X158286153Y-48380499D01*
X158286156Y-48380500D01*
X158286158Y-48380500D01*
X158443844Y-48380500D01*
X158443845Y-48380499D01*
X158598497Y-48349737D01*
X158744179Y-48289394D01*
X158875289Y-48201789D01*
X158986789Y-48090289D01*
X159074394Y-47959179D01*
X159134737Y-47813497D01*
X159165500Y-47658842D01*
X159165500Y-47501158D01*
X159165500Y-47501155D01*
X159165499Y-47501153D01*
X159564500Y-47501153D01*
X159564500Y-47658846D01*
X159595261Y-47813489D01*
X159595264Y-47813501D01*
X159655602Y-47959172D01*
X159655609Y-47959185D01*
X159743210Y-48090288D01*
X159743213Y-48090292D01*
X159854707Y-48201786D01*
X159854711Y-48201789D01*
X159985814Y-48289390D01*
X159985827Y-48289397D01*
X160126102Y-48347500D01*
X160131503Y-48349737D01*
X160286153Y-48380499D01*
X160286156Y-48380500D01*
X160286158Y-48380500D01*
X160443844Y-48380500D01*
X160443845Y-48380499D01*
X160598497Y-48349737D01*
X160744179Y-48289394D01*
X160875289Y-48201789D01*
X160986789Y-48090289D01*
X161074394Y-47959179D01*
X161134737Y-47813497D01*
X161165500Y-47658842D01*
X161165500Y-47501158D01*
X161165500Y-47501155D01*
X161165499Y-47501153D01*
X161564500Y-47501153D01*
X161564500Y-47658846D01*
X161595261Y-47813489D01*
X161595264Y-47813501D01*
X161655602Y-47959172D01*
X161655609Y-47959185D01*
X161743210Y-48090288D01*
X161743213Y-48090292D01*
X161854707Y-48201786D01*
X161854711Y-48201789D01*
X161985814Y-48289390D01*
X161985827Y-48289397D01*
X162126102Y-48347500D01*
X162131503Y-48349737D01*
X162286153Y-48380499D01*
X162286156Y-48380500D01*
X162286158Y-48380500D01*
X162443844Y-48380500D01*
X162443845Y-48380499D01*
X162598497Y-48349737D01*
X162744179Y-48289394D01*
X162875289Y-48201789D01*
X162986789Y-48090289D01*
X163074394Y-47959179D01*
X163134737Y-47813497D01*
X163165500Y-47658842D01*
X163165500Y-47501158D01*
X163165500Y-47501155D01*
X163165499Y-47501153D01*
X163564500Y-47501153D01*
X163564500Y-47658846D01*
X163595261Y-47813489D01*
X163595264Y-47813501D01*
X163655602Y-47959172D01*
X163655609Y-47959185D01*
X163743210Y-48090288D01*
X163743213Y-48090292D01*
X163854707Y-48201786D01*
X163854711Y-48201789D01*
X163985814Y-48289390D01*
X163985827Y-48289397D01*
X164126102Y-48347500D01*
X164131503Y-48349737D01*
X164286153Y-48380499D01*
X164286156Y-48380500D01*
X164286158Y-48380500D01*
X164443844Y-48380500D01*
X164443845Y-48380499D01*
X164598497Y-48349737D01*
X164744179Y-48289394D01*
X164875289Y-48201789D01*
X164986789Y-48090289D01*
X165074394Y-47959179D01*
X165134737Y-47813497D01*
X165165500Y-47658842D01*
X165165500Y-47501158D01*
X165165500Y-47501155D01*
X165165499Y-47501153D01*
X165564500Y-47501153D01*
X165564500Y-47658846D01*
X165595261Y-47813489D01*
X165595264Y-47813501D01*
X165655602Y-47959172D01*
X165655609Y-47959185D01*
X165743210Y-48090288D01*
X165743213Y-48090292D01*
X165854707Y-48201786D01*
X165854711Y-48201789D01*
X165985814Y-48289390D01*
X165985827Y-48289397D01*
X166126102Y-48347500D01*
X166131503Y-48349737D01*
X166286153Y-48380499D01*
X166286156Y-48380500D01*
X166286158Y-48380500D01*
X166443844Y-48380500D01*
X166443845Y-48380499D01*
X166598497Y-48349737D01*
X166744179Y-48289394D01*
X166875289Y-48201789D01*
X166986789Y-48090289D01*
X167074394Y-47959179D01*
X167134737Y-47813497D01*
X167165500Y-47658842D01*
X167165500Y-47501158D01*
X167165500Y-47501155D01*
X167165499Y-47501153D01*
X167159047Y-47468715D01*
X167134737Y-47346503D01*
X167130808Y-47337018D01*
X167074397Y-47200827D01*
X167074390Y-47200814D01*
X166986789Y-47069711D01*
X166986786Y-47069707D01*
X166875292Y-46958213D01*
X166875288Y-46958210D01*
X166744185Y-46870609D01*
X166744172Y-46870602D01*
X166598501Y-46810264D01*
X166598489Y-46810261D01*
X166443845Y-46779500D01*
X166443842Y-46779500D01*
X166286158Y-46779500D01*
X166286155Y-46779500D01*
X166131510Y-46810261D01*
X166131498Y-46810264D01*
X165985827Y-46870602D01*
X165985814Y-46870609D01*
X165854711Y-46958210D01*
X165854707Y-46958213D01*
X165743213Y-47069707D01*
X165743210Y-47069711D01*
X165655609Y-47200814D01*
X165655602Y-47200827D01*
X165595264Y-47346498D01*
X165595261Y-47346510D01*
X165564500Y-47501153D01*
X165165499Y-47501153D01*
X165159047Y-47468715D01*
X165134737Y-47346503D01*
X165130808Y-47337018D01*
X165074397Y-47200827D01*
X165074390Y-47200814D01*
X164986789Y-47069711D01*
X164986786Y-47069707D01*
X164875292Y-46958213D01*
X164875288Y-46958210D01*
X164744185Y-46870609D01*
X164744172Y-46870602D01*
X164598501Y-46810264D01*
X164598489Y-46810261D01*
X164443845Y-46779500D01*
X164443842Y-46779500D01*
X164286158Y-46779500D01*
X164286155Y-46779500D01*
X164131510Y-46810261D01*
X164131498Y-46810264D01*
X163985827Y-46870602D01*
X163985814Y-46870609D01*
X163854711Y-46958210D01*
X163854707Y-46958213D01*
X163743213Y-47069707D01*
X163743210Y-47069711D01*
X163655609Y-47200814D01*
X163655602Y-47200827D01*
X163595264Y-47346498D01*
X163595261Y-47346510D01*
X163564500Y-47501153D01*
X163165499Y-47501153D01*
X163159047Y-47468715D01*
X163134737Y-47346503D01*
X163130808Y-47337018D01*
X163074397Y-47200827D01*
X163074390Y-47200814D01*
X162986789Y-47069711D01*
X162986786Y-47069707D01*
X162875292Y-46958213D01*
X162875288Y-46958210D01*
X162744185Y-46870609D01*
X162744172Y-46870602D01*
X162598501Y-46810264D01*
X162598489Y-46810261D01*
X162443845Y-46779500D01*
X162443842Y-46779500D01*
X162286158Y-46779500D01*
X162286155Y-46779500D01*
X162131510Y-46810261D01*
X162131498Y-46810264D01*
X161985827Y-46870602D01*
X161985814Y-46870609D01*
X161854711Y-46958210D01*
X161854707Y-46958213D01*
X161743213Y-47069707D01*
X161743210Y-47069711D01*
X161655609Y-47200814D01*
X161655602Y-47200827D01*
X161595264Y-47346498D01*
X161595261Y-47346510D01*
X161564500Y-47501153D01*
X161165499Y-47501153D01*
X161159047Y-47468715D01*
X161134737Y-47346503D01*
X161130808Y-47337018D01*
X161074397Y-47200827D01*
X161074390Y-47200814D01*
X160986789Y-47069711D01*
X160986786Y-47069707D01*
X160875292Y-46958213D01*
X160875288Y-46958210D01*
X160744185Y-46870609D01*
X160744172Y-46870602D01*
X160598501Y-46810264D01*
X160598489Y-46810261D01*
X160443845Y-46779500D01*
X160443842Y-46779500D01*
X160286158Y-46779500D01*
X160286155Y-46779500D01*
X160131510Y-46810261D01*
X160131498Y-46810264D01*
X159985827Y-46870602D01*
X159985814Y-46870609D01*
X159854711Y-46958210D01*
X159854707Y-46958213D01*
X159743213Y-47069707D01*
X159743210Y-47069711D01*
X159655609Y-47200814D01*
X159655602Y-47200827D01*
X159595264Y-47346498D01*
X159595261Y-47346510D01*
X159564500Y-47501153D01*
X159165499Y-47501153D01*
X159159047Y-47468715D01*
X159134737Y-47346503D01*
X159130808Y-47337018D01*
X159074397Y-47200827D01*
X159074390Y-47200814D01*
X158986789Y-47069711D01*
X158986786Y-47069707D01*
X158875292Y-46958213D01*
X158875288Y-46958210D01*
X158744185Y-46870609D01*
X158744172Y-46870602D01*
X158598501Y-46810264D01*
X158598489Y-46810261D01*
X158443845Y-46779500D01*
X158443842Y-46779500D01*
X158286158Y-46779500D01*
X158286155Y-46779500D01*
X158131510Y-46810261D01*
X158131498Y-46810264D01*
X157985827Y-46870602D01*
X157985814Y-46870609D01*
X157854711Y-46958210D01*
X157854707Y-46958213D01*
X157743213Y-47069707D01*
X157743210Y-47069711D01*
X157655609Y-47200814D01*
X157655602Y-47200827D01*
X157595264Y-47346498D01*
X157595261Y-47346510D01*
X157564500Y-47501153D01*
X157165499Y-47501153D01*
X157159047Y-47468715D01*
X157134737Y-47346503D01*
X157130808Y-47337018D01*
X157074397Y-47200827D01*
X157074390Y-47200814D01*
X156986789Y-47069711D01*
X156986786Y-47069707D01*
X156875292Y-46958213D01*
X156875288Y-46958210D01*
X156744185Y-46870609D01*
X156744172Y-46870602D01*
X156598501Y-46810264D01*
X156598489Y-46810261D01*
X156443845Y-46779500D01*
X156443842Y-46779500D01*
X156286158Y-46779500D01*
X156286155Y-46779500D01*
X156131510Y-46810261D01*
X156131498Y-46810264D01*
X155985827Y-46870602D01*
X155985814Y-46870609D01*
X155854711Y-46958210D01*
X155854707Y-46958213D01*
X155743213Y-47069707D01*
X155743210Y-47069711D01*
X155655609Y-47200814D01*
X155655602Y-47200827D01*
X155595264Y-47346498D01*
X155595261Y-47346510D01*
X155564500Y-47501153D01*
X155165499Y-47501153D01*
X155159047Y-47468715D01*
X155134737Y-47346503D01*
X155130808Y-47337018D01*
X155074397Y-47200827D01*
X155074390Y-47200814D01*
X154986789Y-47069711D01*
X154986786Y-47069707D01*
X154875292Y-46958213D01*
X154875288Y-46958210D01*
X154744185Y-46870609D01*
X154744172Y-46870602D01*
X154598501Y-46810264D01*
X154598489Y-46810261D01*
X154443845Y-46779500D01*
X154443842Y-46779500D01*
X154286158Y-46779500D01*
X154286155Y-46779500D01*
X154131510Y-46810261D01*
X154131498Y-46810264D01*
X153985827Y-46870602D01*
X153985814Y-46870609D01*
X153854711Y-46958210D01*
X153854707Y-46958213D01*
X153743213Y-47069707D01*
X153743210Y-47069711D01*
X153655609Y-47200814D01*
X153655602Y-47200827D01*
X153595264Y-47346498D01*
X153595261Y-47346510D01*
X153564500Y-47501153D01*
X153165499Y-47501153D01*
X153159047Y-47468715D01*
X153134737Y-47346503D01*
X153130808Y-47337018D01*
X153074397Y-47200827D01*
X153074390Y-47200814D01*
X152986789Y-47069711D01*
X152986786Y-47069707D01*
X152875292Y-46958213D01*
X152875288Y-46958210D01*
X152744185Y-46870609D01*
X152744172Y-46870602D01*
X152598501Y-46810264D01*
X152598489Y-46810261D01*
X152443845Y-46779500D01*
X152443842Y-46779500D01*
X152286158Y-46779500D01*
X152286155Y-46779500D01*
X152131510Y-46810261D01*
X152131498Y-46810264D01*
X151985827Y-46870602D01*
X151985814Y-46870609D01*
X151854711Y-46958210D01*
X151854707Y-46958213D01*
X151743213Y-47069707D01*
X151743210Y-47069711D01*
X151655609Y-47200814D01*
X151655602Y-47200827D01*
X151595264Y-47346498D01*
X151595261Y-47346510D01*
X151564500Y-47501153D01*
X151165499Y-47501153D01*
X151159047Y-47468715D01*
X151134737Y-47346503D01*
X151130808Y-47337018D01*
X151074397Y-47200827D01*
X151074390Y-47200814D01*
X150986789Y-47069711D01*
X150986786Y-47069707D01*
X150875292Y-46958213D01*
X150875288Y-46958210D01*
X150744185Y-46870609D01*
X150744172Y-46870602D01*
X150598501Y-46810264D01*
X150598489Y-46810261D01*
X150443845Y-46779500D01*
X150443842Y-46779500D01*
X150286158Y-46779500D01*
X150286155Y-46779500D01*
X150131510Y-46810261D01*
X150131498Y-46810264D01*
X149985827Y-46870602D01*
X149985814Y-46870609D01*
X149854711Y-46958210D01*
X149854707Y-46958213D01*
X149743213Y-47069707D01*
X149743210Y-47069711D01*
X149655609Y-47200814D01*
X149655603Y-47200826D01*
X149640094Y-47238267D01*
X149596252Y-47292670D01*
X149529957Y-47314733D01*
X149462258Y-47297453D01*
X149414649Y-47246314D01*
X149407603Y-47229130D01*
X149384408Y-47157744D01*
X149305801Y-47003471D01*
X149301290Y-46997262D01*
X149301289Y-46997261D01*
X148720000Y-47578551D01*
X148720000Y-47533263D01*
X148695807Y-47442975D01*
X148649070Y-47362025D01*
X148582975Y-47295930D01*
X148502025Y-47249193D01*
X148411737Y-47225000D01*
X148366447Y-47225000D01*
X148947737Y-46643709D01*
X148941525Y-46639196D01*
X148787259Y-46560592D01*
X148622584Y-46507085D01*
X148451571Y-46480000D01*
X148278429Y-46480000D01*
X148107415Y-46507085D01*
X147942740Y-46560592D01*
X147788480Y-46639193D01*
X147788463Y-46639203D01*
X147782261Y-46643708D01*
X147782261Y-46643709D01*
X148363554Y-47225000D01*
X148318263Y-47225000D01*
X148227975Y-47249193D01*
X148147025Y-47295930D01*
X148080930Y-47362025D01*
X148034193Y-47442975D01*
X148010000Y-47533263D01*
X148010000Y-47578552D01*
X147428709Y-46997261D01*
X147428708Y-46997261D01*
X147424203Y-47003463D01*
X147424193Y-47003480D01*
X147345592Y-47157740D01*
X147292085Y-47322415D01*
X147265000Y-47493428D01*
X115214152Y-47493428D01*
X115200557Y-47451588D01*
X115200555Y-47451585D01*
X115200555Y-47451583D01*
X115119564Y-47292631D01*
X115104051Y-47262184D01*
X115104049Y-47262181D01*
X115104048Y-47262179D01*
X114979109Y-47090213D01*
X114828786Y-46939890D01*
X114656817Y-46814949D01*
X114630325Y-46801451D01*
X114467412Y-46718443D01*
X114265243Y-46652754D01*
X114265241Y-46652753D01*
X114265240Y-46652753D01*
X114103957Y-46627208D01*
X114055287Y-46619500D01*
X113842713Y-46619500D01*
X113794042Y-46627208D01*
X113632760Y-46652753D01*
X113430585Y-46718444D01*
X113241179Y-46814951D01*
X113069213Y-46939890D01*
X112918890Y-47090213D01*
X112793951Y-47262179D01*
X112697444Y-47451585D01*
X112631753Y-47653760D01*
X112601306Y-47845995D01*
X112598500Y-47863713D01*
X103813260Y-47863713D01*
X103841425Y-47849362D01*
X103878715Y-47822268D01*
X103315942Y-47259494D01*
X103376081Y-47243381D01*
X103491920Y-47176502D01*
X103586502Y-47081920D01*
X103653381Y-46966081D01*
X103669495Y-46905942D01*
X104232268Y-47468715D01*
X104259362Y-47431425D01*
X104349542Y-47254437D01*
X104410924Y-47065523D01*
X104410924Y-47065520D01*
X104442000Y-46869321D01*
X104442000Y-46675197D01*
X104757500Y-46675197D01*
X104757500Y-46864802D01*
X104794486Y-47050743D01*
X104794488Y-47050751D01*
X104867042Y-47225912D01*
X104972377Y-47383558D01*
X105106441Y-47517622D01*
X105199795Y-47579999D01*
X105264085Y-47622956D01*
X105439249Y-47695512D01*
X105624473Y-47732355D01*
X105625197Y-47732499D01*
X105625201Y-47732500D01*
X105625202Y-47732500D01*
X105814799Y-47732500D01*
X105814800Y-47732499D01*
X106000751Y-47695512D01*
X106175915Y-47622956D01*
X106333558Y-47517622D01*
X106467622Y-47383558D01*
X106572956Y-47225915D01*
X106645512Y-47050751D01*
X106682500Y-46864798D01*
X106682500Y-46675202D01*
X106682499Y-46675199D01*
X106682499Y-46675197D01*
X107297500Y-46675197D01*
X107297500Y-46864802D01*
X107334486Y-47050743D01*
X107334488Y-47050751D01*
X107407042Y-47225912D01*
X107512377Y-47383558D01*
X107646441Y-47517622D01*
X107739795Y-47579999D01*
X107804085Y-47622956D01*
X107979249Y-47695512D01*
X108164473Y-47732355D01*
X108165197Y-47732499D01*
X108165201Y-47732500D01*
X108165202Y-47732500D01*
X108354799Y-47732500D01*
X108354800Y-47732499D01*
X108540751Y-47695512D01*
X108715915Y-47622956D01*
X108873558Y-47517622D01*
X109007622Y-47383558D01*
X109112956Y-47225915D01*
X109185512Y-47050751D01*
X109222500Y-46864798D01*
X109222500Y-46675202D01*
X109222499Y-46675199D01*
X109222499Y-46675197D01*
X109216236Y-46643709D01*
X109185512Y-46489249D01*
X109112956Y-46314085D01*
X109048004Y-46216878D01*
X109007622Y-46156441D01*
X108873558Y-46022377D01*
X108715912Y-45917042D01*
X108540751Y-45844488D01*
X108540743Y-45844486D01*
X108354802Y-45807500D01*
X108354798Y-45807500D01*
X108165202Y-45807500D01*
X108165197Y-45807500D01*
X107979256Y-45844486D01*
X107979248Y-45844488D01*
X107804087Y-45917042D01*
X107646441Y-46022377D01*
X107512377Y-46156441D01*
X107407042Y-46314087D01*
X107334488Y-46489248D01*
X107334486Y-46489256D01*
X107297500Y-46675197D01*
X106682499Y-46675197D01*
X106676236Y-46643709D01*
X106645512Y-46489249D01*
X106572956Y-46314085D01*
X106508004Y-46216878D01*
X106467622Y-46156441D01*
X106333558Y-46022377D01*
X106175912Y-45917042D01*
X106000751Y-45844488D01*
X106000743Y-45844486D01*
X105814802Y-45807500D01*
X105814798Y-45807500D01*
X105625202Y-45807500D01*
X105625197Y-45807500D01*
X105439256Y-45844486D01*
X105439248Y-45844488D01*
X105264087Y-45917042D01*
X105106441Y-46022377D01*
X104972377Y-46156441D01*
X104867042Y-46314087D01*
X104794488Y-46489248D01*
X104794486Y-46489256D01*
X104757500Y-46675197D01*
X104442000Y-46675197D01*
X104442000Y-46670678D01*
X104410924Y-46474479D01*
X104410924Y-46474476D01*
X104349542Y-46285562D01*
X104259358Y-46108567D01*
X104232268Y-46071283D01*
X103669494Y-46634057D01*
X103653381Y-46573919D01*
X103586502Y-46458080D01*
X103491920Y-46363498D01*
X103376081Y-46296619D01*
X103315942Y-46280504D01*
X103878716Y-45717731D01*
X103878715Y-45717730D01*
X103841432Y-45690641D01*
X103664437Y-45600457D01*
X103475522Y-45539075D01*
X103279321Y-45508000D01*
X103080679Y-45508000D01*
X102884479Y-45539075D01*
X102884476Y-45539075D01*
X102695562Y-45600457D01*
X102518564Y-45690643D01*
X102481283Y-45717729D01*
X102481282Y-45717730D01*
X103044058Y-46280504D01*
X102983919Y-46296619D01*
X102868080Y-46363498D01*
X102773498Y-46458080D01*
X102706619Y-46573919D01*
X102690504Y-46634057D01*
X102127730Y-46071282D01*
X102127729Y-46071283D01*
X102100643Y-46108564D01*
X102010457Y-46285562D01*
X101949075Y-46474476D01*
X101949075Y-46474479D01*
X101918000Y-46670678D01*
X101601601Y-46670678D01*
X101577574Y-46549889D01*
X101565512Y-46489249D01*
X101492956Y-46314085D01*
X101428004Y-46216878D01*
X101387622Y-46156441D01*
X101253558Y-46022377D01*
X101095912Y-45917042D01*
X101005400Y-45879551D01*
X100920751Y-45844488D01*
X100920743Y-45844486D01*
X100734802Y-45807500D01*
X100734798Y-45807500D01*
X100545202Y-45807500D01*
X100545197Y-45807500D01*
X100359256Y-45844486D01*
X100359248Y-45844488D01*
X100184087Y-45917042D01*
X100026441Y-46022377D01*
X99892377Y-46156441D01*
X99787042Y-46314087D01*
X99714488Y-46489248D01*
X99714486Y-46489256D01*
X99677500Y-46675197D01*
X99062499Y-46675197D01*
X99056236Y-46643709D01*
X99025512Y-46489249D01*
X98952956Y-46314085D01*
X98888004Y-46216878D01*
X98847622Y-46156441D01*
X98713558Y-46022377D01*
X98555912Y-45917042D01*
X98380751Y-45844488D01*
X98380743Y-45844486D01*
X98194802Y-45807500D01*
X98194798Y-45807500D01*
X98005202Y-45807500D01*
X98005197Y-45807500D01*
X97819256Y-45844486D01*
X97819248Y-45844488D01*
X97644087Y-45917042D01*
X97486441Y-46022377D01*
X97352377Y-46156441D01*
X97247042Y-46314087D01*
X97174488Y-46489248D01*
X97174486Y-46489256D01*
X97137500Y-46675197D01*
X96522499Y-46675197D01*
X96516236Y-46643709D01*
X96485512Y-46489249D01*
X96412956Y-46314085D01*
X96348004Y-46216878D01*
X96307622Y-46156441D01*
X96173558Y-46022377D01*
X96015912Y-45917042D01*
X95840751Y-45844488D01*
X95840743Y-45844486D01*
X95654802Y-45807500D01*
X95654798Y-45807500D01*
X95465202Y-45807500D01*
X95465197Y-45807500D01*
X95279256Y-45844486D01*
X95279248Y-45844488D01*
X95104087Y-45917042D01*
X94946441Y-46022377D01*
X94812380Y-46156438D01*
X94812377Y-46156442D01*
X94787602Y-46193521D01*
X94733989Y-46238326D01*
X94664664Y-46247033D01*
X94601637Y-46216878D01*
X94564918Y-46157435D01*
X94560500Y-46124630D01*
X94560500Y-45840439D01*
X94555423Y-45821492D01*
X94540021Y-45764011D01*
X94540017Y-45764004D01*
X94500464Y-45695495D01*
X94500458Y-45695487D01*
X93714511Y-44909540D01*
X93714391Y-44909471D01*
X93699698Y-44900988D01*
X93687238Y-44893794D01*
X93645994Y-44869981D01*
X93645991Y-44869979D01*
X93607775Y-44859739D01*
X93569562Y-44849500D01*
X93569560Y-44849500D01*
X88595833Y-44849500D01*
X88528794Y-44829815D01*
X88508152Y-44813181D01*
X87256819Y-43561848D01*
X87223334Y-43500525D01*
X87220500Y-43474167D01*
X87220500Y-39687439D01*
X87217220Y-39675197D01*
X87200021Y-39611011D01*
X87196465Y-39604851D01*
X87160464Y-39542495D01*
X87160458Y-39542487D01*
X85826512Y-38208541D01*
X85826504Y-38208535D01*
X85757995Y-38168982D01*
X85757990Y-38168979D01*
X85732513Y-38162152D01*
X85681562Y-38148500D01*
X85681560Y-38148500D01*
X85632043Y-38148500D01*
X85565004Y-38128815D01*
X85519249Y-38076011D01*
X85509305Y-38006853D01*
X85538330Y-37943297D01*
X85544362Y-37936819D01*
X85637619Y-37843561D01*
X85637622Y-37843558D01*
X85706078Y-37741106D01*
X85742956Y-37685915D01*
X85815512Y-37510751D01*
X85852500Y-37324798D01*
X85852500Y-37135202D01*
X85815512Y-36949249D01*
X85742956Y-36774085D01*
X85707686Y-36721300D01*
X85637622Y-36616441D01*
X85503558Y-36482377D01*
X85345912Y-36377042D01*
X85170751Y-36304488D01*
X85170743Y-36304486D01*
X84984802Y-36267500D01*
X84984798Y-36267500D01*
X84795202Y-36267500D01*
X84795197Y-36267500D01*
X84609256Y-36304486D01*
X84609248Y-36304488D01*
X84434087Y-36377042D01*
X84276441Y-36482377D01*
X84142377Y-36616441D01*
X84037042Y-36774087D01*
X83964488Y-36949248D01*
X83964486Y-36949256D01*
X83927500Y-37135197D01*
X83927500Y-37324802D01*
X83964486Y-37510743D01*
X83964488Y-37510751D01*
X84037042Y-37685912D01*
X84142377Y-37843558D01*
X84235638Y-37936819D01*
X84269123Y-37998142D01*
X84264139Y-38067834D01*
X84222267Y-38123767D01*
X84156803Y-38148184D01*
X84147957Y-38148500D01*
X83092043Y-38148500D01*
X83025004Y-38128815D01*
X82979249Y-38076011D01*
X82969305Y-38006853D01*
X82998330Y-37943297D01*
X83004362Y-37936819D01*
X83097619Y-37843561D01*
X83097622Y-37843558D01*
X83166078Y-37741106D01*
X83202956Y-37685915D01*
X83275512Y-37510751D01*
X83312500Y-37324798D01*
X83312500Y-37135202D01*
X83275512Y-36949249D01*
X83202956Y-36774085D01*
X83167686Y-36721300D01*
X83097622Y-36616441D01*
X82963558Y-36482377D01*
X82805912Y-36377042D01*
X82630751Y-36304488D01*
X82630743Y-36304486D01*
X82444802Y-36267500D01*
X82444798Y-36267500D01*
X82255202Y-36267500D01*
X82255197Y-36267500D01*
X82069256Y-36304486D01*
X82069248Y-36304488D01*
X81894087Y-36377042D01*
X81736441Y-36482377D01*
X81602377Y-36616441D01*
X81497042Y-36774087D01*
X81424488Y-36949248D01*
X81424486Y-36949256D01*
X81387500Y-37135197D01*
X81387500Y-37324802D01*
X81424486Y-37510743D01*
X81424488Y-37510751D01*
X81497042Y-37685912D01*
X81602377Y-37843558D01*
X81695638Y-37936819D01*
X81729123Y-37998142D01*
X81724139Y-38067834D01*
X81682267Y-38123767D01*
X81616803Y-38148184D01*
X81607957Y-38148500D01*
X81084833Y-38148500D01*
X81017794Y-38128815D01*
X80997152Y-38112181D01*
X80694575Y-37809604D01*
X80661090Y-37748281D01*
X80666074Y-37678589D01*
X80667654Y-37674571D01*
X80735512Y-37510751D01*
X80772500Y-37324798D01*
X80772500Y-37135202D01*
X80735512Y-36949249D01*
X80662956Y-36774085D01*
X80627686Y-36721300D01*
X80557622Y-36616441D01*
X80423558Y-36482377D01*
X80265912Y-36377042D01*
X80090751Y-36304488D01*
X80090743Y-36304486D01*
X79904802Y-36267500D01*
X79904798Y-36267500D01*
X79715202Y-36267500D01*
X79715197Y-36267500D01*
X79529256Y-36304486D01*
X79529248Y-36304488D01*
X79354087Y-36377042D01*
X79196441Y-36482377D01*
X79062377Y-36616441D01*
X78957042Y-36774087D01*
X78884488Y-36949248D01*
X78884486Y-36949256D01*
X78847500Y-37135197D01*
X78232499Y-37135197D01*
X78195512Y-36949249D01*
X78122956Y-36774085D01*
X78087686Y-36721300D01*
X78017622Y-36616441D01*
X77883558Y-36482377D01*
X77725912Y-36377042D01*
X77550751Y-36304488D01*
X77550743Y-36304486D01*
X77364802Y-36267500D01*
X77364798Y-36267500D01*
X77175202Y-36267500D01*
X77175197Y-36267500D01*
X76989256Y-36304486D01*
X76989248Y-36304488D01*
X76814087Y-36377042D01*
X76656441Y-36482377D01*
X76522377Y-36616441D01*
X76417042Y-36774087D01*
X76344488Y-36949248D01*
X76344486Y-36949256D01*
X76307500Y-37135197D01*
X76307500Y-37324802D01*
X76344486Y-37510743D01*
X76344488Y-37510751D01*
X76417042Y-37685912D01*
X76522377Y-37843558D01*
X76544638Y-37865819D01*
X76578123Y-37927142D01*
X76573139Y-37996834D01*
X76531267Y-38052767D01*
X76465803Y-38077184D01*
X76456957Y-38077500D01*
X75543043Y-38077500D01*
X75476004Y-38057815D01*
X75430249Y-38005011D01*
X75420305Y-37935853D01*
X75449330Y-37872297D01*
X75455362Y-37865819D01*
X75477619Y-37843561D01*
X75477622Y-37843558D01*
X75546078Y-37741106D01*
X75582956Y-37685915D01*
X75655512Y-37510751D01*
X75692500Y-37324798D01*
X75692500Y-37135202D01*
X75655512Y-36949249D01*
X75582956Y-36774085D01*
X75547686Y-36721300D01*
X75477622Y-36616441D01*
X75343558Y-36482377D01*
X75185912Y-36377042D01*
X75010751Y-36304488D01*
X75010743Y-36304486D01*
X74824802Y-36267500D01*
X74824798Y-36267500D01*
X74635202Y-36267500D01*
X74635197Y-36267500D01*
X74449256Y-36304486D01*
X74449248Y-36304488D01*
X74274087Y-36377042D01*
X74116441Y-36482377D01*
X73982377Y-36616441D01*
X73877042Y-36774087D01*
X73804488Y-36949248D01*
X73804486Y-36949256D01*
X73767500Y-37135197D01*
X73767500Y-37324802D01*
X73804486Y-37510743D01*
X73804488Y-37510751D01*
X73877042Y-37685912D01*
X73982377Y-37843558D01*
X74004638Y-37865819D01*
X74038123Y-37927142D01*
X74033139Y-37996834D01*
X73991267Y-38052767D01*
X73925803Y-38077184D01*
X73916957Y-38077500D01*
X73393833Y-38077500D01*
X73326794Y-38057815D01*
X73306152Y-38041181D01*
X73074575Y-37809604D01*
X73041090Y-37748281D01*
X73046074Y-37678589D01*
X73047654Y-37674571D01*
X73115512Y-37510751D01*
X73152500Y-37324798D01*
X73152500Y-37135202D01*
X73115512Y-36949249D01*
X73042956Y-36774085D01*
X73007686Y-36721300D01*
X72937622Y-36616441D01*
X72803558Y-36482377D01*
X72645912Y-36377042D01*
X72470751Y-36304488D01*
X72470743Y-36304486D01*
X72284802Y-36267500D01*
X72284798Y-36267500D01*
X72095202Y-36267500D01*
X72095197Y-36267500D01*
X71909256Y-36304486D01*
X71909248Y-36304488D01*
X71734087Y-36377042D01*
X71576441Y-36482377D01*
X71442377Y-36616441D01*
X71337042Y-36774087D01*
X71264488Y-36949248D01*
X71264486Y-36949256D01*
X71227500Y-37135197D01*
X71227500Y-37324802D01*
X71264486Y-37510743D01*
X71264488Y-37510751D01*
X71337042Y-37685912D01*
X71442377Y-37843558D01*
X71576441Y-37977622D01*
X71607152Y-37998142D01*
X71734085Y-38082956D01*
X71909249Y-38155512D01*
X72095197Y-38192499D01*
X72095201Y-38192500D01*
X72095202Y-38192500D01*
X72284799Y-38192500D01*
X72284800Y-38192499D01*
X72470751Y-38155512D01*
X72470765Y-38155505D01*
X72476183Y-38153863D01*
X72546050Y-38153234D01*
X72599869Y-38184840D01*
X72977540Y-38562511D01*
X73033489Y-38618460D01*
X73033491Y-38618461D01*
X73033495Y-38618464D01*
X73059558Y-38633511D01*
X73102011Y-38658021D01*
X73178438Y-38678500D01*
X73257562Y-38678500D01*
X74226590Y-38678500D01*
X74293629Y-38698185D01*
X74339384Y-38750989D01*
X74349328Y-38820147D01*
X74320303Y-38883703D01*
X74279071Y-38913436D01*
X74279463Y-38914169D01*
X74274087Y-38917042D01*
X74116441Y-39022377D01*
X73982377Y-39156441D01*
X73877042Y-39314087D01*
X73804488Y-39489248D01*
X73804486Y-39489256D01*
X73767500Y-39675197D01*
X73767500Y-39864802D01*
X73804486Y-40050743D01*
X73804488Y-40050751D01*
X73877042Y-40225912D01*
X73982377Y-40383558D01*
X74116441Y-40517622D01*
X74221300Y-40587686D01*
X74274085Y-40622956D01*
X74449249Y-40695512D01*
X74607054Y-40726901D01*
X74635197Y-40732499D01*
X74635201Y-40732500D01*
X74635202Y-40732500D01*
X74824799Y-40732500D01*
X74824800Y-40732499D01*
X75010751Y-40695512D01*
X75185915Y-40622956D01*
X75343558Y-40517622D01*
X75343561Y-40517619D01*
X75422424Y-40438757D01*
X75483747Y-40405272D01*
X75553439Y-40410256D01*
X75597786Y-40438757D01*
X80847513Y-45688484D01*
X80880998Y-45749807D01*
X80876014Y-45819499D01*
X80834142Y-45875432D01*
X80768678Y-45899849D01*
X80712379Y-45890726D01*
X80600751Y-45844488D01*
X80600743Y-45844486D01*
X80414802Y-45807500D01*
X80414798Y-45807500D01*
X80225202Y-45807500D01*
X80225197Y-45807500D01*
X80039256Y-45844486D01*
X80039244Y-45844489D01*
X79960380Y-45877156D01*
X79890911Y-45884625D01*
X79828432Y-45853350D01*
X79825247Y-45850276D01*
X76121312Y-42146341D01*
X76121304Y-42146335D01*
X76052795Y-42106782D01*
X76052790Y-42106779D01*
X76027313Y-42099952D01*
X75976362Y-42086300D01*
X75976360Y-42086300D01*
X74862633Y-42086300D01*
X74795594Y-42066615D01*
X74774952Y-42049981D01*
X73074575Y-40349604D01*
X73041090Y-40288281D01*
X73046074Y-40218589D01*
X73047654Y-40214571D01*
X73115512Y-40050751D01*
X73152500Y-39864798D01*
X73152500Y-39675202D01*
X73115512Y-39489249D01*
X73042956Y-39314085D01*
X72989779Y-39234500D01*
X72937622Y-39156441D01*
X72803558Y-39022377D01*
X72645912Y-38917042D01*
X72470751Y-38844488D01*
X72470743Y-38844486D01*
X72284802Y-38807500D01*
X72284798Y-38807500D01*
X72095202Y-38807500D01*
X72095197Y-38807500D01*
X71909256Y-38844486D01*
X71909248Y-38844488D01*
X71734087Y-38917042D01*
X71576441Y-39022377D01*
X71442380Y-39156438D01*
X71442377Y-39156442D01*
X71362802Y-39275535D01*
X71309190Y-39320340D01*
X71239865Y-39329047D01*
X71176837Y-39298893D01*
X71140118Y-39239449D01*
X71135700Y-39206644D01*
X71135700Y-38495639D01*
X71115220Y-38419209D01*
X71115217Y-38419204D01*
X71075664Y-38350695D01*
X71075658Y-38350687D01*
X70534575Y-37809604D01*
X70501090Y-37748281D01*
X70506074Y-37678589D01*
X70507654Y-37674571D01*
X70575512Y-37510751D01*
X70612500Y-37324798D01*
X70612500Y-37135202D01*
X70575512Y-36949249D01*
X70502956Y-36774085D01*
X70467686Y-36721300D01*
X70397622Y-36616441D01*
X70263558Y-36482377D01*
X70105912Y-36377042D01*
X69930751Y-36304488D01*
X69930743Y-36304486D01*
X69744802Y-36267500D01*
X69744798Y-36267500D01*
X69555202Y-36267500D01*
X69555197Y-36267500D01*
X69369256Y-36304486D01*
X69369248Y-36304488D01*
X69194087Y-36377042D01*
X69036441Y-36482377D01*
X68902377Y-36616441D01*
X68797042Y-36774087D01*
X68724488Y-36949248D01*
X68724486Y-36949256D01*
X68687500Y-37135197D01*
X68687500Y-37324802D01*
X68724486Y-37510743D01*
X68724488Y-37510751D01*
X68797042Y-37685912D01*
X68902377Y-37843558D01*
X69036441Y-37977622D01*
X69067152Y-37998142D01*
X69194085Y-38082956D01*
X69369249Y-38155512D01*
X69555197Y-38192499D01*
X69555201Y-38192500D01*
X69555202Y-38192500D01*
X69744799Y-38192500D01*
X69744800Y-38192499D01*
X69930751Y-38155512D01*
X69930765Y-38155505D01*
X69936183Y-38153863D01*
X70006050Y-38153234D01*
X70059869Y-38184840D01*
X70498381Y-38623352D01*
X70531866Y-38684675D01*
X70534700Y-38711033D01*
X70534700Y-38994157D01*
X70515015Y-39061196D01*
X70462211Y-39106951D01*
X70393053Y-39116895D01*
X70329497Y-39087870D01*
X70323019Y-39081838D01*
X70263558Y-39022377D01*
X70105912Y-38917042D01*
X69930751Y-38844488D01*
X69930743Y-38844486D01*
X69744802Y-38807500D01*
X69744798Y-38807500D01*
X69555202Y-38807500D01*
X69555197Y-38807500D01*
X69369256Y-38844486D01*
X69369248Y-38844488D01*
X69194087Y-38917042D01*
X69036441Y-39022377D01*
X68902377Y-39156441D01*
X68797042Y-39314087D01*
X68724488Y-39489248D01*
X68724486Y-39489256D01*
X68687500Y-39675197D01*
X68687500Y-39864802D01*
X68724486Y-40050743D01*
X68724488Y-40050751D01*
X68740550Y-40089529D01*
X68757156Y-40129617D01*
X68764625Y-40199086D01*
X68733350Y-40261565D01*
X68730276Y-40264751D01*
X63484489Y-45510540D01*
X63428541Y-45566487D01*
X63428535Y-45566495D01*
X63388982Y-45635004D01*
X63388979Y-45635009D01*
X63383218Y-45656511D01*
X63368722Y-45710612D01*
X63368500Y-45711439D01*
X63368500Y-45937957D01*
X63348815Y-46004996D01*
X63296011Y-46050751D01*
X63226853Y-46060695D01*
X63163297Y-46031670D01*
X63156819Y-46025638D01*
X63153558Y-46022377D01*
X62995912Y-45917042D01*
X62820751Y-45844488D01*
X62820743Y-45844486D01*
X62634802Y-45807500D01*
X62634798Y-45807500D01*
X62445202Y-45807500D01*
X62445197Y-45807500D01*
X62259256Y-45844486D01*
X62259248Y-45844488D01*
X62084086Y-45917043D01*
X62084082Y-45917045D01*
X61969390Y-45993680D01*
X61902713Y-46014558D01*
X61835333Y-45996073D01*
X61788643Y-45944094D01*
X61776500Y-45890578D01*
X61776500Y-44960833D01*
X61796185Y-44893794D01*
X61812819Y-44873152D01*
X66244714Y-40441257D01*
X66306037Y-40407772D01*
X66375729Y-40412756D01*
X66420076Y-40441257D01*
X66496441Y-40517622D01*
X66601300Y-40587686D01*
X66654085Y-40622956D01*
X66829249Y-40695512D01*
X66987054Y-40726901D01*
X67015197Y-40732499D01*
X67015201Y-40732500D01*
X67015202Y-40732500D01*
X67204799Y-40732500D01*
X67204800Y-40732499D01*
X67390751Y-40695512D01*
X67565915Y-40622956D01*
X67723558Y-40517622D01*
X67857622Y-40383558D01*
X67962956Y-40225915D01*
X68035512Y-40050751D01*
X68072500Y-39864798D01*
X68072500Y-39675202D01*
X68035512Y-39489249D01*
X67962956Y-39314085D01*
X67909779Y-39234500D01*
X67857622Y-39156441D01*
X67723558Y-39022377D01*
X67565912Y-38917042D01*
X67390751Y-38844488D01*
X67390743Y-38844486D01*
X67204802Y-38807500D01*
X67204798Y-38807500D01*
X67015202Y-38807500D01*
X67015197Y-38807500D01*
X66829256Y-38844486D01*
X66829248Y-38844488D01*
X66654088Y-38917042D01*
X66540390Y-38993012D01*
X66473712Y-39013889D01*
X66406332Y-38995404D01*
X66359643Y-38943425D01*
X66347500Y-38889909D01*
X66347500Y-38468832D01*
X66367185Y-38401793D01*
X66383815Y-38381155D01*
X66615248Y-38149721D01*
X66676569Y-38116238D01*
X66746260Y-38121222D01*
X66750380Y-38122843D01*
X66829249Y-38155512D01*
X67015197Y-38192499D01*
X67015201Y-38192500D01*
X67015202Y-38192500D01*
X67204799Y-38192500D01*
X67204800Y-38192499D01*
X67390751Y-38155512D01*
X67565915Y-38082956D01*
X67723558Y-37977622D01*
X67857622Y-37843558D01*
X67962956Y-37685915D01*
X68035512Y-37510751D01*
X68072500Y-37324798D01*
X68072500Y-37135202D01*
X68035512Y-36949249D01*
X67962956Y-36774085D01*
X67927686Y-36721300D01*
X67857622Y-36616441D01*
X67723558Y-36482377D01*
X67565912Y-36377042D01*
X67390751Y-36304488D01*
X67390743Y-36304486D01*
X67204802Y-36267500D01*
X67204798Y-36267500D01*
X67015202Y-36267500D01*
X67015197Y-36267500D01*
X66829256Y-36304486D01*
X66829248Y-36304488D01*
X66654087Y-36377042D01*
X66496441Y-36482377D01*
X66362377Y-36616441D01*
X66257042Y-36774087D01*
X66184488Y-36949248D01*
X66184486Y-36949256D01*
X66147500Y-37135197D01*
X66147500Y-37324802D01*
X66184486Y-37510743D01*
X66184488Y-37510751D01*
X66217156Y-37589618D01*
X66224625Y-37659088D01*
X66193350Y-37721567D01*
X66190276Y-37724752D01*
X65862489Y-38052540D01*
X65806541Y-38108487D01*
X65806535Y-38108495D01*
X65766982Y-38177004D01*
X65766979Y-38177009D01*
X65758530Y-38208541D01*
X65751443Y-38234993D01*
X65746500Y-38253439D01*
X65746500Y-39492057D01*
X65726815Y-39559096D01*
X65674011Y-39604851D01*
X65604853Y-39614795D01*
X65541297Y-39585770D01*
X65503523Y-39526992D01*
X65500883Y-39516248D01*
X65497602Y-39499758D01*
X65495512Y-39489249D01*
X65422956Y-39314085D01*
X65369779Y-39234500D01*
X65317622Y-39156441D01*
X65183558Y-39022377D01*
X65025912Y-38917042D01*
X64850751Y-38844488D01*
X64850743Y-38844486D01*
X64664802Y-38807500D01*
X64664798Y-38807500D01*
X64475202Y-38807500D01*
X64475197Y-38807500D01*
X64289256Y-38844486D01*
X64289248Y-38844488D01*
X64114087Y-38917042D01*
X63956441Y-39022377D01*
X63822377Y-39156441D01*
X63717042Y-39314087D01*
X63644488Y-39489248D01*
X63644486Y-39489256D01*
X63607500Y-39675197D01*
X63607500Y-39864802D01*
X63644486Y-40050743D01*
X63644488Y-40050751D01*
X63717042Y-40225912D01*
X63822377Y-40383558D01*
X63956441Y-40517622D01*
X64061300Y-40587686D01*
X64114085Y-40622956D01*
X64289249Y-40695512D01*
X64447054Y-40726901D01*
X64475197Y-40732499D01*
X64475201Y-40732500D01*
X64475202Y-40732500D01*
X64664799Y-40732500D01*
X64664799Y-40732499D01*
X64780242Y-40709537D01*
X64811548Y-40703310D01*
X64881139Y-40709537D01*
X64936317Y-40752400D01*
X64959561Y-40818290D01*
X64943493Y-40886287D01*
X64923420Y-40912608D01*
X61291489Y-44544540D01*
X61235541Y-44600487D01*
X61235535Y-44600495D01*
X61195982Y-44669004D01*
X61195979Y-44669009D01*
X61175500Y-44745439D01*
X61175500Y-46487030D01*
X61155815Y-46554069D01*
X61103011Y-46599824D01*
X61033853Y-46609768D01*
X60970297Y-46580743D01*
X60932523Y-46521965D01*
X60929883Y-46511221D01*
X60925513Y-46489256D01*
X60925512Y-46489249D01*
X60852956Y-46314085D01*
X60788004Y-46216878D01*
X60747622Y-46156441D01*
X60613558Y-46022377D01*
X60455912Y-45917042D01*
X60280751Y-45844488D01*
X60280743Y-45844486D01*
X60094802Y-45807500D01*
X60094798Y-45807500D01*
X59905202Y-45807500D01*
X59905197Y-45807500D01*
X59719256Y-45844486D01*
X59719248Y-45844488D01*
X59544087Y-45917042D01*
X59386441Y-46022377D01*
X59252377Y-46156441D01*
X59147042Y-46314087D01*
X59074488Y-46489248D01*
X59074486Y-46489256D01*
X59037500Y-46675197D01*
X59037500Y-46864802D01*
X59074486Y-47050743D01*
X59074488Y-47050751D01*
X59147042Y-47225912D01*
X59252377Y-47383558D01*
X59386441Y-47517622D01*
X59479795Y-47579999D01*
X59544085Y-47622956D01*
X59719249Y-47695512D01*
X59904473Y-47732355D01*
X59905197Y-47732499D01*
X59905201Y-47732500D01*
X59905202Y-47732500D01*
X60094799Y-47732500D01*
X60094800Y-47732499D01*
X60280751Y-47695512D01*
X60455915Y-47622956D01*
X60613558Y-47517622D01*
X60747622Y-47383558D01*
X60852956Y-47225915D01*
X60925512Y-47050751D01*
X60929882Y-47028777D01*
X60962267Y-46966867D01*
X61022983Y-46932293D01*
X61092752Y-46936032D01*
X61149424Y-46976898D01*
X61175006Y-47041916D01*
X61175500Y-47052969D01*
X61175500Y-48486839D01*
X61155815Y-48553878D01*
X61103011Y-48599633D01*
X61055525Y-48608026D01*
X60489494Y-49174057D01*
X60473381Y-49113919D01*
X60406502Y-48998080D01*
X60311920Y-48903498D01*
X60196081Y-48836619D01*
X60135942Y-48820504D01*
X60698716Y-48257731D01*
X60698715Y-48257730D01*
X60661432Y-48230641D01*
X60484437Y-48140457D01*
X60295522Y-48079075D01*
X60099321Y-48048000D01*
X59900679Y-48048000D01*
X59704479Y-48079075D01*
X59704476Y-48079075D01*
X59515562Y-48140457D01*
X59338564Y-48230643D01*
X59301283Y-48257729D01*
X59301282Y-48257730D01*
X59864058Y-48820504D01*
X59803919Y-48836619D01*
X59688080Y-48903498D01*
X59593498Y-48998080D01*
X59526619Y-49113919D01*
X59510504Y-49174057D01*
X58947730Y-48611282D01*
X58947729Y-48611283D01*
X58920643Y-48648564D01*
X58830457Y-48825562D01*
X58769075Y-49014476D01*
X58769075Y-49014479D01*
X58738000Y-49210678D01*
X56496763Y-49210678D01*
X56664816Y-49125051D01*
X56836792Y-49000104D01*
X56987104Y-48849792D01*
X56987106Y-48849788D01*
X56987109Y-48849786D01*
X57096086Y-48699789D01*
X57112051Y-48677816D01*
X57208557Y-48488412D01*
X57274246Y-48286243D01*
X57307500Y-48076287D01*
X57307500Y-47863713D01*
X57274246Y-47653757D01*
X57208557Y-47451588D01*
X57112051Y-47262184D01*
X57112049Y-47262181D01*
X57112048Y-47262179D01*
X56987109Y-47090213D01*
X56836786Y-46939890D01*
X56664819Y-46814951D01*
X56664818Y-46814950D01*
X56664816Y-46814949D01*
X56595243Y-46779500D01*
X56475414Y-46718444D01*
X56475413Y-46718443D01*
X56475412Y-46718443D01*
X56273243Y-46652754D01*
X56273241Y-46652753D01*
X56273240Y-46652753D01*
X56111957Y-46627208D01*
X56063287Y-46619500D01*
X55850713Y-46619500D01*
X55802042Y-46627208D01*
X55640760Y-46652753D01*
X55438585Y-46718444D01*
X55249179Y-46814951D01*
X55077213Y-46939890D01*
X54926890Y-47090213D01*
X54801951Y-47262179D01*
X54705444Y-47451585D01*
X54639753Y-47653760D01*
X54609306Y-47845995D01*
X54606500Y-47863713D01*
X52505099Y-47863713D01*
X52506151Y-39675197D01*
X61067500Y-39675197D01*
X61067500Y-39864802D01*
X61104486Y-40050743D01*
X61104488Y-40050751D01*
X61177042Y-40225912D01*
X61282377Y-40383558D01*
X61416441Y-40517622D01*
X61521300Y-40587686D01*
X61574085Y-40622956D01*
X61749249Y-40695512D01*
X61907054Y-40726901D01*
X61935197Y-40732499D01*
X61935201Y-40732500D01*
X61935202Y-40732500D01*
X62124799Y-40732500D01*
X62124800Y-40732499D01*
X62310751Y-40695512D01*
X62485915Y-40622956D01*
X62643558Y-40517622D01*
X62777622Y-40383558D01*
X62882956Y-40225915D01*
X62955512Y-40050751D01*
X62992500Y-39864798D01*
X62992500Y-39675202D01*
X62955512Y-39489249D01*
X62882956Y-39314085D01*
X62829779Y-39234500D01*
X62777622Y-39156441D01*
X62643558Y-39022377D01*
X62485912Y-38917042D01*
X62310751Y-38844488D01*
X62310743Y-38844486D01*
X62124802Y-38807500D01*
X62124798Y-38807500D01*
X61935202Y-38807500D01*
X61935197Y-38807500D01*
X61749256Y-38844486D01*
X61749248Y-38844488D01*
X61574087Y-38917042D01*
X61416441Y-39022377D01*
X61282377Y-39156441D01*
X61177042Y-39314087D01*
X61104488Y-39489248D01*
X61104486Y-39489256D01*
X61067500Y-39675197D01*
X52506151Y-39675197D01*
X52506478Y-37130678D01*
X60768000Y-37130678D01*
X60768000Y-37329321D01*
X60799075Y-37525520D01*
X60799075Y-37525523D01*
X60860457Y-37714437D01*
X60950641Y-37891432D01*
X60977730Y-37928715D01*
X61540504Y-37365941D01*
X61556619Y-37426081D01*
X61623498Y-37541920D01*
X61718080Y-37636502D01*
X61833919Y-37703381D01*
X61894057Y-37719494D01*
X61331283Y-38282268D01*
X61331283Y-38282269D01*
X61368567Y-38309358D01*
X61545562Y-38399542D01*
X61734477Y-38460924D01*
X61930679Y-38492000D01*
X62129321Y-38492000D01*
X62325520Y-38460924D01*
X62325523Y-38460924D01*
X62514437Y-38399542D01*
X62691425Y-38309362D01*
X62728716Y-38282268D01*
X62165942Y-37719494D01*
X62226081Y-37703381D01*
X62341920Y-37636502D01*
X62436502Y-37541920D01*
X62503381Y-37426081D01*
X62519495Y-37365942D01*
X63082268Y-37928715D01*
X63109362Y-37891425D01*
X63199542Y-37714437D01*
X63260924Y-37525523D01*
X63260924Y-37525520D01*
X63292000Y-37329321D01*
X63292000Y-37135197D01*
X63607500Y-37135197D01*
X63607500Y-37324802D01*
X63644486Y-37510743D01*
X63644488Y-37510751D01*
X63717042Y-37685912D01*
X63822377Y-37843558D01*
X63956441Y-37977622D01*
X63987152Y-37998142D01*
X64114085Y-38082956D01*
X64289249Y-38155512D01*
X64475197Y-38192499D01*
X64475201Y-38192500D01*
X64475202Y-38192500D01*
X64664799Y-38192500D01*
X64664800Y-38192499D01*
X64850751Y-38155512D01*
X65025915Y-38082956D01*
X65183558Y-37977622D01*
X65317622Y-37843558D01*
X65422956Y-37685915D01*
X65495512Y-37510751D01*
X65532500Y-37324798D01*
X65532500Y-37135202D01*
X65495512Y-36949249D01*
X65422956Y-36774085D01*
X65387686Y-36721300D01*
X65317622Y-36616441D01*
X65183558Y-36482377D01*
X65025912Y-36377042D01*
X64850751Y-36304488D01*
X64850743Y-36304486D01*
X64664802Y-36267500D01*
X64664798Y-36267500D01*
X64475202Y-36267500D01*
X64475197Y-36267500D01*
X64289256Y-36304486D01*
X64289248Y-36304488D01*
X64114087Y-36377042D01*
X63956441Y-36482377D01*
X63822377Y-36616441D01*
X63717042Y-36774087D01*
X63644488Y-36949248D01*
X63644486Y-36949256D01*
X63607500Y-37135197D01*
X63292000Y-37135197D01*
X63292000Y-37130678D01*
X63260924Y-36934479D01*
X63260924Y-36934476D01*
X63199542Y-36745562D01*
X63109358Y-36568567D01*
X63082268Y-36531283D01*
X62519494Y-37094057D01*
X62503381Y-37033919D01*
X62436502Y-36918080D01*
X62341920Y-36823498D01*
X62226081Y-36756619D01*
X62165942Y-36740504D01*
X62728716Y-36177731D01*
X62728715Y-36177730D01*
X62691432Y-36150641D01*
X62514437Y-36060457D01*
X62325522Y-35999075D01*
X62129321Y-35968000D01*
X61930679Y-35968000D01*
X61734479Y-35999075D01*
X61734476Y-35999075D01*
X61545562Y-36060457D01*
X61368564Y-36150643D01*
X61331283Y-36177729D01*
X61331282Y-36177730D01*
X61894058Y-36740504D01*
X61833919Y-36756619D01*
X61718080Y-36823498D01*
X61623498Y-36918080D01*
X61556619Y-37033919D01*
X61540504Y-37094057D01*
X60977730Y-36531282D01*
X60977729Y-36531283D01*
X60950643Y-36568564D01*
X60860457Y-36745562D01*
X60799075Y-36934476D01*
X60799075Y-36934479D01*
X60768000Y-37130678D01*
X52506478Y-37130678D01*
X52506602Y-36164072D01*
X52506738Y-36163214D01*
X52506649Y-36132775D01*
X52507010Y-36122938D01*
X52507543Y-36115987D01*
X52522642Y-35918889D01*
X52525692Y-35899485D01*
X52572231Y-35705290D01*
X52578310Y-35686608D01*
X52654971Y-35502200D01*
X52663927Y-35484716D01*
X52768771Y-35314756D01*
X52780376Y-35298910D01*
X52910783Y-35147650D01*
X52924737Y-35133847D01*
X53077419Y-35005104D01*
X53093396Y-34993671D01*
X53264493Y-34890696D01*
X53282073Y-34881933D01*
X53467304Y-34807300D01*
X53486055Y-34801425D01*
X53680749Y-34757016D01*
X53700200Y-34754178D01*
X53904408Y-34740782D01*
X53912045Y-34740518D01*
X53913110Y-34740514D01*
X53925706Y-34740690D01*
X53926021Y-34740466D01*
X53943572Y-34740402D01*
X53944995Y-34740398D01*
X53945025Y-34740406D01*
X53945082Y-34740397D01*
X86924840Y-34644858D01*
X86928127Y-34645344D01*
X86944341Y-34645048D01*
X86944343Y-34645049D01*
X86955821Y-34644839D01*
X86965652Y-34645051D01*
G37*
%TD.AperFunction*%
%TD*%
M02*
