M48
; DRILL file {KiCad 9.0.2} date 2025-07-28T15:43:59-0400
; FORMAT={-:-/ absolute / metric / decimal}
; #@! TF.CreationDate,2025-07-28T15:43:59-04:00
; #@! TF.GenerationSoftware,Kicad,Pcbnew,9.0.2
; #@! TF.FileFunction,Plated,1,2,PTH
FMAT,2
METRIC
; #@! TA.AperFunction,Plated,PTH,ViaDrill
T1C0.600
; #@! TA.AperFunction,Plated,PTH,ComponentDrill
T2C0.710
; #@! TA.AperFunction,Plated,PTH,ComponentDrill
T3C0.800
; #@! TA.AperFunction,Plated,PTH,ComponentDrill
T4C1.000
; #@! TA.AperFunction,Plated,PTH,ComponentDrill
T5C1.016
; #@! TA.AperFunction,Plated,PTH,ComponentDrill
T6C1.330
%
G90
G05
T1
X71.411Y-43.69
T2
X138.8Y-51.58
X138.8Y-53.58
X138.8Y-55.58
X138.8Y-57.56
X138.8Y-59.58
X138.8Y-61.58
X138.8Y-63.58
X138.8Y-65.58
X148.365Y-47.58
X148.365Y-69.5
X150.365Y-47.58
X150.365Y-69.54
X152.365Y-47.58
X152.365Y-69.54
X154.365Y-47.58
X154.365Y-69.54
X156.365Y-47.58
X156.365Y-69.54
X158.365Y-47.58
X158.365Y-69.54
X160.365Y-47.58
X160.365Y-69.5
X162.365Y-47.58
X162.365Y-69.5
X164.365Y-47.58
X164.365Y-69.54
X166.365Y-47.58
X166.365Y-69.5
T3
X101.546Y-87.611
X104.086Y-87.611
T4
X65.09Y-54.62
X67.63Y-54.62
X70.17Y-54.62
X72.71Y-54.62
X86.87Y-54.51
X89.41Y-54.51
X91.95Y-54.51
X94.49Y-54.51
X97.03Y-54.51
X99.57Y-54.51
T5
X60.0Y-46.77
X60.0Y-49.31
X62.03Y-37.23
X62.03Y-39.77
X62.54Y-46.77
X62.54Y-49.31
X64.57Y-37.23
X64.57Y-39.77
X65.08Y-46.77
X65.08Y-49.31
X67.11Y-37.23
X67.11Y-39.77
X67.62Y-46.77
X67.62Y-49.31
X69.65Y-37.23
X69.65Y-39.77
X70.16Y-46.77
X70.16Y-49.31
X72.19Y-37.23
X72.19Y-39.77
X72.7Y-46.77
X72.7Y-49.31
X74.73Y-37.23
X74.73Y-39.77
X75.11Y-97.99
X75.24Y-46.77
X75.24Y-49.31
X77.27Y-37.23
X77.27Y-39.77
X77.65Y-97.99
X77.78Y-46.77
X77.78Y-49.31
X79.81Y-37.23
X79.81Y-39.77
X80.19Y-97.99
X80.32Y-46.77
X80.32Y-49.31
X82.35Y-37.23
X82.35Y-39.77
X82.73Y-97.99
X82.86Y-46.77
X82.86Y-49.31
X84.89Y-37.23
X84.89Y-39.77
X85.27Y-97.99
X85.4Y-46.77
X85.4Y-49.31
X87.81Y-97.99
X87.94Y-46.77
X87.94Y-49.31
X90.35Y-97.99
X90.48Y-46.77
X90.48Y-49.31
X93.02Y-46.77
X93.02Y-49.31
X95.56Y-46.77
X95.56Y-49.31
X98.1Y-46.77
X98.1Y-49.31
X100.64Y-46.77
X100.64Y-49.31
X103.18Y-46.77
X103.18Y-49.31
X105.72Y-46.77
X105.72Y-49.31
X108.26Y-46.77
X108.26Y-49.31
T6
X100.694Y-78.126
X103.234Y-78.126
X105.774Y-78.126
M30
